SplineFontDB: 1.0
FontName: DBThaiText
FullName: DBThaiText
FamilyName: DBThaiText
Weight: Medium
Copyright: Typeface (c) The Monotype Corporation plc. Data (c) The Monotype Corporation plc/Type Solutions Inc. 1990-1992. All Rights Reserved\n\nModified by TLWG
Version: 1.1 : May 12, 2003
ItalicAngle: 0
UnderlinePosition: -477
UnderlineWidth: 84
Ascent: 1638
Descent: 410
NeedsXUIDChange: 1
FSType: 0
PfmFamily: 33
TTFWeight: 500
TTFWidth: 5
Panose: 2 0 6 3 0 0 0 0 0 0
LineGap: 184
VLineGap: 0
LangName: 1033 "" "" "" "PfaEdit : DBThaiText : 13-0-2003" 
Encoding: compacted
OldEncoding: iso8859_1
DisplaySize: -72
AntiAlias: 1
WinInfo: 96 8 2
BeginPrivate: 2
BlueValues 38 [-32 10 0 0 745 783 786 802 1011 1030]
OtherBlues 11 [-271 -269]
EndPrivate
BeginChars: 290 257
StartChar: .notdef
Encoding: 0 -1
OldEncoding: 0
Width: 1090
Flags: HW
HStem: 1746 144<235 797>
VStem: 77 146<105 1739> 801 146<105 1739>
Fore
77 -54 m 1
 77 1890 l 1
 947 1890 l 1
 947 -54 l 1
 77 -54 l 1
223 90 m 1
 801 90 l 1
 801 1746 l 1
 223 1746 l 1
 223 90 l 1
EndSplineSet
MinimumDistance: x2,-1 
EndChar
StartChar: exclam
Encoding: 33 33
OldEncoding: 33
Width: 359
Flags: HW
HStem: -0 21G<145.24 262.76> 991 20G<145.24 262.76>
VStem: 145 118<14 128 512 1008>
Fore
232 231 m 1
 175 231 l 1
 145 514 l 5
 145 1011 l 1
 263 1011 l 1
 263 514 l 1
 232 231 l 1
145 143 m 1
 263 143 l 1
 263 -0 l 1
 145 -0 l 1
 145 143 l 1
EndSplineSet
MinimumDistance: x4,-1 
EndChar
StartChar: quotedbl
Encoding: 34 34
OldEncoding: 34
Width: 463
Flags: W
HStem: 991 20G<61 179 278 396>
VStem: 61 118<853 1011> 278 118<853 1011>
Fore
91 672 m 1
 61 854 l 1
 61 1011 l 5
 179 1011 l 1
 179 854 l 1
 148 672 l 1
 91 672 l 1
308 672 m 1
 278 854 l 1
 278 1011 l 1
 396 1011 l 1
 396 854 l 1
 365 672 l 1
 308 672 l 1
EndSplineSet
MinimumDistance: x9,-1 
EndChar
StartChar: numbersign
Encoding: 35 35
OldEncoding: 35
Width: 728
Flags: HW
HStem: -24 21G<61.8896 165.85 342.13 446.09> 267 112<-12 102 243 390 532 646> 591 111<36 167 308 448 596 694>
DStem: 112.74 267.145 222.35 267.145 61.8896 -24.3945 165.85 -24.3945 173.76 591.455 279.98 591.455 134.21 379.015 242.69 379.015 242.69 973.395 348.91 973.395 191.84 702.195 298.06 702.195 392.98 267.145 499.2 267.145 342.13 -24.3945 446.09 -24.3945 450.61 591.455 560.22 591.455 414.45 379.015 522.93 379.015 520.67 973.395 629.15 973.395 472.08 702.195 580.56 702.195
Fore
243 973 m 1
 349 973 l 1
 298 702 l 1
 472 702 l 1
 521 973 l 1
 629 973 l 1
 581 702 l 1
 708 702 l 1
 708 591 l 1
 560 591 l 1
 523 379 l 1
 662 379 l 1
 662 267 l 1
 499 267 l 1
 446 -24 l 1
 342 -24 l 1
 393 267 l 1
 222 267 l 1
 166 -24 l 1
 62 -24 l 1
 113 267 l 1
 -26 267 l 1
 -26 379 l 1
 134 379 l 1
 174 591 l 1
 27 591 l 1
 27 702 l 1
 192 702 l 1
 243 973 l 1
280 591 m 1
 243 379 l 1
 414 379 l 1
 451 591 l 1
 280 591 l 1
EndSplineSet
MinimumDistance: x5,-1 
EndChar
StartChar: dollar
Encoding: 36 36
OldEncoding: 36
Width: 728
Flags: HW
VStem: 294 84<-153 -27 74 427 583 889 1001 1065> 557 119<247 281>
Fore
645 729 m 1
 534 729 l 1
 532 782 519 821 495 846 c 1
 469 882 431 900 378 900 c 1
 378 559 l 1
 455 537 508 519 539 504 c 1
 572 491 604 465 634 426 c 1
 662 387 676 334 676 268 c 0
 676 196 652 135 606 83 c 0
 559 31 508 -0 453 -9 c 2
 378 -24 l 1
 378 -168 l 1
 294 -168 l 1
 294 -26 l 1
 232 -13 186 -1 157 9 c 0
 122 22 87 51 53 97 c 1
 19 140 2 206 2 296 c 1
 108 296 l 1
 113 254 119 220 128 194 c 0
 134 168 151 143 176 120 c 1
 200 100 240 84 294 71 c 1
 294 448 l 1
 215 474 l 2
 185 483 159 495 137 508 c 1
 118 517 98 532 76 552 c 1
 40 598 23 665 23 751 c 1
 32 832 62 892 111 932 c 0
 158 970 219 994 294 1002 c 1
 294 1076 l 1
 378 1076 l 1
 378 1002 l 1
 456 994 519 969 567 927 c 0
 598 902 619 871 629 835 c 0
 640 798 645 762 645 729 c 1
294 572 m 1
 294 903 l 1
 252 900 215 886 183 859 c 1
 148 825 130 791 130 755 c 0
 128 708 142 668 174 634 c 0
 203 601 243 581 294 572 c 1
378 435 m 1
 378 73 l 1
 401 75 425 83 451 95 c 1
 478 104 503 124 525 152 c 0
 547 182 557 219 557 265 c 0
 557 320 541 358 508 379 c 0
 479 399 436 417 378 435 c 1
EndSplineSet
MinimumDistance: x7,-1 
EndChar
StartChar: percent
Encoding: 37 37
OldEncoding: 37
Width: 1161
Flags: HW
HStem: -25 97<867 897> 352 97<867 897> 480 97<191 225> 857 97<191 225>
VStem: -31 97<709 727> 348 97<709 727> 647 97<197 231> 1024 97<197 231>
DStem: 774.39 986.175 868.18 986.175 225.21 -25.1748 320.13 -25.1748
Fore
774 986 m 1
 868 986 l 1
 320 -25 l 1
 225 -25 l 1
 774 986 l 1
-31 716 m 0
 -31 782 -8 839 38 884 c 0
 87 931 143 954 207 954 c 0
 273 954 329 931 376 884 c 0
 422 838 445 782 445 716 c 0
 445 651 421 595 373 549 c 0
 327 503 272 480 207 480 c 0
 144 480 88 503 40 549 c 0
 -8 594 -31 650 -31 716 c 0
647 213 m 0
 647 279 670 335 716 380 c 0
 762 426 818 449 885 449 c 0
 928 449 967 439 1003 418 c 0
 1040 396 1069 367 1089 332 c 0
 1110 294 1121 255 1121 213 c 0
 1121 148 1098 92 1051 45 c 0
 1005 -2 949 -25 885 -25 c 0
 821 -25 765 -2 716 45 c 0
 670 91 647 147 647 213 c 0
66 716 m 0
 66 676 80 644 108 619 c 1
 135 591 168 577 207 577 c 0
 247 577 281 591 309 619 c 0
 335 645 348 678 348 716 c 0
 348 742 342 766 329 787 c 0
 317 809 300 826 278 838 c 0
 257 851 233 857 207 857 c 0
 167 857 134 844 108 818 c 0
 80 790 66 756 66 716 c 0
744 213 m 0
 744 173 758 139 786 114 c 1
 814 86 847 72 885 72 c 0
 922 72 955 86 985 114 c 1
 1011 142 1024 175 1024 213 c 0
 1024 252 1010 285 982 310 c 0
 954 338 922 352 885 352 c 0
 846 352 813 338 786 310 c 1
 758 286 744 253 744 213 c 0
EndSplineSet
MinimumDistance: x17,-1 
EndChar
StartChar: ampersand
Encoding: 38 38
OldEncoding: 38
Width: 870
Flags: HW
HStem: -30 112<293 321> 3 21G<676.2 828.75> 891 97<351 370>
VStem: 482 116<769 787>
DStem: 303.3 468.765 403.87 528.655 525.91 190.785 585.8 303.785 590.32 104.905 658.12 213.385 676.2 3.20508 828.75 3.20508
Fore
829 3 m 1
 676 3 l 1
 590 105 l 1
 559 78 l 1
 547 66 531 53 510 38 c 0
 494 25 474 13 452 1 c 1
 396 -19 343 -30 294 -30 c 0
 239 -30 191 -17 148 8 c 0
 63 57 19 130 16 228 c 0
 14 289 26 342 54 387 c 0
 81 433 119 470 165 500 c 2
 237 549 l 1
 190 617 l 2
 150 675 130 726 130 772 c 0
 130 847 164 906 230 950 c 0
 269 976 315 988 369 988 c 0
 431 988 484 969 526 929 c 0
 574 883 598 831 598 774 c 0
 598 735 587 698 563 663 c 0
 538 622 509 593 477 575 c 1
 404 529 l 1
 586 304 l 1
 615 362 630 416 630 467 c 1
 742 467 l 1
 742 435 733 392 716 339 c 0
 700 290 681 248 658 213 c 1
 829 3 l 1
468 834 m 0
 462 852 449 866 429 876 c 1
 412 886 390 891 362 891 c 0
 333 891 308 884 287 869 c 0
 268 854 255 831 248 802 c 1
 248 755 254 724 265 707 c 0
 272 694 297 664 338 615 c 1
 371 627 403 646 433 672 c 0
 466 699 482 733 482 774 c 0
 482 793 477 813 468 834 c 0
526 191 m 1
 303 469 l 1
 252 436 l 2
 239 427 220 412 197 390 c 1
 180 370 165 347 153 321 c 0
 141 291 135 260 135 230 c 1
 139 200 157 168 188 133 c 0
 217 99 260 82 316 82 c 0
 350 82 383 89 413 103 c 0
 440 113 478 143 526 191 c 1
EndSplineSet
MinimumDistance: x0,-1 
EndChar
StartChar: quotesingle
Encoding: 39 39
OldEncoding: 39
Width: 249
Flags: W
HStem: 991 20G<61 179>
VStem: 61 118<853 1011>
Fore
91 672 m 1
 61 854 l 1
 61 1011 l 5
 179 1011 l 1
 179 854 l 1
 148 672 l 1
 91 672 l 1
EndSplineSet
MinimumDistance: x3,-1 
EndChar
StartChar: parenleft
Encoding: 40 40
OldEncoding: 40
Width: 433
Flags: HW
HStem: 1008 20G<297.45 375.42>
VStem: 73 116<343 409>
Fore
297 1028 m 1
 375 1028 l 1
 307 912 259 800 232 690 c 0
 203 580 189 475 189 375 c 0
 189 277 203 173 232 63 c 0
 261 -51 308 -165 375 -279 c 1
 297 -279 l 1
 268 -239 239 -191 209 -136 c 0
 181 -85 157 -30 135 30 c 0
 120 75 104 134 88 209 c 0
 78 265 73 320 73 375 c 0
 73 447 83 524 103 607 c 0
 124 692 151 768 183 836 c 0
 220 914 258 978 297 1028 c 1
EndSplineSet
MinimumDistance: x3,-1 
EndChar
StartChar: parenright
Encoding: 41 41
OldEncoding: 41
Width: 438
Flags: HW
HStem: 1008 20G<29.5801 106.42>
VStem: 217 115<343 409>
Fore
30 1028 m 1
 106 1028 l 1
 145 978 183 914 222 836 c 0
 251 777 278 700 303 604 c 0
 323 527 332 450 332 375 c 0
 332 298 323 222 303 147 c 0
 279 55 252 -22 222 -83 c 0
 181 -166 143 -232 106 -279 c 1
 30 -279 l 1
 76 -202 113 -124 140 -43 c 1
 168 32 189 106 201 178 c 0
 212 246 217 312 217 375 c 0
 217 428 214 476 208 519 c 0
 201 565 191 617 178 675 c 0
 162 737 143 796 120 852 c 0
 91 917 61 976 30 1028 c 1
EndSplineSet
MinimumDistance: x4,-1 
EndChar
StartChar: asterisk
Encoding: 42 42
OldEncoding: 42
Width: 508
Flags: HW
DStem: 172.785 764.01 236.065 719.94 77.8652 640.84 145.665 592.25 191.995 990.01 276.745 990.01 196.515 835.2 272.225 835.2
Fore
25 808 m 1
 51 888 l 1
 197 835 l 1
 192 990 l 1
 277 990 l 1
 272 835 l 1
 416 886 l 1
 446 800 l 1
 296 764 l 1
 389 639 l 1
 321 590 l 1
 236 720 l 1
 146 592 l 1
 78 641 l 1
 173 764 l 1
 25 808 l 1
EndSplineSet
MinimumDistance: x4,-1 
EndChar
StartChar: plus
Encoding: 43 43
OldEncoding: 43
Width: 762
Flags: HW
HStem: 450 97<37 309 406 679>
VStem: 309 97<178 450 547 820>
Fore
309 835 m 5
 406 835 l 5
 406 547 l 5
 694 547 l 5
 694 450 l 5
 406 450 l 5
 406 163 l 5
 309 163 l 5
 309 450 l 5
 22 450 l 5
 22 547 l 5
 309 547 l 5
 309 835 l 5
EndSplineSet
MinimumDistance: x3,-1 y5,7 y5,6 y2,0 y2,1 x8,10 x8,9 x2,4 x2,3 
EndChar
StartChar: comma
Encoding: 44 44
OldEncoding: 44
Width: 365
Flags: HW
Fore
272 74 m 4
 272 9 254 -40 217 -75 c 5
 178 -108 137 -128 94 -134 c 5
 73 -134 62 -131 62 -123 c 4
 62 -119 64 -115 69 -111 c 5
 85 -105 109 -93 142 -72 c 4
 172 -53 189 -29 193 0 c 5
 175 -4 l 5
 150 -9 l 5
 89 -2 58 30 58 88 c 4
 58 115 66 138 83 157 c 4
 98 176 122 185 153 185 c 4
 230 185 270 148 272 74 c 4
EndSplineSet
EndChar
StartChar: hyphen
Encoding: 45 45
OldEncoding: 45
Width: 435
Flags: HW
HStem: 347 102<53 359>
Fore
367 449 m 1
 367 347 l 1
 38 347 l 1
 38 449 l 1
 367 449 l 1
EndSplineSet
EndChar
StartChar: period
Encoding: 46 46
OldEncoding: 46
Width: 366
Flags: HW
Fore
55 72 m 4
 55 98 64 122 84 142 c 4
 104 162 128 171 154 171 c 4
 169 171 185 167 203 158 c 4
 218 149 230 136 239 121 c 4
 249 106 253 89 253 72 c 4
 253 46 243 23 223 3 c 5
 206 -17 183 -27 154 -27 c 4
 128 -27 104 -17 84 3 c 4
 64 23 55 46 55 72 c 4
EndSplineSet
EndChar
StartChar: slash
Encoding: 47 47
OldEncoding: 47
Width: 364
Flags: HW
HStem: -17 21G<-33.2695 42.4404>
DStem: 295.56 996.305 371.27 996.305 -33.2695 -17.3047 42.4404 -17.3047
Fore
-33 -17 m 5
 296 996 l 5
 371 996 l 5
 42 -17 l 5
 -33 -17 l 5
EndSplineSet
EndChar
StartChar: zero
Encoding: 48 48
OldEncoding: 48
Width: 786
Flags: HW
HStem: -11 116<359 377> 902 119<359 377>
VStem: 41 119<467 533> 575 119<467 533>
Fore
368 -11 m 0
 319 -11 271 1 226 25 c 0
 184 47 146 85 113 139 c 1
 88 184 70 241 57 310 c 0
 46 380 41 445 41 506 c 4
 41 569 46 635 57 704 c 0
 69 771 87 829 113 878 c 1
 144 926 182 962 226 986 c 0
 269 1010 317 1021 368 1021 c 0
 420 1021 468 1010 514 986 c 1
 560 960 596 924 622 878 c 0
 670 796 694 672 694 506 c 0
 694 341 670 219 622 139 c 1
 594 86 557 48 511 25 c 0
 464 1 416 -11 368 -11 c 0
368 105 m 0
 439 105 493 139 529 208 c 0
 536 220 544 242 553 274 c 1
 561 313 565 350 567 382 c 1
 572 423 575 464 575 504 c 0
 575 542 572 582 567 625 c 1
 565 660 561 697 553 733 c 0
 545 764 537 786 529 800 c 0
 494 868 440 902 368 902 c 0
 337 902 307 894 279 878 c 0
 249 860 225 834 207 800 c 0
 197 780 186 738 173 675 c 1
 164 608 160 551 160 504 c 0
 160 457 164 400 173 332 c 0
 183 274 194 233 207 208 c 0
 227 173 251 149 279 133 c 0
 310 114 340 105 368 105 c 0
EndSplineSet
MinimumDistance: x11,-1 
EndChar
StartChar: one
Encoding: 49 49
OldEncoding: 49
Width: 768
Flags: HW
HStem: -0 21G<362.079 481.055>
VStem: 362 119<14 704>
Fore
481 -0 m 5
 362 -0 l 5
 362 706 l 5
 135 706 l 5
 135 803 l 5
 202 811 252 821 285 833 c 4
 314 844 335 860 349 883 c 4
 365 911 381 949 399 999 c 5
 481 999 l 5
 481 -0 l 5
EndSplineSet
MinimumDistance: x0,-1 y4,2 x2,4 x2,3 
EndChar
StartChar: two
Encoding: 50 50
OldEncoding: 50
Width: 768
Flags: HW
HStem: -0 116<156 687>
Fore
497 410 m 6
 331 324 l 5
 291 301 254 272 220 238 c 4
 176 196 153 155 153 116 c 5
 688 116 l 5
 688 -0 l 5
 21 -0 l 5
 27 61 36 120 48 177 c 5
 59 212 82 251 117 293 c 4
 153 338 208 381 281 420 c 6
 433 507 l 6
 521 556 566 617 569 692 c 4
 571 729 561 766 539 803 c 4
 517 835 492 857 463 869 c 4
 432 884 400 891 370 891 c 4
 297 888 245 866 214 825 c 4
 184 782 167 725 164 653 c 5
 43 653 l 5
 45 712 55 767 71 819 c 4
 85 867 115 905 159 933 c 5
 191 960 226 977 262 986 c 4
 302 995 346 999 394 999 c 4
 476 996 543 973 594 930 c 4
 643 887 674 831 688 764 c 4
 694 736 697 715 697 700 c 4
 697 640 676 584 635 531 c 4
 592 475 546 435 497 410 c 6
EndSplineSet
EndChar
StartChar: three
Encoding: 51 51
OldEncoding: 51
Width: 768
Flags: HW
HStem: -14 114<333 372> 908 111<348 376>
VStem: 548 127<714.534 733.153 733.241 754> 578 127<289 322>
Fore
36 310 m 5
 155 310 l 5
 163 257 l 5
 166 233 172 210 182 188 c 4
 194 162 212 143 235 130 c 5
 263 109 296 100 335 100 c 4
 491 97 573 160 578 290 c 5
 578 310 l 6
 578 370 559 414 520 440 c 4
 484 466 431 479 362 479 c 5
 304 476 l 5
 304 584 l 5
 394 587 457 598 493 617 c 4
 532 639 551 684 548 751 c 4
 548 815 529 857 490 878 c 4
 452 898 405 908 348 908 c 5
 306 899 272 888 248 872 c 4
 224 855 208 837 199 817 c 5
 189 797 182 774 179 748 c 5
 176 695 l 5
 60 698 l 5
 60 799 86 878 139 936 c 4
 190 991 264 1019 362 1019 c 4
 418 1019 470 1009 520 989 c 4
 569 968 606 936 633 894 c 4
 661 850 675 796 675 733 c 4
 675 684 665 646 644 620 c 4
 624 593 594 566 556 537 c 5
 611 514 650 482 673 443 c 4
 694 402 705 353 705 296 c 5
 708 242 692 186 656 127 c 4
 621 73 572 35 509 14 c 4
 459 -2 414 -12 374 -14 c 4
 357 -14 326 -11 282 -5 c 5
 196 14 136 50 102 102 c 4
 66 156 44 225 36 310 c 5
EndSplineSet
MinimumDistance: x29,-1 
EndChar
StartChar: four
Encoding: 52 52
OldEncoding: 52
Width: 768
Flags: HW
HStem: -0 21G<451.823 568.095> 235 116<147 451 568 709>
VStem: 452 116<14 235 352 800>
DStem: 477.511 999.06 451.823 800.317 20.5391 367.682 131.402 351.457
Fore
452 235 m 5
 21 235 l 5
 21 368 l 5
 478 999 l 5
 568 999 l 5
 568 351 l 5
 715 351 l 5
 715 235 l 5
 568 235 l 5
 568 -0 l 5
 452 -0 l 5
 452 235 l 5
452 351 m 5
 452 800 l 5
 131 351 l 5
 452 351 l 5
EndSplineSet
MinimumDistance: x6,-1 x3,5 y5,3 y5,4 y0,9 y0,10 x5,7 x5,6 y2,0 x0,2 x0,1 
EndChar
StartChar: five
Encoding: 53 53
OldEncoding: 53
Width: 768
Flags: HW
HStem: 555 116<334 370> 891 122<221 640>
DStem: 124.152 1012.46 222.847 890.78 45.7363 467.608 182.287 613.623
Fore
159 468 m 5
 46 468 l 5
 124 1013 l 5
 642 1013 l 5
 642 891 l 5
 223 891 l 5
 182 614 l 5
 229 652 288 671 359 671 c 4
 406 671 450 665 492 650 c 4
 628 599 695 491 692 326 c 4
 689 263 671 202 637 140 c 5
 607 93 566 54 515 24 c 5
 480 7 432 -8 370 -20 c 5
 322 -20 276 -15 232 -3 c 4
 185 11 147 32 116 61 c 5
 86 84 66 108 55 132 c 5
 43 153 33 178 27 207 c 6
 16 257 l 5
 143 257 l 5
 156 219 178 182 209 146 c 5
 243 114 295 99 365 99 c 5
 479 114 542 177 553 288 c 5
 553 384 533 452 495 492 c 4
 455 534 406 555 349 555 c 4
 276 555 212 526 159 468 c 5
EndSplineSet
MinimumDistance: x5,-1 
EndChar
StartChar: six
Encoding: 54 54
OldEncoding: 54
Width: 768
Flags: HW
HStem: -11 108<353 371> 535 111<365 396> 762 21G<554.927 676.605> 908 114<392 419>
VStem: 574 126<307 329>
Fore
677 762 m 5
 555 762 l 5
 555 801 543 832 518 855 c 4
 492 882 459 900 420 908 c 5
 315 908 242 865 201 778 c 4
 166 704 148 633 148 564 c 5
 153 529 l 5
 172 546 190 562 206 579 c 4
 221 594 236 605 253 612 c 4
 274 624 294 632 312 637 c 4
 330 643 356 646 389 646 c 4
 445 646 495 634 536 612 c 4
 578 589 613 560 639 524 c 4
 667 482 683 444 687 408 c 5
 696 388 700 361 700 327 c 4
 700 291 696 266 687 249 c 5
 679 195 660 151 629 117 c 5
 593 71 558 39 522 20 c 4
 479 -1 427 -11 367 -11 c 4
 319 -11 272 -0 225 22 c 4
 183 40 150 69 126 108 c 5
 85 162 59 222 48 286 c 4
 39 354 34 436 34 532 c 4
 34 616 46 692 68 759 c 4
 99 852 144 918 203 958 c 5
 262 1000 326 1022 394 1022 c 4
 469 1022 533 998 586 950 c 4
 612 926 633 900 650 870 c 4
 662 847 671 811 677 762 c 5
539 186 m 5
 562 217 574 259 574 310 c 4
 574 363 561 413 535 462 c 6
 531 468 l 6
 502 513 449 535 372 535 c 4
 341 535 312 528 286 516 c 4
 258 501 235 485 217 466 c 4
 182 430 164 383 164 327 c 4
 164 277 180 228 212 181 c 5
 253 125 307 97 372 97 c 4
 442 94 497 124 539 186 c 5
EndSplineSet
MinimumDistance: x14,-1 
EndChar
StartChar: seven
Encoding: 55 55
OldEncoding: 55
Width: 768
Flags: HW
HStem: -0 21G<160.146 293.992> 883 116<48 562>
Fore
33 883 m 5
 33 999 l 5
 701 999 l 5
 701 895 l 5
 590 737 l 5
 554 687 511 612 460 512 c 4
 378 356 323 185 294 -0 c 5
 160 -0 l 5
 192 128 219 222 241 283 c 4
 256 326 290 399 344 502 c 5
 474 726 l 5
 570 883 l 5
 33 883 l 5
EndSplineSet
EndChar
StartChar: eight
Encoding: 56 56
OldEncoding: 56
Width: 768
Flags: HW
HStem: 490 105<336 348 348.824 358.168> 910 108<346 386>
VStem: 68 124<736 770> 543 124<736 770> 573 131<270 294>
Fore
172 960 m 4
 224 999 285 1018 356 1018 c 4
 442 1018 515 999 573 960 c 4
 599 944 623 914 643 870 c 4
 660 831 667 792 667 753 c 4
 667 699 655 657 629 629 c 5
 612 605 583 577 541 545 c 5
 572 540 607 512 646 463 c 4
 685 411 704 347 704 271 c 5
 691 183 650 110 579 53 c 5
 508 5 433 -17 351 -14 c 4
 322 -14 280 -6 227 11 c 4
 189 24 154 45 122 75 c 4
 66 123 36 188 34 271 c 4
 31 350 47 409 81 448 c 5
 92 474 129 507 192 545 c 5
 142 584 l 5
 114 612 l 5
 105 622 97 635 89 648 c 5
 75 680 68 715 68 753 c 4
 68 838 102 907 172 960 c 4
485 875 m 4
 458 899 420 910 369 910 c 4
 314 910 272 897 242 870 c 4
 209 842 192 803 192 753 c 4
 192 727 196 706 203 690 c 4
 226 627 275 595 349 595 c 4
 425 592 479 613 510 656 c 4
 532 687 543 719 543 753 c 4
 543 803 524 844 485 875 c 4
533 418 m 4
 488 469 429 493 358 490 c 5
 286 490 232 465 195 416 c 4
 170 383 158 340 158 286 c 5
 164 231 180 190 208 163 c 5
 231 137 278 117 349 102 c 5
 397 105 444 116 488 136 c 5
 545 173 573 225 573 291 c 4
 573 324 570 348 562 365 c 4
 553 390 543 407 533 418 c 4
EndSplineSet
MinimumDistance: x8,-1 
EndChar
StartChar: nine
Encoding: 57 57
OldEncoding: 57
Width: 768
Flags: HW
HStem: -14 119<317 357.712> 905 114<354 383.608>
Fore
52 241 m 5
 177 241 l 5
 177 208 191 178 218 152 c 4
 247 127 281 111 319 105 c 5
 422 105 493 145 532 225 c 5
 543 251 555 287 567 334 c 5
 578 387 583 422 583 440 c 5
 578 476 l 5
 550 439 514 409 470 384 c 4
 452 374 426 365 393 360 c 5
 285 365 l 5
 222 374 168 400 124 445 c 4
 82 488 55 538 41 595 c 5
 38 621 36 648 36 678 c 5
 41 762 l 5
 51 810 72 854 102 891 c 4
 144 941 181 974 213 991 c 5
 254 1009 305 1019 366 1019 c 4
 474 1022 555 981 609 897 c 5
 652 835 681 739 694 606 c 5
 697 516 l 5
 694 424 l 5
 692 374 682 315 665 246 c 4
 638 151 589 82 520 41 c 4
 475 14 421 -5 358 -14 c 5
 314 -14 271 -10 229 0 c 5
 193 12 163 30 139 53 c 4
 86 104 58 166 52 241 c 5
194 822 m 4
 170 790 158 747 158 693 c 4
 158 637 172 585 202 537 c 4
 234 487 287 463 360 465 c 4
 388 465 419 474 451 490 c 4
 479 503 500 520 515 540 c 5
 550 575 567 620 567 675 c 4
 567 729 551 780 520 828 c 4
 505 852 483 871 454 883 c 4
 425 898 395 905 363 905 c 4
 288 905 232 877 194 822 c 4
EndSplineSet
EndChar
StartChar: colon
Encoding: 58 58
OldEncoding: 58
Width: 363
Flags: HW
HStem: -21 199<173 191> 562 200<173 191>
Fore
79 78 m 4
 79 105 89 128 109 148 c 4
 129 168 152 178 178 178 c 4
 197 178 213 173 227 164 c 5
 242 158 254 146 264 127 c 4
 273 111 277 95 277 78 c 4
 277 52 268 29 248 9 c 4
 227 -11 204 -21 178 -21 c 4
 152 -21 129 -11 109 9 c 4
 89 29 79 52 79 78 c 4
79 661 m 4
 79 690 89 714 109 734 c 4
 130 753 153 762 178 762 c 4
 204 762 228 753 250 734 c 5
 268 713 277 689 277 661 c 4
 277 635 268 612 248 593 c 4
 227 572 204 562 178 562 c 4
 152 562 129 572 109 593 c 4
 89 612 79 635 79 661 c 4
EndSplineSet
EndChar
StartChar: semicolon
Encoding: 59 59
OldEncoding: 59
Width: 365
Flags: HW
HStem: 593 199<138 156>
Fore
282 73 m 4
 282 8 263 -42 224 -75 c 4
 187 -109 147 -129 104 -135 c 5
 82 -135 72 -132 72 -124 c 4
 72 -120 74 -116 78 -112 c 5
 93 -106 118 -94 153 -73 c 5
 185 -52 201 -28 204 -1 c 5
 185 -5 l 5
 160 -10 l 5
 98 -3 67 29 67 87 c 4
 67 114 75 137 92 156 c 4
 108 175 132 184 162 184 c 4
 240 184 279 147 282 73 c 4
43 693 m 4
 43 719 53 742 74 763 c 4
 93 783 116 792 143 792 c 4
 159 792 175 788 191 779 c 4
 210 769 223 757 229 742 c 5
 238 728 242 712 242 693 c 4
 242 667 232 644 213 624 c 4
 192 604 169 593 143 593 c 4
 116 593 93 604 74 624 c 4
 53 644 43 667 43 693 c 4
EndSplineSet
EndChar
StartChar: less
Encoding: 60 60
OldEncoding: 60
Width: 762
Flags: HW
DStem: 16 450.41 145.95 499 694 163.39 694 274.13 694 834.61 694 722.74 16 547.59 145.95 499
Fore
694 835 m 5
 694 723 l 5
 146 499 l 5
 694 274 l 5
 694 163 l 5
 16 450 l 5
 16 548 l 5
 694 835 l 5
EndSplineSet
MinimumDistance: x0,-1 
EndChar
StartChar: equal
Encoding: 61 61
OldEncoding: 61
Width: 762
Flags: HW
HStem: 332 97<37 679> 568 97<37 679>
Fore
22 665 m 5
 694 665 l 5
 694 568 l 5
 22 568 l 5
 22 665 l 5
22 429 m 5
 694 429 l 5
 694 332 l 5
 22 332 l 5
 22 429 l 5
EndSplineSet
EndChar
StartChar: greater
Encoding: 62 62
OldEncoding: 62
Width: 762
Flags: HW
DStem: 21.9346 722.74 21.9346 834.61 566.595 499 701.065 547.59 566.595 499 701.065 450.41 21.9346 274.13 21.9346 163.39
Fore
701 548 m 5
 701 450 l 5
 22 163 l 5
 22 274 l 5
 567 499 l 5
 22 723 l 5
 22 835 l 5
 701 548 l 5
EndSplineSet
MinimumDistance: x0,-1 
EndChar
StartChar: question
Encoding: 63 63
OldEncoding: 63
Width: 726
Flags: HW
HStem: -1 21G<286.615 414.305> 918 106<346 372>
VStem: 287 128<14 128 286 354> 534 125<749 767>
Fore
415 270 m 1
 287 270 l 1
 287 353 l 2
 287 394 299 431 324 462 c 0
 345 492 372 522 405 554 c 2
 409 557 l 1
 448 593 l 1
 483 628 l 1
 509 668 l 1
 526 707 534 740 534 765 c 0
 534 794 527 820 514 844 c 1
 496 868 475 887 453 900 c 1
 426 912 397 918 366 918 c 0
 321 918 285 909 258 893 c 0
 232 876 213 854 201 827 c 0
 190 804 185 779 185 752 c 1
 180 697 l 1
 59 697 l 1
 59 761 70 816 90 862 c 1
 107 910 140 948 189 978 c 1
 236 1009 297 1024 372 1024 c 1
 421 1022 l 1
 482 1015 530 996 565 966 c 0
 601 936 625 904 638 869 c 0
 652 830 659 793 659 758 c 0
 659 725 655 694 645 666 c 1
 634 622 583 560 492 478 c 0
 467 455 448 435 437 418 c 0
 422 398 415 370 415 335 c 2
 415 270 l 1
287 -1 m 1
 287 143 l 1
 415 143 l 1
 415 -1 l 1
 287 -1 l 1
EndSplineSet
MinimumDistance: x24,-1 
EndChar
StartChar: at
Encoding: 64 64
OldEncoding: 64
Width: 1330
Flags: HW
HStem: -193 104<574 636> 85 97<865 902.291> 92 88<506.791 548.601> 633 102<622 656>
VStem: -32 120<366 404> 285 127<334 352>
Fore
961 702 m 1
 827 287 l 2
 821 268 818 254 818 245 c 0
 818 233 821 220 829 207 c 0
 841 191 865 182 902 182 c 1
 944 192 979 209 1007 233 c 0
 1038 260 1061 286 1076 311 c 0
 1113 376 1132 455 1132 548 c 1
 1125 585 1111 626 1090 669 c 0
 1071 710 1048 745 1021 772 c 0
 995 800 952 830 893 861 c 0
 833 891 775 912 718 923 c 0
 690 927 662 930 634 930 c 0
 570 930 510 918 454 895 c 0
 403 875 353 846 303 807 c 1
 255 768 213 720 176 664 c 0
 140 607 117 561 107 525 c 0
 94 475 88 432 88 395 c 0
 88 320 104 246 136 175 c 0
 156 134 192 93 244 50 c 1
 298 4 355 -32 414 -56 c 0
 467 -78 529 -89 599 -89 c 0
 684 -89 775 -72 873 -40 c 1
 912 -133 l 1
 802 -173 697 -193 597 -193 c 0
 523 -193 449 -181 377 -159 c 1
 323 -139 259 -104 185 -54 c 0
 112 -3 59 55 25 119 c 0
 -13 194 -32 280 -32 377 c 0
 -32 428 -26 474 -14 515 c 0
 8 587 39 655 76 719 c 1
 119 788 175 847 244 897 c 0
 278 923 319 947 366 969 c 1
 418 991 468 1007 518 1018 c 0
 578 1030 633 1036 685 1034 c 0
 751 1031 828 1012 917 976 c 0
 995 943 1062 896 1118 835 c 1
 1160 786 1188 743 1204 705 c 0
 1228 648 1240 598 1240 554 c 0
 1242 494 1237 443 1224 402 c 0
 1214 369 1198 331 1176 289 c 0
 1157 252 1131 215 1099 180 c 0
 1064 141 1021 114 970 99 c 0
 942 90 908 85 866 85 c 0
 834 85 812 88 798 92 c 0
 772 99 751 113 736 134 c 1
 720 153 710 171 708 189 c 1
 681 161 l 2
 673 152 661 142 644 131 c 0
 628 119 608 110 581 104 c 0
 557 96 532 92 507 92 c 0
 479 92 454 97 431 106 c 0
 393 121 365 141 347 166 c 1
 329 188 314 215 301 247 c 0
 291 276 285 308 285 344 c 0
 285 375 288 402 294 426 c 0
 321 531 374 613 454 671 c 0
 511 714 574 735 644 735 c 0
 662 735 679 733 694 728 c 0
 721 720 748 704 773 680 c 1
 794 654 808 631 815 610 c 1
 845 702 l 1
 961 702 l 1
763 534 m 1
 761 560 754 580 743 594 c 0
 730 609 709 620 681 627 c 1
 670 631 656 633 639 633 c 0
 606 633 574 624 544 605 c 0
 515 587 492 566 474 541 c 0
 457 517 443 485 431 446 c 0
 418 410 412 376 412 344 c 0
 412 301 424 264 449 233 c 1
 474 198 507 180 549 180 c 1
 584 185 l 1
 626 197 661 226 690 272 c 1
 706 295 723 336 741 393 c 0
 756 449 763 496 763 534 c 1
EndSplineSet
MinimumDistance: x69,-1 
EndChar
StartChar: A
Encoding: 65 65
OldEncoding: 65
Width: 889
Flags: HW
HStem: -0 21G<6.8945 145.884 745.914 891.684> 303 110<293.789 599.789> 991 20G<375.274 534.604>
DStem: 356.379 1011.17 435.479 854.105 -12 -0.174805 270.5 412.275 356.379 1011.17 236.6 302.665 -12 -0.174805 126.99 -0.174805 623.059 302.665 515.709 1011.17 727.02 -0.174805 872.79 -0.174805
Fore
237 303 m 1
 127 -0 l 1
 -12 -0 l 1
 356 1011 l 1
 516 1011 l 1
 873 -0 l 1
 727 -0 l 1
 623 303 l 1
 237 303 l 1
435 854 m 1
 270 413 l 1
 586 413 l 1
 435 854 l 1
EndSplineSet
MinimumDistance: x5,-1 
EndChar
StartChar: B
Encoding: 66 66
OldEncoding: 66
Width: 869
Flags: HW
HStem: -0 115<195 533> 463 115<195 469> 898 113<195 441>
VStem: 52 132<120 448 590 896> 680 130<272 319.615>
Fore
553 -0 m 2
 52 -0 l 1
 52 1011 l 1
 502 1011 l 2
 541 1011 576 1003 608 987 c 0
 644 971 673 951 697 928 c 0
 734 892 756 846 763 789 c 1
 763 657 721 573 636 537 c 1
 684 514 l 1
 703 503 721 489 737 472 c 0
 758 451 776 425 789 395 c 0
 803 365 810 325 810 273 c 0
 808 211 791 161 761 123 c 0
 729 82 695 52 657 33 c 0
 617 11 582 -0 553 -0 c 2
184 898 m 1
 184 578 l 1
 454 578 l 2
 522 578 569 595 594 627 c 0
 619 660 631 706 631 766 c 1
 624 815 597 850 549 870 c 1
 498 889 455 898 421 898 c 2
 184 898 l 1
184 463 m 1
 184 115 l 1
 511 115 l 2
 571 115 613 135 638 174 c 1
 666 212 680 260 680 320 c 1
 673 376 650 415 611 435 c 1
 569 454 512 463 439 463 c 2
 184 463 l 1
EndSplineSet
MinimumDistance: x11,-1 
EndChar
StartChar: C
Encoding: 67 67
OldEncoding: 67
Width: 943
Flags: HW
HStem: -32 119<439 473> 913 118<439 473>
VStem: 9 132<478 528>
Fore
863 699 m 1
 729 699 l 1
 712 745 691 784 666 815 c 0
 650 837 630 855 607 869 c 0
 577 887 553 898 534 904 c 0
 514 910 489 913 459 913 c 0
 419 913 378 904 338 887 c 0
 299 871 266 847 238 815 c 1
 205 774 181 728 167 676 c 0
 150 618 141 558 141 498 c 0
 141 444 150 387 169 325 c 0
 188 265 211 218 238 184 c 0
 291 119 364 87 459 87 c 0
 547 87 616 119 666 184 c 0
 684 206 700 233 715 267 c 0
 732 304 744 338 750 371 c 1
 881 371 l 1
 861 247 811 147 731 72 c 0
 706 49 668 26 616 3 c 0
 561 -20 506 -32 452 -32 c 0
 397 -32 342 -20 287 3 c 0
 234 23 195 46 169 72 c 0
 112 128 71 193 46 267 c 0
 21 343 9 420 9 498 c 0
 9 578 21 656 46 732 c 0
 72 807 113 872 169 926 c 1
 193 951 232 974 287 996 c 0
 346 1019 401 1031 452 1031 c 0
 502 1031 557 1019 616 996 c 0
 668 975 707 952 731 926 c 1
 788 874 832 798 863 699 c 1
EndSplineSet
MinimumDistance: x9,-1 
EndChar
StartChar: D
Encoding: 68 68
OldEncoding: 68
Width: 940
Flags: HW
HStem: -0 115<205 495> 898 113<205 463>
VStem: 63 131<115 896> 736 129<501.659 548.361>
Fore
525 -0 m 2
 63 -0 l 1
 63 1011 l 1
 454 1011 l 2
 562 1011 654 975 731 903 c 1
 808 827 852 726 861 599 c 0
 864 568 865 535 865 502 c 0
 865 355 830 238 759 150 c 0
 719 99 677 62 634 39 c 1
 589 13 553 -0 525 -0 c 2
441 898 m 2
 194 898 l 1
 194 115 l 1
 476 115 l 2
 510 115 545 122 580 137 c 0
 600 145 625 167 655 203 c 0
 681 236 698 267 706 296 c 0
 723 372 733 441 736 502 c 1
 739 613 720 702 680 768 c 0
 626 855 547 898 441 898 c 2
EndSplineSet
MinimumDistance: x6,-1 
EndChar
StartChar: E
Encoding: 69 69
OldEncoding: 69
Width: 869
Flags: HW
HStem: -0 115<212 790> 463 115<212 742> 898 113<212 758>
VStem: 69 129<114 463 577 898>
Fore
69 -0 m 1
 69 1011 l 1
 772 1011 l 1
 772 898 l 1
 198 898 l 1
 198 578 l 1
 749 578 l 1
 749 463 l 1
 198 463 l 1
 198 115 l 1
 796 115 l 1
 796 -0 l 1
 69 -0 l 1
EndSplineSet
MinimumDistance: x10,-1 y11,9 x9,11 x9,10 x5,7 x5,6 x4,2 x4,3 
EndChar
StartChar: F
Encoding: 70 70
OldEncoding: 70
Width: 795
Flags: HW
HStem: -0 21G<72 200.82> 463 115<201 681> 898 113<201 750>
VStem: 72 129<14 463 577 898>
Fore
72 -0 m 1
 72 1011 l 1
 750 1011 l 1
 750 898 l 1
 201 898 l 1
 201 578 l 1
 682 578 l 1
 682 463 l 1
 201 463 l 1
 201 -0 l 1
 72 -0 l 1
EndSplineSet
MinimumDistance: x2,-1 y8,0 y8,9 x5,7 x5,6 x4,2 x4,3 
EndChar
StartChar: G
Encoding: 71 71
OldEncoding: 71
Width: 1020
Flags: HW
HStem: -32 114<453 496> -4 21G<840.629 923.118> 422 115<510 808> 913 118<478 490 490.396 523.963>
VStem: -0 132<495.647 524.439> 808 115<350 422>
Fore
500 422 m 1
 500 537 l 1
 923 537 l 1
 923 -4 l 1
 841 -4 l 1
 810 120 l 1
 754 71 701 32 653 5 c 0
 607 -20 541 -32 454 -32 c 0
 411 -32 361 -21 304 1 c 0
 252 20 210 42 178 65 c 1
 120 115 74 180 42 262 c 1
 12 347 -2 425 -0 496 c 0
 -0 539 7 589 21 648 c 0
 33 703 52 754 77 800 c 0
 99 843 133 885 178 926 c 0
 209 952 253 976 308 996 c 0
 372 1019 433 1031 490 1031 c 0
 580 1033 652 1018 706 988 c 1
 782 950 834 906 861 857 c 0
 888 810 905 760 912 707 c 1
 785 707 l 1
 781 758 754 805 702 848 c 0
 649 891 578 913 490 913 c 0
 445 913 400 904 355 887 c 0
 309 870 271 846 243 815 c 0
 210 781 184 735 163 676 c 0
 142 622 132 562 132 496 c 0
 132 433 142 375 163 320 c 0
 183 262 210 215 243 179 c 0
 305 114 388 82 490 82 c 0
 562 82 621 98 667 131 c 0
 701 153 729 179 752 209 c 0
 774 236 788 263 794 290 c 1
 803 316 808 339 808 359 c 2
 808 422 l 1
 500 422 l 1
EndSplineSet
MinimumDistance: x2,-1 x34,1 x34,0 
EndChar
StartChar: H
Encoding: 72 72
OldEncoding: 72
Width: 943
Flags: HW
HStem: -0 21G<57.2148 187.165 705.835 835.785> 463 115<187 705> 991 20G<57.2148 187.165 705.835 835.785>
VStem: 57 130<14 448 590 1008> 706 130<14 448 590 1008>
Fore
706 -0 m 1
 706 463 l 1
 187 463 l 1
 187 -0 l 1
 57 -0 l 5
 57 1011 l 1
 187 1011 l 1
 187 578 l 1
 706 578 l 1
 706 1011 l 1
 836 1011 l 1
 836 -0 l 1
 706 -0 l 1
EndSplineSet
MinimumDistance: x10,-1 y8,10 y8,9 x5,7 y7,5 y7,6 x4,2 y2,4 y2,3 y1,11 y1,0 
EndChar
StartChar: I
Encoding: 73 73
OldEncoding: 73
Width: 362
Flags: HW
HStem: -0 21G<115.525 245.475> 991 20G<115.525 245.475>
VStem: 116 130<14 1008>
Fore
116 -0 m 1
 116 1011 l 1
 246 1011 l 1
 246 -0 l 1
 116 -0 l 1
EndSplineSet
MinimumDistance: x2,-1 
EndChar
StartChar: J
Encoding: 74 74
OldEncoding: 74
Width: 658
Flags: HW
HStem: 993 20G<425.68 556.76>
VStem: -13 132<207 321> 426 131<287 1009>
Fore
-13 324 m 1
 119 324 l 1
 119 222 l 2
 119 184 130 155 150 134 c 1
 168 110 193 94 223 88 c 1
 261 83 l 1
 314 83 358 103 391 143 c 0
 414 172 426 233 426 326 c 2
 426 1013 l 1
 557 1013 l 1
 557 212 l 1
 543 121 501 52 430 6 c 0
 387 -21 322 -33 234 -31 c 0
 149 -29 87 1 46 57 c 0
 7 112 -13 165 -13 216 c 2
 -13 324 l 1
EndSplineSet
MinimumDistance: x9,-1 
EndChar
StartChar: K
Encoding: 75 75
OldEncoding: 75
Width: 866
Flags: HW
HStem: -0 21G<49.6553 181.865 700.535 850.825> 991 20G<49.6553 181.865 683.585 855.345>
VStem: 50 132<14 344 512 1008>
DStem: 347.975 509.455 436.115 598.725 700.535 -0.174805 850.825 -0.174805 683.585 1011.17 855.345 1011.17 181.865 511.715 436.115 598.725
Fore
50 1011 m 1
 182 1011 l 1
 182 512 l 1
 684 1011 l 1
 855 1011 l 1
 436 599 l 1
 851 -0 l 1
 701 -0 l 1
 348 509 l 1
 182 344 l 1
 182 -0 l 1
 50 -0 l 1
 50 1011 l 1
EndSplineSet
MinimumDistance: x4,-1 
EndChar
StartChar: L
Encoding: 76 76
OldEncoding: 76
Width: 723
Flags: HW
HStem: -0 115<190 686> 991 20G<61.7949 191.745>
VStem: 62 130<114 1008>
Fore
62 1011 m 1
 192 1011 l 1
 192 115 l 1
 691 115 l 1
 691 -0 l 1
 62 -0 l 1
 62 1011 l 1
EndSplineSet
MinimumDistance: x3,-1 x0,2 y2,0 y2,1 y4,2 x2,4 x2,3 
EndChar
StartChar: M
Encoding: 77 77
OldEncoding: 77
Width: 1090
Flags: HW
HStem: -0 21G<37.1396 171.61 447.33 580.67 856.39 990.86> 991 20G<37.1396 222.46 805.54 990.86>
VStem: 37 134<14 816> 856 134<14 816>
DStem: 171.61 821.335 222.46 1011.17 447.33 -0.174805 514 150.115 805.54 1011.17 856.39 821.335 514 150.115 580.67 -0.174805
Fore
581 -0 m 1
 447 -0 l 1
 171 821 l 1
 171 -0 l 1
 37 -0 l 1
 37 1011 l 1
 222 1011 l 1
 514 150 l 1
 806 1011 l 1
 990 1011 l 1
 990 -0 l 1
 856 -0 l 1
 856 821 l 1
 581 -0 l 1
EndSplineSet
MinimumDistance: x9,-1 
EndChar
StartChar: N
Encoding: 78 78
OldEncoding: 78
Width: 943
Flags: HW
HStem: -0 21G<48.4346 178.385 690.275 840.565> 991 20G<48.4346 200.985 708.355 840.565>
VStem: 48 130<14 800> 708 132<192 1008>
Fore
840 -0 m 1
 690 -0 l 1
 178 810 l 1
 178 -0 l 1
 48 -0 l 1
 48 1011 l 1
 201 1011 l 1
 708 192 l 1
 708 1011 l 1
 840 1011 l 1
 840 -0 l 1
EndSplineSet
MinimumDistance: x0,-1 
EndChar
StartChar: O
Encoding: 79 79
OldEncoding: 79
Width: 1018
Flags: HW
HStem: -32 119<453 503> 913 118<453 503>
VStem: -9 132<478 528> 836 131<478 528>
Fore
479 1031 m 0
 537 1031 598 1019 662 996 c 0
 723 974 766 950 790 926 c 1
 849 873 894 809 923 732 c 0
 952 659 967 581 967 498 c 0
 967 417 952 340 923 267 c 1
 896 191 852 126 790 72 c 0
 766 52 723 29 662 3 c 0
 603 -20 542 -32 479 -32 c 0
 419 -32 359 -20 298 3 c 0
 244 22 201 45 169 72 c 0
 108 125 63 191 35 267 c 1
 6 340 -9 417 -9 498 c 0
 -9 543 -3 594 9 650 c 0
 22 708 42 760 68 804 c 0
 90 845 123 885 169 926 c 0
 198 952 241 975 298 996 c 0
 364 1019 424 1031 479 1031 c 0
479 913 m 0
 435 913 390 904 345 887 c 0
 299 870 262 846 234 815 c 1
 202 784 175 737 152 676 c 1
 133 616 123 557 123 498 c 0
 123 435 133 376 152 323 c 0
 172 268 199 221 234 184 c 0
 293 119 375 87 479 87 c 0
 583 87 665 119 724 184 c 1
 758 218 785 264 806 323 c 0
 826 385 836 444 836 498 c 0
 836 554 826 614 806 676 c 0
 784 736 757 782 724 815 c 0
 693 849 656 872 616 887 c 0
 571 904 525 913 479 913 c 0
EndSplineSet
MinimumDistance: x4,-1 
EndChar
StartChar: P
Encoding: 80 80
OldEncoding: 80
Width: 868
Flags: HW
HStem: -0 21G<71.0752 199.895> 428 115<200 537> 898 113<200 504>
VStem: 71 129<14 428 558 896>
Fore
71 -0 m 1
 71 1011 l 1
 494 1011 l 2
 571 1011 638 993 696 956 c 0
 751 920 785 856 798 766 c 1
 800 715 l 1
 800 621 771 550 714 502 c 0
 656 453 597 428 536 428 c 2
 200 428 l 1
 200 -0 l 1
 71 -0 l 1
200 898 m 1
 200 543 l 1
 531 543 l 2
 553 543 582 559 619 590 c 1
 654 622 670 669 668 731 c 0
 665 789 645 832 606 861 c 0
 571 886 533 898 491 898 c 2
 200 898 l 1
EndSplineSet
MinimumDistance: x8,-1 x0,8 y8,0 y8,9 
EndChar
StartChar: Q
Encoding: 81 81
OldEncoding: 81
Width: 1018
Flags: HW
HStem: -29 119<453 487> 915 118<453 503>
VStem: -9 132<481 531> 836 131<481 531>
DStem: 538.89 209.125 602.17 288.225 641.72 126.635 728.73 186.525 745.68 40.7549 823.65 109.685 889.19 -77.8945 955.86 3.46484
Fore
824 110 m 1
 956 3 l 1
 889 -78 l 1
 746 41 l 1
 659 -4 570 -27 479 -29 c 0
 419 -29 359 -18 298 6 c 0
 244 25 201 48 169 75 c 0
 108 128 63 193 35 270 c 1
 6 343 -9 420 -9 501 c 0
 -9 546 -3 597 9 653 c 0
 22 711 42 762 68 807 c 0
 90 848 123 888 169 929 c 0
 198 955 241 978 298 999 c 0
 364 1022 424 1033 479 1033 c 0
 537 1033 598 1022 662 999 c 0
 723 976 766 953 790 929 c 1
 849 876 894 811 923 735 c 0
 952 662 967 584 967 501 c 0
 967 428 956 358 933 288 c 0
 910 219 873 159 824 110 c 1
642 127 m 1
 539 209 l 1
 602 288 l 1
 729 187 l 1
 749 208 768 236 785 272 c 0
 803 311 816 347 824 381 c 0
 832 422 836 462 836 501 c 0
 836 557 826 617 806 679 c 0
 784 739 757 785 724 818 c 0
 693 851 656 875 616 889 c 0
 571 907 525 915 479 915 c 0
 435 915 390 907 345 889 c 0
 299 873 262 849 234 818 c 1
 202 787 175 740 152 679 c 1
 133 619 123 559 123 501 c 0
 123 437 133 379 152 326 c 0
 172 271 199 224 234 187 c 0
 293 122 375 90 479 90 c 0
 541 90 595 102 642 127 c 1
EndSplineSet
MinimumDistance: x17,-1 
EndChar
StartChar: R
Encoding: 82 82
OldEncoding: 82
Width: 939
Flags: HW
HStem: -0 21G<68.2646 197.085 724.795 880.735> 435 115<198 549> 898 113<198 549>
VStem: 68 129<14 432 558 896>
Fore
68 -0 m 1
 68 1011 l 1
 519 1011 l 2
 620 1011 697 995 751 963 c 0
 808 929 839 859 843 755 c 0
 846 689 836 640 815 607 c 1
 799 578 764 542 709 499 c 1
 762 468 795 438 806 409 c 0
 817 380 824 323 826 241 c 0
 829 171 833 124 839 99 c 0
 846 70 860 48 881 33 c 1
 881 -0 l 1
 725 -0 l 1
 713 28 703 70 695 128 c 1
 695 245 l 2
 695 302 684 349 663 386 c 0
 642 419 598 435 530 435 c 2
 197 435 l 1
 197 -0 l 1
 68 -0 l 1
524 898 m 2
 197 898 l 1
 197 550 l 1
 524 550 l 2
 637 550 700 601 711 704 c 1
 711 833 649 898 524 898 c 2
EndSplineSet
MinimumDistance: x17,-1 y17,0 y17,18 
EndChar
StartChar: S
Encoding: 83 83
OldEncoding: 83
Width: 871
Flags: HW
HStem: 919 111<364 414>
VStem: 48 121<702.4 750.99>
Fore
775 718 m 1
 650 718 l 1
 650 788 620 842 560 880 c 0
 531 897 504 908 479 913 c 0
 454 917 424 919 391 919 c 0
 319 919 265 902 229 869 c 0
 189 833 169 794 169 751 c 0
 169 728 174 708 185 690 c 0
 195 673 212 657 234 641 c 1
 255 629 302 614 375 594 c 2
 386 591 l 2
 472 570 555 548 636 524 c 1
 682 507 722 477 757 433 c 0
 792 389 810 343 810 297 c 0
 812 230 795 172 759 120 c 0
 724 71 676 34 615 7 c 1
 549 -19 481 -32 410 -32 c 0
 335 -30 273 -20 224 -2 c 0
 172 16 127 48 88 96 c 0
 58 131 38 166 28 200 c 1
 20 234 15 275 13 323 c 1
 134 323 l 1
 134 275 148 227 176 181 c 1
 203 133 255 102 331 91 c 0
 358 88 402 87 463 87 c 1
 528 93 576 110 606 135 c 0
 651 173 673 218 673 270 c 0
 673 316 649 355 602 389 c 1
 563 409 492 430 388 454 c 0
 330 467 288 478 264 489 c 1
 183 517 l 1
 102 542 57 604 48 702 c 1
 48 763 61 820 88 871 c 0
 113 920 151 960 201 988 c 0
 251 1016 314 1030 388 1030 c 0
 494 1030 576 1012 634 977 c 0
 728 917 775 831 775 718 c 1
EndSplineSet
MinimumDistance: x6,-1 
EndChar
StartChar: T
Encoding: 84 84
OldEncoding: 84
Width: 799
Flags: HW
HStem: -0 21G<314.72 443.54> 898 113<-4 314 443 766>
VStem: 315 129<14 898>
Fore
315 -0 m 1
 315 898 l 1
 -19 898 l 1
 -19 1011 l 1
 775 1011 l 1
 775 898 l 1
 444 898 l 1
 444 -0 l 1
 315 -0 l 1
EndSplineSet
MinimumDistance: x4,-1 y1,7 y1,0 x6,4 x6,5 x1,3 x1,2 
EndChar
StartChar: U
Encoding: 85 85
OldEncoding: 85
Width: 942
Flags: HW
HStem: -31 112<426 476> 993 20G<59.2148 189.165 707.835 837.785>
VStem: 59 130<271 1009> 708 130<271 1009>
Fore
59 1013 m 1
 189 1013 l 1
 189 291 l 2
 189 241 210 193 251 147 c 0
 294 103 359 81 449 81 c 0
 538 81 603 103 646 147 c 0
 687 193 708 241 708 291 c 2
 708 1013 l 1
 838 1013 l 1
 838 284 l 2
 838 259 831 227 819 187 c 0
 807 151 786 116 756 83 c 0
 728 50 687 23 633 2 c 0
 579 -20 518 -31 449 -31 c 0
 355 -31 279 -14 222 20 c 0
 165 54 124 97 97 147 c 0
 72 196 59 242 59 284 c 2
 59 1013 l 1
EndSplineSet
MinimumDistance: x8,-1 
EndChar
StartChar: V
Encoding: 86 86
OldEncoding: 86
Width: 871
Flags: HW
HStem: -0 21G<346.07 485.06> 991 20G<-12.1396 126.85 703.15 842.14>
DStem: -12.1396 1011.17 126.85 1011.17 346.07 -0.174805 420.65 154.635
Fore
421 155 m 1
 703 1011 l 1
 842 1011 l 1
 485 -0 l 1
 346 -0 l 1
 -12 1011 l 1
 127 1011 l 1
 421 155 l 1
EndSplineSet
MinimumDistance: x0,-1 
EndChar
StartChar: W
Encoding: 87 87
OldEncoding: 87
Width: 1233
Flags: HW
HStem: -0 21G<211.1 352.35 812.26 955.77> 991 20G<-45.4102 100.36 511.68 652.93 1069.9 1213.41>
DStem: 511.68 1011.17 581.74 823.595 287.94 196.445 352.35 -0.174805 581.74 823.595 652.93 1011.17 812.26 -0.174805 877.8 196.445
Fore
878 196 m 1
 1070 1011 l 1
 1213 1011 l 1
 956 -0 l 1
 812 -0 l 1
 582 824 l 1
 352 -0 l 1
 211 -0 l 1
 -45 1011 l 1
 100 1011 l 1
 288 196 l 1
 512 1011 l 1
 653 1011 l 1
 878 196 l 1
EndSplineSet
MinimumDistance: x0,-1 
EndChar
StartChar: X
Encoding: 88 88
OldEncoding: 88
Width: 871
Flags: HW
HStem: -0 21G<-23.0498 138.54 686.59 847.05> 991 20G<1.80957 158.88 675.29 832.36>
DStem: 1.80957 1011.17 158.88 1011.17 332.9 518.495 416.52 624.715 332.9 518.495 416.52 412.275 -23.0498 -0.174805 138.54 -0.174805 675.29 1011.17 832.36 1011.17 416.52 624.715 494.49 518.495
Fore
832 1011 m 1
 494 518 l 1
 847 -0 l 1
 687 -0 l 1
 417 412 l 1
 139 -0 l 1
 -23 -0 l 1
 333 518 l 1
 2 1011 l 1
 159 1011 l 1
 417 625 l 1
 675 1011 l 1
 832 1011 l 1
EndSplineSet
MinimumDistance: x0,-1 
EndChar
StartChar: Y
Encoding: 89 89
OldEncoding: 89
Width: 871
Flags: HW
HStem: -0 21G<350.655 482.865> 991 20G<-35.8047 124.655 705.475 864.805>
VStem: 351 132<14 395>
Fore
-36 1011 m 1
 125 1011 l 1
 416 521 l 1
 705 1011 l 1
 865 1011 l 1
 483 395 l 1
 483 -0 l 1
 351 -0 l 1
 351 395 l 1
 -36 1011 l 1
EndSplineSet
MinimumDistance: x5,-1 
EndChar
StartChar: Z
Encoding: 90 90
OldEncoding: 90
Width: 799
Flags: HW
HStem: -0 115<165 761> 898 113<37 583>
DStem: 594.09 898.175 759.07 893.655 -9.33008 110.565 154.52 115.085
Fore
32 898 m 1
 32 1011 l 1
 759 1011 l 1
 759 894 l 1
 155 115 l 1
 761 115 l 1
 761 -0 l 1
 -9 -0 l 1
 -9 111 l 1
 594 898 l 1
 32 898 l 1
EndSplineSet
MinimumDistance: x2,-1 
EndChar
StartChar: bracketleft
Encoding: 91 91
OldEncoding: 91
Width: 361
Flags: HW
HStem: -279 104<190 320> 924 104<190 320>
VStem: 63 118<-177 924>
Fore
63 1028 m 1
 322 1028 l 1
 322 924 l 1
 181 924 l 1
 181 -175 l 1
 322 -175 l 1
 322 -279 l 1
 63 -279 l 1
 63 1028 l 1
EndSplineSet
MinimumDistance: x1,-1 x4,6 x4,5 x3,1 x3,2 
EndChar
StartChar: backslash
Encoding: 92 92
OldEncoding: 92
Width: 364
Flags: HW
HStem: -27 21G<295.56 371.27> 993 20G<-33.2695 42.4404>
DStem: -33.2695 1012.8 42.4404 1012.8 295.56 -26.7998 371.27 -26.7998
Fore
296 -27 m 1
 -33 1013 l 1
 42 1013 l 1
 371 -27 l 1
 296 -27 l 1
EndSplineSet
EndChar
StartChar: bracketright
Encoding: 93 93
OldEncoding: 93
Width: 367
Flags: HW
HStem: -281 104<29 143> 924 104<29 143>
VStem: 153 118<-178 924>
Fore
14 924 m 1
 14 1028 l 1
 271 1028 l 1
 271 -281 l 1
 14 -281 l 1
 14 -177 l 1
 153 -177 l 1
 153 924 l 1
 14 924 l 1
EndSplineSet
MinimumDistance: x2,-1 x7,1 x7,0 x6,4 x6,5 
EndChar
StartChar: asciicircum
Encoding: 94 94
OldEncoding: 94
Width: 612
Flags: HW
DStem: 238.345 965.355 286.935 846.705 22.5146 437.645 119.695 437.645 286.935 846.705 340.045 965.355 455.305 437.645 552.485 437.645
Fore
23 438 m 1
 238 965 l 1
 340 965 l 1
 552 438 l 1
 455 438 l 1
 287 847 l 1
 120 438 l 1
 23 438 l 1
EndSplineSet
MinimumDistance: x3,-1 
EndChar
StartChar: underscore
Encoding: 95 95
OldEncoding: 95
Width: 728
Flags: HW
HStem: -161 69<-60 758>
Fore
759 -92 m 1
 759 -161 l 1
 -75 -161 l 1
 -75 -92 l 1
 759 -92 l 1
EndSplineSet
EndChar
StartChar: grave
Encoding: 96 96
OldEncoding: 96
Width: 374
Flags: W
HStem: 991 20G<58 215>
Fore
304 828 m 1
 209 828 l 1
 58 1011 l 5
 215 1011 l 1
 304 828 l 1
EndSplineSet
EndChar
StartChar: a
Encoding: 97 97
OldEncoding: 97
Width: 726
Flags: HW
HStem: -16 99<242.301 259.055 265.902 288.261>
VStem: 12 121<188.69 224> 493 123<222 368 494 588>
Fore
616 613 m 2
 616 125 l 2
 616 115 623 105 637 96 c 0
 651 88 671 83 696 83 c 1
 696 -1 l 1
 599 -16 l 1
 536 4 502 39 498 91 c 1
 451 54 414 29 387 14 c 0
 348 -6 307 -16 266 -16 c 0
 189 -18 127 2 79 45 c 0
 32 86 9 143 12 213 c 0
 12 264 27 306 58 341 c 1
 88 370 123 390 164 403 c 0
 194 413 227 421 261 426 c 0
 295 432 329 436 363 438 c 2
 435 445 l 1
 474 456 493 475 493 500 c 2
 493 589 l 5
 488 614 467 633 431 644 c 0
 389 658 343 664 292 662 c 0
 207 660 162 615 155 529 c 1
 47 529 l 1
 49 591 l 1
 56 620 70 647 91 672 c 0
 113 699 140 720 172 734 c 1
 196 747 239 758 301 767 c 1
 351 767 399 763 444 755 c 0
 497 743 538 725 568 702 c 0
 600 677 616 647 616 613 c 2
493 227 m 2
 493 373 l 1
 468 362 437 355 400 350 c 2
 290 332 l 1
 257 325 228 317 201 308 c 1
 186 300 170 288 155 271 c 0
 140 256 133 235 133 209 c 0
 133 167 145 136 169 116 c 0
 197 94 227 83 259 83 c 0
 301 81 342 91 382 112 c 0
 416 129 443 150 464 174 c 0
 483 199 493 216 493 227 c 2
EndSplineSet
MinimumDistance: x0,-1 
EndChar
StartChar: b
Encoding: 98 98
OldEncoding: 98
Width: 726
Flags: HW
HStem: -31 112<332 358> 2 21G<28.4951 130.195> 993 20G<28.4951 146.015>
VStem: 28 115<319 373 643 1009>
Fore
28 1013 m 1
 146 1013 l 1
 146 642 l 1
 156 663 178 685 213 708 c 1
 240 722 263 733 283 740 c 0
 313 748 342 752 371 752 c 0
 455 752 526 721 583 659 c 0
 606 635 624 609 636 580 c 1
 654 547 665 515 671 483 c 0
 677 452 681 415 681 370 c 1
 678 317 l 1
 676 251 658 187 625 127 c 0
 593 66 552 24 500 -1 c 0
 460 -21 412 -31 356 -31 c 0
 303 -31 261 -21 232 -1 c 0
 180 34 146 62 130 83 c 1
 130 2 l 1
 28 2 l 1
 28 1013 l 1
486 147 m 0
 528 205 548 277 548 366 c 0
 548 408 544 446 535 481 c 0
 529 511 516 538 497 562 c 1
 467 612 416 636 345 633 c 0
 283 633 235 610 201 564 c 1
 186 540 172 510 162 476 c 0
 150 432 143 389 143 349 c 0
 143 278 161 215 195 159 c 0
 224 114 270 88 334 81 c 1
 404 81 455 103 486 147 c 0
EndSplineSet
MinimumDistance: x25,-1 
EndChar
StartChar: c
Encoding: 99 99
OldEncoding: 99
Width: 689
Flags: HW
Fore
510 269 m 1
 622 269 l 1
 619 208 606 159 582 121 c 0
 556 77 519 43 469 19 c 0
 414 -7 361 -18 309 -16 c 0
 262 -16 211 -1 156 28 c 0
 109 54 75 92 52 140 c 0
 20 208 3 290 3 387 c 0
 6 497 40 590 107 666 c 1
 162 731 235 765 325 767 c 0
 368 767 406 761 441 750 c 0
 478 739 508 723 531 702 c 1
 558 686 579 660 593 624 c 0
 610 587 619 546 622 500 c 1
 505 500 l 1
 498 543 489 573 480 591 c 0
 467 611 451 627 429 637 c 0
 396 652 363 660 330 660 c 0
 276 657 228 632 187 584 c 0
 150 543 131 482 129 403 c 1
 124 317 133 252 156 207 c 0
 194 130 254 94 337 96 c 0
 365 96 393 104 423 121 c 0
 450 138 467 156 476 174 c 0
 494 209 505 241 510 269 c 1
EndSplineSet
EndChar
StartChar: d
Encoding: 100 100
OldEncoding: 100
Width: 731
Flags: HW
HStem: -1 21G<543.675 645.375> 631 121<301 330> 993 20G<530.115 645.375>
VStem: 530 115<319 374 643 1009>
Fore
530 1013 m 1
 645 1013 l 1
 645 -1 l 1
 544 -1 l 1
 544 85 l 1
 512 48 479 18 444 -3 c 0
 416 -22 374 -31 319 -31 c 0
 264 -31 215 -21 173 -1 c 0
 124 24 84 65 53 125 c 0
 23 180 5 243 -2 314 c 1
 -4 372 l 1
 -4 425 4 478 20 532 c 0
 38 586 61 628 91 657 c 0
 154 720 225 752 303 752 c 0
 364 752 417 737 462 708 c 1
 496 684 519 662 530 642 c 1
 530 1013 l 1
188 145 m 0
 222 100 273 79 340 81 c 0
 367 81 395 88 424 103 c 0
 448 117 467 135 482 159 c 0
 514 214 530 276 530 346 c 0
 530 392 524 436 511 476 c 0
 500 513 488 542 475 562 c 1
 440 608 392 631 329 631 c 0
 259 631 208 608 176 562 c 0
 142 514 124 447 124 362 c 0
 124 276 146 203 188 145 c 0
EndSplineSet
MinimumDistance: x1,-1 
EndChar
StartChar: e
Encoding: 101 101
OldEncoding: 101
Width: 728
Flags: HW
HStem: -16 102<330 364> 334 104<142 540> 672 95<362 372>
Fore
669 334 m 1
 137 334 l 1
 137 300 139 273 143 253 c 0
 147 234 158 208 176 176 c 1
 219 116 274 86 340 86 c 0
 373 86 403 91 428 103 c 0
 451 114 471 128 486 144 c 0
 502 162 513 179 519 195 c 2
 534 239 l 1
 652 239 l 1
 639 178 618 129 587 94 c 0
 559 57 525 31 486 14 c 0
 441 -6 393 -16 342 -16 c 0
 291 -16 243 -6 199 14 c 0
 151 37 113 66 86 103 c 0
 36 166 11 257 11 375 c 0
 13 498 44 593 102 657 c 0
 171 733 261 769 371 767 c 0
 392 767 419 761 453 750 c 0
 482 741 508 729 532 713 c 1
 558 693 575 676 585 662 c 0
 611 629 629 596 641 563 c 0
 655 523 663 494 664 475 c 1
 669 334 l 1
141 438 m 1
 541 438 l 1
 541 467 535 500 523 538 c 0
 513 571 501 594 488 607 c 1
 481 624 466 638 442 648 c 0
 410 664 384 672 363 672 c 0
 290 674 237 653 203 607 c 1
 192 598 179 575 164 540 c 0
 152 511 144 477 141 438 c 1
EndSplineSet
EndChar
StartChar: f
Encoding: 102 102
OldEncoding: 102
Width: 364
Flags: HW
HStem: -0 21G<101.07 218.59> 622 106<18 100 219 324> 914 102<273.96 336.11>
VStem: 101 118<14 622 728 851>
Fore
101 -0 m 1
 101 622 l 1
 4 622 l 1
 4 728 l 1
 101 728 l 1
 101 852 l 2
 101 899 117 938 147 969 c 0
 176 997 200 1011 219 1011 c 1
 234 1014 252 1016 274 1016 c 0
 297 1016 318 1014 336 1011 c 1
 336 914 l 1
 291 914 260 909 245 900 c 1
 227 887 219 866 219 835 c 2
 219 728 l 1
 334 728 l 1
 334 622 l 1
 219 622 l 1
 219 -0 l 1
 101 -0 l 1
EndSplineSet
MinimumDistance: x14,-1 y1,17 y1,0 x13,15 x13,14 x1,3 x1,2 
EndChar
StartChar: g
Encoding: 103 103
OldEncoding: 103
Width: 731
Flags: HW
HStem: 741 20G<521.465 636.725>
Fore
521 761 m 1
 637 761 l 1
 637 155 l 2
 637 101 632 40 623 -28 c 1
 614 -77 597 -122 572 -162 c 0
 547 -200 511 -227 463 -243 c 0
 421 -256 381 -265 343 -271 c 1
 268 -271 213 -264 179 -250 c 0
 138 -234 106 -214 84 -193 c 0
 59 -168 44 -144 38 -120 c 0
 30 -99 25 -76 23 -51 c 1
 142 -51 l 1
 149 -74 l 1
 152 -88 155 -98 158 -102 c 0
 161 -111 168 -119 179 -125 c 1
 190 -136 205 -146 222 -153 c 0
 244 -164 274 -169 312 -169 c 0
 352 -169 387 -163 420 -151 c 1
 451 -133 471 -117 480 -102 c 0
 490 -86 498 -62 505 -32 c 0
 516 12 521 63 521 120 c 1
 450 38 370 -3 283 -1 c 0
 233 2 182 24 130 65 c 1
 90 91 58 129 36 180 c 0
 13 235 1 291 -2 350 c 1
 -2 411 5 470 19 527 c 0
 34 587 54 634 79 668 c 1
 97 691 127 716 169 743 c 1
 216 769 263 783 312 783 c 0
 395 780 464 744 521 673 c 1
 521 761 l 1
456 167 m 0
 500 213 521 284 521 381 c 0
 521 432 516 476 505 514 c 0
 494 552 477 583 454 606 c 1
 447 615 430 626 403 639 c 0
 379 650 353 655 325 655 c 0
 246 655 190 619 158 549 c 0
 137 503 125 448 123 384 c 0
 120 304 136 239 169 189 c 1
 207 137 254 111 310 111 c 0
 372 109 421 128 456 167 c 0
EndSplineSet
EndChar
StartChar: h
Encoding: 104 104
OldEncoding: 104
Width: 728
Flags: HW
HStem: -0 21G<52.7197 167.98 513.76 631.28> 643 107<328.44 392.85> 991 20G<52.7197 167.98>
VStem: 53 115<14 480 641 1008> 514 118<14 512>
Fore
53 -0 m 1
 53 1011 l 1
 168 1011 l 1
 168 641 l 1
 206 680 247 711 293 731 c 1
 343 744 376 750 393 750 c 0
 421 750 459 742 507 725 c 2
 512 724 l 2
 559 706 590 680 605 645 c 0
 623 608 632 577 632 552 c 2
 632 -0 l 1
 514 -0 l 1
 514 497 l 2
 514 563 493 606 453 625 c 1
 414 637 373 643 328 643 c 1
 294 636 256 615 214 581 c 1
 183 551 168 516 168 474 c 2
 168 -0 l 1
 53 -0 l 1
EndSplineSet
MinimumDistance: x9,-1 
EndChar
StartChar: i
Encoding: 105 105
OldEncoding: 105
Width: 290
Flags: HW
HStem: -0 21G<75.3701 190.63> 991 20G<75.3701 190.63>
VStem: 75 115<14 720 878 1008>
Fore
190 729 m 1
 190 -0 l 1
 75 -0 l 1
 75 729 l 1
 190 729 l 1
190 1011 m 1
 190 868 l 1
 75 868 l 1
 75 1011 l 1
 190 1011 l 1
EndSplineSet
MinimumDistance: x0,-1 
EndChar
StartChar: j
Encoding: 106 106
OldEncoding: 106
Width: 296
Flags: HW
HStem: 726 20G<84.1953 201.715> 1009 20G<84.1953 201.715>
VStem: 84 118<-127 739 897 1027>
Fore
84 885 m 1
 84 1029 l 1
 202 1029 l 1
 202 885 l 1
 84 885 l 1
-37 -286 m 1
 -37 -184 l 1
 33 -177 l 2
 51 -175 65 -167 73 -155 c 0
 80 -141 84 -129 84 -117 c 2
 84 746 l 1
 202 746 l 1
 202 -142 l 2
 202 -168 194 -194 179 -221 c 1
 163 -247 135 -265 95 -277 c 0
 71 -283 27 -286 -37 -286 c 1
EndSplineSet
MinimumDistance: x2,-1 
EndChar
StartChar: k
Encoding: 107 107
OldEncoding: 107
Width: 649
Flags: HW
HStem: -0 21G<36.6396 151.9 507.85 651.36> 991 20G<36.6396 151.9>
VStem: 37 115<14 274 426 1008>
DStem: 270.55 388.545 355.3 476.685 507.85 -0.174805 651.36 -0.174805 459.26 728.675 610.68 728.675 151.9 425.835 355.3 476.685
Fore
37 1011 m 1
 152 1011 l 1
 152 426 l 1
 459 729 l 1
 611 729 l 1
 355 477 l 1
 651 -0 l 1
 508 -0 l 1
 271 389 l 1
 152 273 l 1
 152 -0 l 1
 37 -0 l 1
 37 1011 l 1
EndSplineSet
EndChar
StartChar: l
Encoding: 108 108
OldEncoding: 108
Width: 289
Flags: HW
HStem: -0 21G<77.3701 192.63> 991 20G<77.3701 192.63>
VStem: 77 115<14 1008>
Fore
77 -0 m 1
 77 1011 l 1
 192 1011 l 1
 192 -0 l 1
 77 -0 l 1
EndSplineSet
MinimumDistance: x2,-1 
EndChar
StartChar: m
Encoding: 109 109
OldEncoding: 109
Width: 1090
Flags: HW
HStem: 658 107<318 337 736.74 763.86>
VStem: 33 115<29 484 652 743> 454 115<29 509> 876 118<29 535>
Fore
33 15 m 1
 33 744 l 1
 148 744 l 1
 148 651 l 1
 179 698 205 726 225 735 c 1
 263 755 308 765 362 765 c 0
 417 765 458 756 484 737 c 1
 516 716 542 689 560 656 c 1
 593 695 l 2
 599 703 608 712 620 723 c 0
 629 730 642 738 658 746 c 1
 692 759 728 765 764 765 c 0
 830 765 876 757 901 741 c 1
 916 734 930 721 945 704 c 1
 960 689 972 670 982 647 c 0
 989 624 994 603 994 584 c 2
 994 15 l 1
 876 15 l 1
 876 536 l 1
 863 617 817 658 737 658 c 0
 685 658 646 644 620 616 c 0
 593 589 576 553 569 510 c 1
 569 15 l 1
 454 15 l 1
 454 538 l 2
 454 604 421 643 356 654 c 0
 345 657 333 658 320 658 c 0
 273 658 234 642 202 609 c 0
 172 578 154 536 148 485 c 1
 148 15 l 1
 33 15 l 1
EndSplineSet
MinimumDistance: x15,-1 
EndChar
StartChar: n
Encoding: 110 110
OldEncoding: 110
Width: 728
Flags: HW
VStem: 53 115<29 431 652 734> 516 115<29 527>
Fore
53 744 m 1
 168 744 l 1
 168 651 l 1
 200 694 227 721 252 732 c 1
 288 756 336 767 397 765 c 0
 447 765 487 759 516 746 c 1
 542 732 568 712 592 688 c 1
 611 666 624 631 631 582 c 1
 631 15 l 1
 516 15 l 1
 516 522 l 2
 516 548 510 572 497 596 c 1
 482 618 463 634 441 642 c 1
 423 653 399 658 370 658 c 0
 313 658 265 638 227 598 c 0
 188 559 168 493 168 401 c 2
 168 15 l 1
 53 15 l 1
 53 744 l 1
EndSplineSet
MinimumDistance: x7,-1 
EndChar
StartChar: o
Encoding: 111 111
OldEncoding: 111
Width: 729
Flags: HW
HStem: -16 119<326 344> 651 116<326 344>
VStem: 7 119<350 400> 544 121<350 400>
Fore
63 127 m 0
 26 190 7 272 7 375 c 0
 7 478 26 561 63 624 c 0
 94 674 134 711 181 734 c 0
 228 756 280 767 336 767 c 0
 389 767 440 755 491 732 c 0
 538 709 576 673 606 624 c 0
 645 559 665 476 665 375 c 0
 665 277 645 195 606 127 c 0
 576 78 538 42 491 19 c 0
 440 -4 389 -16 336 -16 c 0
 283 -16 232 -4 181 19 c 0
 132 43 93 79 63 127 c 0
336 103 m 0
 374 103 408 112 438 130 c 0
 467 147 490 175 507 213 c 0
 531 271 544 325 544 375 c 0
 544 430 531 485 507 540 c 0
 491 577 468 605 438 624 c 1
 405 642 371 651 336 651 c 0
 300 651 265 642 232 626 c 0
 196 606 170 578 155 540 c 1
 135 447 l 1
 129 424 126 400 126 375 c 0
 126 327 138 274 162 213 c 0
 178 178 202 150 234 130 c 0
 264 112 298 103 336 103 c 0
EndSplineSet
MinimumDistance: x7,-1 
EndChar
StartChar: p
Encoding: 112 112
OldEncoding: 112
Width: 726
Flags: HW
HStem: -271 21G<28.4951 146.015> -1 121<343 370> 741 20G<28.4951 130.195>
VStem: 28 115<-256 98 381 434>
Fore
146 -271 m 1
 28 -271 l 1
 28 761 l 1
 130 761 l 1
 130 668 l 1
 147 695 180 723 230 754 c 0
 261 773 302 783 354 783 c 0
 407 783 455 772 500 752 c 0
 554 726 596 684 625 627 c 0
 658 563 676 500 678 437 c 1
 681 384 l 1
 681 328 672 273 656 220 c 0
 639 168 615 126 583 94 c 0
 522 31 451 -1 371 -1 c 0
 310 -1 257 14 213 44 c 1
 179 68 157 91 146 111 c 1
 146 -271 l 1
486 606 m 0
 451 653 401 675 334 673 c 0
 314 673 287 665 252 650 c 1
 226 632 207 613 195 593 c 0
 161 538 143 475 143 405 c 0
 143 365 150 324 162 282 c 0
 175 242 188 211 201 189 c 1
 221 166 242 149 266 138 c 0
 294 126 320 120 345 120 c 0
 415 120 466 143 497 189 c 0
 531 238 548 303 548 386 c 0
 548 476 528 549 486 606 c 0
EndSplineSet
MinimumDistance: x20,-1 
EndChar
StartChar: q
Encoding: 113 113
OldEncoding: 113
Width: 731
Flags: HW
HStem: -271 21G<530.115 645.375> -1 121<301 330> 741 20G<543.675 645.375>
VStem: 530 115<-256 98 403 431.708>
Fore
645 -271 m 1
 530 -271 l 1
 530 111 l 1
 520 89 497 66 462 44 c 0
 417 14 364 -1 303 -1 c 0
 225 -1 154 31 91 94 c 0
 27 160 -4 255 -4 379 c 1
 -2 437 l 1
 5 506 23 569 53 627 c 0
 83 685 123 726 173 752 c 0
 215 772 264 783 319 783 c 0
 371 783 413 773 444 754 c 0
 487 727 520 699 544 668 c 1
 544 761 l 1
 645 761 l 1
 645 -271 l 1
188 606 m 1
 143 548 122 474 124 384 c 0
 124 304 142 239 176 189 c 0
 208 143 259 120 329 120 c 0
 358 120 385 126 411 138 c 0
 433 148 454 165 475 189 c 1
 503 232 521 286 528 352 c 1
 530 403 l 1
 530 471 514 534 482 593 c 0
 467 616 449 635 426 648 c 0
 395 665 366 673 340 673 c 0
 270 675 219 653 188 606 c 1
EndSplineSet
MinimumDistance: x0,-1 
EndChar
StartChar: r
Encoding: 114 114
OldEncoding: 114
Width: 431
Flags: HW
HStem: 745 20G<348.545 415.215>
VStem: 64 118<29 415 631 735>
Fore
64 15 m 1
 64 744 l 1
 182 744 l 1
 182 631 l 1
 203 669 230 702 263 728 c 0
 293 750 321 763 349 765 c 1
 415 765 l 1
 415 642 l 1
 370 642 333 637 304 626 c 1
 263 607 232 580 212 545 c 1
 191 505 182 455 182 395 c 2
 182 15 l 1
 64 15 l 1
EndSplineSet
MinimumDistance: x2,-1 
EndChar
StartChar: s
Encoding: 115 115
OldEncoding: 115
Width: 654
Flags: HW
VStem: 27 112<540 560> 484 113<190 208>
Fore
7 231 m 1
 118 231 l 1
 125 202 130 181 135 167 c 0
 139 157 150 143 166 128 c 1
 182 115 208 103 243 91 c 1
 264 88 298 86 347 86 c 1
 392 94 422 104 438 116 c 0
 449 123 460 136 470 156 c 0
 479 172 484 188 484 204 c 0
 484 250 458 280 405 297 c 1
 340 313 l 1
 264 332 l 1
 195 350 l 2
 168 357 148 364 135 370 c 1
 63 396 27 456 27 549 c 0
 27 617 54 670 107 708 c 1
 157 747 220 767 296 767 c 0
 472 767 562 692 568 542 c 1
 451 542 l 1
 451 574 441 601 420 624 c 1
 398 644 353 655 285 657 c 1
 213 653 166 628 144 582 c 1
 141 573 139 561 139 547 c 0
 139 514 152 491 179 480 c 2
 222 461 l 1
 276 447 l 1
 349 426 l 1
 419 415 475 396 519 370 c 0
 571 342 597 282 597 191 c 1
 592 152 578 118 555 88 c 0
 531 54 501 30 465 15 c 0
 426 -4 382 -14 334 -16 c 0
 281 -18 234 -15 192 -6 c 0
 69 19 7 98 7 231 c 1
EndSplineSet
MinimumDistance: x28,-1 
EndChar
StartChar: t
Encoding: 116 116
OldEncoding: 116
Width: 365
Flags: HW
HStem: 629 106<11 98 218 317>
VStem: 99 119<116 629 735 918>
Fore
218 932 m 1
 218 735 l 1
 330 735 l 1
 330 629 l 1
 218 629 l 1
 218 122 l 2
 218 95 237 81 277 81 c 1
 330 86 l 1
 330 -16 l 1
 303 -23 262 -26 206 -26 c 1
 170 -22 143 -8 125 16 c 1
 107 41 99 62 99 78 c 2
 99 629 l 1
 -3 629 l 1
 -3 735 l 1
 99 735 l 1
 99 932 l 1
 218 932 l 1
EndSplineSet
MinimumDistance: x2,-1 y1,16 y1,0 x12,14 x12,13 x1,3 x1,2 
EndChar
StartChar: u
Encoding: 117 117
OldEncoding: 117
Width: 729
Flags: HW
HStem: -15 112<269 303> 727 20G<46.7197 161.98 508.89 625.28>
VStem: 47 115<224 738> 509 116<32 97 320 738>
Fore
625 18 m 1
 509 18 l 1
 509 97 l 1
 481 58 454 31 426 16 c 1
 384 -5 335 -15 278 -15 c 0
 231 -15 192 -9 162 2 c 1
 96 37 58 91 47 166 c 1
 47 747 l 1
 162 747 l 1
 162 230 l 2
 162 180 180 142 217 115 c 1
 240 103 263 97 285 97 c 0
 318 97 345 99 365 104 c 1
 422 123 461 155 482 199 c 0
 500 238 509 289 509 351 c 2
 509 747 l 1
 625 747 l 1
 625 18 l 1
EndSplineSet
MinimumDistance: x0,-1 
EndChar
StartChar: v
Encoding: 118 118
OldEncoding: 118
Width: 654
Flags: HW
HStem: 725 20G<-26.0898 103.86 503.88 636.09>
Fore
356 16 m 1
 229 16 l 1
 -26 745 l 1
 104 745 l 1
 294 155 l 1
 504 745 l 1
 636 745 l 1
 356 16 l 1
EndSplineSet
EndChar
StartChar: w
Encoding: 119 119
OldEncoding: 119
Width: 944
Flags: HW
HStem: 725 20G<-48.0303 81.9199 366.68 510.19 794.95 926.03>
DStem: 366.68 744.925 431.09 568.645 225.43 177.665 292.1 16.0752
Fore
161 16 m 1
 -48 745 l 1
 82 745 l 1
 225 178 l 1
 367 745 l 1
 510 745 l 1
 647 178 l 1
 795 745 l 1
 926 745 l 1
 711 16 l 1
 579 16 l 1
 431 569 l 1
 292 16 l 1
 161 16 l 1
EndSplineSet
MinimumDistance: x11,-1 
EndChar
StartChar: x
Encoding: 120 120
OldEncoding: 120
Width: 654
Flags: HW
HStem: 725 20G<0.419922 132.63 484.06 616.27>
DStem: 0.419922 744.925 132.63 744.925 241.11 388.975 307.78 488.415 241.11 388.975 303.26 289.535 -16.5303 16.0752 115.68 16.0752 303.26 289.535 367.67 391.235 486.32 16.0752 618.53 16.0752 484.06 744.925 616.27 744.925 307.78 488.415 367.67 391.235
Fore
303 290 m 1
 116 16 l 1
 -17 16 l 1
 241 389 l 1
 0 745 l 1
 133 745 l 1
 308 488 l 1
 484 745 l 1
 616 745 l 1
 368 391 l 1
 619 16 l 1
 486 16 l 1
 303 290 l 1
EndSplineSet
MinimumDistance: x10,-1 
EndChar
StartChar: y
Encoding: 121 121
OldEncoding: 121
Width: 653
Flags: HW
HStem: -269 113<94 117> 742 20G<-11.5947 110.445 499.165 624.595>
DStem: -11.5947 762.345 110.445 762.345 226.835 22.1953 295.765 212.035 499.165 762.345 624.595 762.345 295.765 212.035 293.505 -136.005
Fore
499 762 m 1
 625 762 l 1
 294 -136 l 2
 273 -191 239 -229 192 -251 c 0
 164 -263 132 -269 97 -269 c 0
 71 -269 49 -264 31 -254 c 1
 31 -145 l 1
 50 -153 79 -156 117 -156 c 1
 147 -151 170 -131 185 -94 c 1
 227 22 l 1
 -12 762 l 1
 110 762 l 1
 296 212 l 1
 499 762 l 1
EndSplineSet
MinimumDistance: x1,-1 
EndChar
StartChar: z
Encoding: 122 122
OldEncoding: 122
Width: 654
Flags: HW
HStem: 16 115<164 582> 630 115<36 422>
DStem: 431.08 629.665 579.11 643.225 5.07031 110.995 159.88 131.335
Fore
579 745 m 1
 579 643 l 1
 160 131 l 1
 595 131 l 1
 595 16 l 1
 5 16 l 1
 5 111 l 1
 431 630 l 1
 36 630 l 1
 36 745 l 1
 579 745 l 1
EndSplineSet
MinimumDistance: x0,-1 
EndChar
StartChar: braceleft
Encoding: 123 123
OldEncoding: 123
Width: 436
Flags: HW
VStem: 144 104<-111 155 595 861>
Fore
34 326 m 1
 34 423 l 1
 80 434 109 454 122 484 c 0
 137 515 144 562 144 623 c 2
 144 858 l 2
 144 905 157 945 182 979 c 1
 210 1012 235 1028 257 1028 c 2
 359 1032 l 1
 359 940 l 1
 297 933 l 2
 278 931 266 923 259 910 c 0
 252 894 248 872 248 845 c 2
 248 597 l 2
 248 537 237 489 215 454 c 0
 198 426 175 400 146 375 c 1
 169 360 191 336 213 304 c 0
 236 267 248 217 248 153 c 2
 248 -92 l 2
 248 -121 252 -143 259 -160 c 0
 266 -172 278 -180 297 -182 c 2
 359 -189 l 1
 359 -279 l 1
 257 -277 l 2
 234 -277 209 -260 182 -226 c 0
 157 -195 144 -156 144 -109 c 2
 144 130 l 2
 144 191 137 238 122 269 c 0
 107 298 78 317 34 326 c 1
EndSplineSet
MinimumDistance: x11,-1 
EndChar
StartChar: bar
Encoding: 124 124
OldEncoding: 124
Width: 339
Flags: HW
HStem: 1008 20G<118.19 201.81>
VStem: 118 84<-267 1015>
Fore
202 1028 m 1
 202 -281 l 1
 118 -281 l 1
 118 1028 l 1
 202 1028 l 1
EndSplineSet
MinimumDistance: x0,-1 
EndChar
StartChar: braceright
Encoding: 125 125
OldEncoding: 125
Width: 438
Flags: HW
VStem: 127 104<-111 169 595 873>
Fore
341 423 m 1
 341 326 l 1
 295 317 265 298 253 269 c 0
 238 240 231 194 231 130 c 2
 231 -109 l 2
 231 -139 225 -167 213 -194 c 0
 204 -211 188 -231 167 -255 c 1
 152 -267 136 -275 118 -277 c 1
 16 -279 l 1
 16 -189 l 1
 78 -182 l 2
 98 -180 111 -172 118 -157 c 0
 124 -145 127 -123 127 -92 c 2
 127 153 l 2
 127 219 140 268 164 301 c 1
 188 337 209 361 229 375 c 1
 211 394 l 1
 194 408 181 424 171 443 c 1
 156 464 145 487 138 509 c 0
 131 538 127 567 127 597 c 2
 127 845 l 2
 127 876 124 898 118 910 c 0
 112 923 99 931 78 933 c 2
 16 940 l 1
 16 1032 l 1
 118 1028 l 1
 136 1026 152 1018 167 1004 c 0
 188 983 203 963 213 944 c 0
 225 918 231 889 231 858 c 2
 231 623 l 2
 231 559 238 513 253 484 c 0
 266 454 295 434 341 423 c 1
EndSplineSet
MinimumDistance: x3,-1 
EndChar
StartChar: asciitilde
Encoding: 126 126
OldEncoding: 126
Width: 762
Flags: HW
HStem: 372 95<504 522> 523 88<200 207>
DStem: 254.105 501.105 277.835 591.505 402.135 406.185 460.895 483.025
Fore
132 406 m 1
 57 406 l 1
 60 478 75 530 104 562 c 0
 135 595 169 611 206 611 c 0
 233 611 257 604 278 592 c 2
 461 483 l 2
 480 472 498 467 516 467 c 0
 533 467 548 472 560 481 c 1
 577 495 585 526 585 573 c 1
 658 573 l 1
 658 515 644 466 616 428 c 0
 590 391 555 372 512 372 c 0
 475 372 438 384 402 406 c 2
 254 501 l 1
 239 515 223 523 206 523 c 0
 184 523 166 512 152 490 c 0
 139 469 132 442 132 406 c 1
EndSplineSet
MinimumDistance: x5,-1 
EndChar
StartChar: uni0E10.descless
Encoding: 128 63232
OldEncoding: 63232
Width: 698
Flags: HW
HStem: -0 21G<463.855 579.115> 199 70<227.34 252> 412 71<227.749 252> 653 85<576 594> 722 79<304 338>
VStem: 100 70<334 352> 482 97<193 400>
Fore
241 483 m 0
 269 483 298 475 327 459 c 1
 354 440 374 417 387 391 c 2
 482 192 l 1
 482 382 l 2
 482 441 472 480 451 499 c 1
 434 520 399 539 347 556 c 1
 297 570 241 582 179 592 c 1
 123 604 80 611 49 614 c 1
 78 664 115 709 162 748 c 1
 208 783 258 801 312 801 c 0
 346 801 373 798 392 793 c 2
 471 768 l 1
 540 745 l 2
 556 740 573 738 590 738 c 0
 618 738 645 744 672 757 c 1
 690 676 l 1
 652 661 618 653 586 653 c 0
 565 653 546 655 531 660 c 2
 456 685 l 1
 378 713 l 2
 359 719 338 722 316 722 c 0
 295 722 271 716 244 704 c 1
 219 690 206 679 204 671 c 1
 250 660 l 1
 334 636 l 1
 411 618 l 2
 487 598 534 573 551 541 c 1
 570 512 579 460 579 386 c 2
 579 -0 l 1
 464 -0 l 1
 456 44 441 94 418 150 c 0
 391 210 372 249 361 269 c 1
 355 249 340 232 316 218 c 0
 294 205 269 199 241 199 c 0
 197 199 162 213 137 241 c 0
 112 270 100 303 100 340 c 0
 100 382 112 416 137 442 c 0
 162 470 197 483 241 483 c 0
241 269 m 0
 265 269 283 276 294 289 c 0
 306 306 312 323 312 340 c 0
 312 360 306 377 294 391 c 0
 282 405 265 412 241 412 c 0
 219 412 202 405 190 391 c 0
 177 377 170 360 170 340 c 0
 170 321 177 305 190 291 c 1
 201 276 218 269 241 269 c 0
EndSplineSet
MinimumDistance: x28,-1 
EndChar
StartChar: uni0E34.left
Encoding: 129 63233
OldEncoding: 63233
Width: 0
Flags: HW
HStem: 921 67<-643.271 -608.314>
DStem: -608.28 990.115 -608.28 990.115 -698.68 987.855 -530.31 987.855
Fore
-530 1171 m 1
 -428 1157 -354 1118 -310 1052 c 0
 -268 987 -238 917 -222 842 c 1
 -275 861 -316 874 -343 882 c 0
 -386 894 -444 905 -517 914 c 0
 -557 919 -600 921 -643 921 c 2
 -780 917 l 1
 -868 904 l 1
 -860 948 -840 992 -808 1036 c 1
 -775 1079 -735 1112 -687 1136 c 0
 -640 1159 -588 1171 -530 1171 c 1
-548 1099 m 1
 -597 1099 -640 1087 -678 1062 c 0
 -716 1038 -739 1012 -747 983 c 1
 -699 988 l 1
 -608 990 l 1
 -530 988 l 1
 -471 983 -424 974 -389 961 c 0
 -366 952 -344 942 -321 930 c 1
 -365 1027 -441 1083 -548 1099 c 1
EndSplineSet
EndChar
StartChar: uni0E35.left
Encoding: 130 63234
OldEncoding: 63234
Width: 0
Flags: HW
HStem: 916 67<-646.271 -611.314>
VStem: -341 88<1076 1253>
DStem: -611.28 984.785 -611.28 984.785 -701.68 982.525 -533.31 982.525
Fore
-341 1075 m 1
 -341 1258 l 1
 -253 1258 l 5
 -253 936 l 1
 -253 936 l 1
 -252 936 -249 925 -242 901 c 1
 -225 837 l 1
 -278 856 -319 869 -346 876 c 0
 -389 889 -447 900 -520 909 c 0
 -560 914 -603 916 -646 916 c 2
 -783 911 l 1
 -871 899 l 1
 -863 943 -843 988 -811 1033 c 1
 -781 1073 -741 1105 -690 1131 c 0
 -644 1154 -592 1166 -533 1166 c 1
 -493 1161 -460 1152 -434 1137 c 1
 -415 1130 -393 1118 -368 1101 c 1
 -341 1075 l 1
-551 1093 m 1
 -585 1093 -615 1087 -644 1075 c 0
 -673 1064 -696 1049 -714 1031 c 0
 -730 1017 -742 999 -750 978 c 1
 -702 983 l 1
 -611 985 l 1
 -533 983 l 1
 -474 978 -427 969 -392 955 c 0
 -366 946 -344 936 -325 925 c 1
 -342 966 -366 1002 -399 1033 c 0
 -434 1067 -485 1086 -551 1093 c 1
EndSplineSet
MinimumDistance: x2,-1 
EndChar
StartChar: uni0E36.left
Encoding: 131 63235
OldEncoding: 63235
Width: 0
Flags: HW
HStem: 915 67<-637.9 -602.963> 1092 77<-567 -544> 1209 62<-340 -318>
VStem: -457 67<1149.02 1164> -273 68<1144 1164>
DStem: -602.93 984.005 -602.93 984.005 -693.33 981.745 -524.96 981.745
Fore
-205 1147 m 0
 -205 1115 -213 1089 -229 1068 c 0
 -245 1044 -265 1030 -291 1026 c 1
 -249 949 l 1
 -233 915 -222 877 -216 836 c 1
 -270 855 -310 868 -337 876 c 0
 -381 888 -439 899 -511 908 c 0
 -552 913 -594 915 -638 915 c 2
 -775 911 l 1
 -863 898 l 1
 -846 977 -809 1042 -752 1092 c 0
 -693 1144 -630 1169 -565 1169 c 0
 -540 1169 -518 1167 -499 1163 c 2
 -457 1149 l 1
 -457 1179 -446 1207 -423 1231 c 0
 -399 1258 -369 1271 -333 1271 c 0
 -291 1271 -260 1259 -240 1234 c 1
 -217 1211 -205 1182 -205 1147 c 0
-331 1209 m 0
 -351 1209 -366 1203 -375 1192 c 0
 -385 1181 -390 1168 -390 1151 c 0
 -390 1135 -385 1122 -375 1112 c 0
 -360 1099 -346 1092 -331 1092 c 0
 -316 1092 -302 1099 -289 1112 c 0
 -278 1122 -273 1135 -273 1151 c 0
 -273 1168 -278 1181 -289 1192 c 1
 -297 1203 -311 1209 -331 1209 c 0
-543 1092 m 1
 -576 1092 -607 1086 -636 1074 c 0
 -664 1063 -688 1048 -706 1030 c 0
 -722 1016 -734 998 -742 977 c 1
 -693 982 l 1
 -603 984 l 1
 -525 982 l 1
 -465 977 -418 968 -384 955 c 0
 -361 946 -339 936 -316 924 c 1
 -332 961 -356 996 -390 1030 c 0
 -425 1063 -476 1083 -543 1092 c 1
EndSplineSet
MinimumDistance: x0,-1 
EndChar
StartChar: uni0E37.left
Encoding: 132 63236
OldEncoding: 63236
Width: 0
Flags: HW
HStem: 916 67<-638.271 -603.314> 1093 77<-561 -544>
VStem: -506 87<1164 1253> -333 88<1073 1253>
DStem: -603.28 984.785 -603.28 984.785 -693.68 982.525 -525.31 982.525
Fore
-245 934 m 1
 -243 934 -234 902 -217 837 c 1
 -270 856 -311 869 -338 876 c 0
 -381 889 -439 900 -512 909 c 0
 -552 914 -595 916 -638 916 c 2
 -775 911 l 1
 -863 899 l 1
 -854 948 -834 993 -803 1036 c 0
 -773 1077 -735 1109 -689 1133 c 1
 -647 1158 -603 1170 -558 1170 c 0
 -540 1170 -523 1168 -506 1163 c 1
 -506 1258 l 1
 -419 1258 l 1
 -419 1135 l 1
 -382 1122 -354 1101 -333 1073 c 1
 -333 1258 l 1
 -245 1258 l 1
 -245 934 l 1
-543 1093 m 1
 -592 1093 -635 1081 -673 1057 c 0
 -711 1033 -734 1007 -742 978 c 1
 -694 983 l 1
 -603 985 l 1
 -525 983 l 1
 -466 978 -419 969 -384 955 c 0
 -358 946 -336 936 -317 925 c 1
 -360 1021 -436 1077 -543 1093 c 1
EndSplineSet
MinimumDistance: x0,-1 
EndChar
StartChar: ellipsis
Encoding: 133 8230
OldEncoding: 8230
Width: 1074
Flags: HW
VStem: 47 181<112 130> 402 180<118 118.477> 755 181<118 118.477>
Fore
936 56 m 1
 936 5 906 -23 846 -29 c 1
 792 -29 762 -1 755 56 c 1
 755 117 785 148 846 148 c 0
 871 148 892 139 910 121 c 1
 924 105 932 83 936 56 c 1
582 56 m 1
 582 4 552 -24 492 -29 c 1
 438 -29 408 -1 402 56 c 1
 402 117 432 148 492 148 c 0
 517 148 538 139 556 121 c 1
 571 103 580 81 582 56 c 1
228 56 m 0
 228 -1 198 -29 137 -29 c 0
 77 -29 47 -1 47 56 c 0
 47 117 77 148 137 148 c 0
 198 148 228 117 228 56 c 0
EndSplineSet
MinimumDistance: x0,-1 
EndChar
StartChar: uni0E48.low_left
Encoding: 134 63237
OldEncoding: 63237
Width: 0
Flags: HW
VStem: -347 88<863 1185>
Fore
-347 849 m 1
 -347 1199 l 1
 -259 1199 l 1
 -259 849 l 1
 -347 849 l 1
EndSplineSet
MinimumDistance: x2,-1 
EndChar
StartChar: uni0E49.low_left
Encoding: 135 63238
OldEncoding: 63238
Width: 0
Flags: HW
HStem: 1123 67<-640 -618>
VStem: -764 71<1054 1062> -565 77<1054 1074>
Fore
-488 1056 m 0
 -488 1012 -495 974 -509 944 c 1
 -529 913 -541 896 -547 891 c 1
 -519 891 -489 895 -456 902 c 0
 -428 909 -400 925 -373 949 c 0
 -320 995 -293 1072 -293 1180 c 1
 -198 1180 l 1
 -198 1018 -255 910 -368 856 c 1
 -428 830 -491 818 -558 818 c 0
 -586 818 -614 820 -639 824 c 2
 -693 833 l 1
 -684 837 -669 848 -650 866 c 0
 -633 882 -619 907 -609 940 c 1
 -620 937 l 1
 -641 935 l 2
 -655 935 -666 937 -675 940 c 0
 -734 955 -764 996 -764 1061 c 0
 -764 1096 -750 1127 -724 1153 c 0
 -700 1177 -667 1190 -627 1190 c 0
 -585 1190 -551 1176 -525 1150 c 0
 -500 1123 -488 1091 -488 1056 c 0
-627 1123 m 0
 -646 1123 -661 1117 -673 1105 c 0
 -686 1090 -693 1076 -693 1061 c 0
 -693 1043 -687 1029 -675 1019 c 1
 -664 1004 -648 997 -627 997 c 0
 -614 997 -603 1001 -593 1007 c 0
 -583 1014 -576 1022 -571 1030 c 0
 -567 1039 -565 1049 -565 1061 c 0
 -565 1080 -570 1096 -580 1107 c 0
 -592 1117 -607 1123 -627 1123 c 0
EndSplineSet
MinimumDistance: x0,-1 
EndChar
StartChar: uni0E4A.low_left
Encoding: 136 63239
OldEncoding: 63239
Width: 0
Flags: HW
HStem: 847 42<-618 -605.513> 991 42<-617.183 -603.738> 1090 63<-620 -607 -464 -448>
VStem: -566 42<933 944> -404 62<990 1024>
Fore
-617 847 m 0
 -654 849 -684 866 -708 898 c 0
 -732 933 -744 971 -742 1012 c 0
 -742 1047 -729 1081 -705 1114 c 1
 -683 1140 -653 1153 -617 1153 c 0
 -601 1153 -586 1151 -573 1145 c 1
 -540 1125 l 1
 -529 1114 l 1
 -529 1114 l 1
 -524 1122 -514 1130 -501 1139 c 0
 -487 1148 -469 1153 -448 1153 c 0
 -410 1153 -383 1141 -367 1116 c 0
 -350 1090 -342 1055 -342 1012 c 0
 -342 971 -352 938 -372 913 c 1
 -330 938 l 2
 -315 947 -301 961 -288 979 c 1
 -270 1011 -260 1041 -260 1070 c 0
 -260 1088 -264 1109 -270 1132 c 1
 -202 1158 l 1
 -196 1139 -193 1118 -193 1095 c 0
 -193 1036 -209 984 -240 940 c 0
 -280 881 -358 852 -471 852 c 1
 -468 858 -458 871 -443 889 c 0
 -436 898 -427 913 -416 935 c 0
 -408 954 -404 975 -404 997 c 0
 -404 1025 -407 1048 -413 1065 c 1
 -421 1082 -437 1090 -461 1090 c 0
 -477 1090 -490 1085 -501 1074 c 0
 -514 1061 -522 1052 -524 1046 c 1
 -534 1058 l 1
 -539 1064 -549 1070 -564 1079 c 0
 -577 1086 -592 1090 -608 1090 c 0
 -625 1090 -639 1084 -651 1072 c 0
 -662 1060 -668 1042 -668 1019 c 1
 -664 1023 -656 1026 -647 1028 c 2
 -617 1033 l 1
 -589 1033 -566 1023 -549 1004 c 0
 -533 988 -524 965 -524 935 c 0
 -524 913 -534 893 -552 875 c 0
 -571 857 -592 847 -617 847 c 0
-617 991 m 0
 -635 991 -647 986 -653 977 c 0
 -663 967 -668 954 -668 940 c 0
 -668 928 -663 917 -653 905 c 0
 -645 894 -633 889 -617 889 c 0
 -601 889 -588 894 -580 905 c 0
 -571 915 -566 927 -566 940 c 0
 -566 953 -571 966 -580 977 c 0
 -587 986 -599 991 -617 991 c 0
EndSplineSet
MinimumDistance: x12,-1 
EndChar
StartChar: uni0E4B.low_left
Encoding: 137 63240
OldEncoding: 63240
Width: -1
Flags: HW
HStem: 1003 76<-610 -470 -385 -240>
VStem: -470 86<861 1002 1078 1231>
Fore
-470 1003 m 1
 -625 1003 l 1
 -625 1079 l 1
 -470 1079 l 1
 -470 1233 l 1
 -384 1233 l 1
 -384 1079 l 1
 -229 1079 l 1
 -229 1003 l 1
 -384 1003 l 1
 -384 847 l 1
 -470 847 l 1
 -470 1003 l 1
EndSplineSet
MinimumDistance: x7,-1 y3,5 y3,4 y0,10 y0,11 x6,8 x6,7 x0,2 x0,1 
EndChar
StartChar: uni0E4C.low_left
Encoding: 138 63241
OldEncoding: 63241
Width: 0
Flags: HW
HStem: 838 75<-369.05 -358.724> 1028 62<-382.635 -369.13>
VStem: -543 113<970.312 1003.08> -311 67<965 983>
Fore
-466 1032 m 0
 -464 1042 -455 1054 -439 1067 c 0
 -422 1083 -398 1090 -369 1090 c 0
 -332 1092 -302 1081 -280 1056 c 0
 -256 1031 -244 1002 -244 970 c 0
 -244 936 -256 906 -278 880 c 1
 -303 852 -334 838 -369 838 c 0
 -420 836 -463 851 -497 884 c 0
 -528 915 -543 955 -543 1003 c 0
 -543 1092 -508 1151 -437 1180 c 1
 -406 1198 -358 1209 -293 1213 c 0
 -223 1219 -177 1225 -157 1231 c 0
 -132 1241 -119 1266 -119 1306 c 1
 -37 1306 l 1
 -37 1268 -47 1237 -69 1213 c 0
 -89 1189 -114 1172 -143 1162 c 0
 -179 1149 -225 1141 -280 1139 c 0
 -345 1134 -388 1127 -411 1116 c 0
 -439 1105 -457 1077 -466 1032 c 0
-369 1028 m 0
 -388 1028 -403 1023 -413 1012 c 0
 -424 1002 -430 988 -430 970 c 0
 -430 954 -424 941 -413 931 c 0
 -401 919 -386 913 -369 913 c 0
 -354 913 -340 919 -328 931 c 0
 -317 941 -311 954 -311 970 c 0
 -311 988 -316 1002 -326 1012 c 0
 -337 1023 -351 1028 -369 1028 c 0
EndSplineSet
MinimumDistance: x4,-1 
EndChar
StartChar: uni0E48.low
Encoding: 139 63242
OldEncoding: 63242
Width: 0
Flags: HW
VStem: -207 87<863 1185>
Fore
-207 849 m 5
 -207 1199 l 5
 -120 1199 l 5
 -120 849 l 5
 -207 849 l 5
EndSplineSet
MinimumDistance: x2,-1 
EndChar
StartChar: uni0E49.low
Encoding: 140 63243
OldEncoding: 63243
Width: 0
Flags: HW
HStem: 1123 67<-449 -426>
VStem: -572 72<1054 1074> -371 76<1054 1062>
Fore
-295 1056 m 0
 -295 1009 -303 972 -316 944 c 1
 -339 911 -351 893 -353 891 c 1
 -325 891 -295 895 -263 902 c 0
 -234 910 -206 925 -181 949 c 0
 -128 994 -101 1071 -101 1180 c 1
 -6 1180 l 1
 -6 1017 -63 909 -175 856 c 1
 -235 830 -298 818 -365 818 c 0
 -392 818 -418 820 -444 824 c 2
 -497 833 l 1
 -489 837 -475 848 -455 866 c 0
 -438 884 -425 908 -416 940 c 1
 -417 938 -421 937 -428 937 c 2
 -448 935 l 1
 -483 940 l 1
 -542 955 -572 996 -572 1061 c 0
 -572 1097 -559 1128 -534 1153 c 0
 -509 1177 -476 1190 -435 1190 c 0
 -392 1190 -358 1176 -333 1150 c 0
 -308 1124 -295 1093 -295 1056 c 0
-435 1123 m 0
 -455 1123 -471 1117 -483 1105 c 0
 -494 1093 -500 1079 -500 1061 c 0
 -500 1043 -494 1029 -483 1019 c 1
 -472 1004 -456 997 -435 997 c 0
 -415 997 -400 1004 -388 1019 c 1
 -377 1030 -371 1044 -371 1061 c 0
 -371 1077 -377 1092 -388 1105 c 0
 -400 1117 -416 1123 -435 1123 c 0
EndSplineSet
MinimumDistance: x0,-1 
EndChar
StartChar: uni0E4A.low
Encoding: 141 63244
OldEncoding: 63244
Width: 0
Flags: HW
HStem: 847 42<-436 -423.513> 991 42<-435.183 -421.738> 1090 63<-438 -425 -282 -266>
VStem: -384 42<933 944> -222 62<991 1020> -80 69<1070 1095>
Fore
-435 847 m 0
 -471 849 -502 866 -526 898 c 0
 -550 931 -562 969 -560 1012 c 0
 -560 1047 -547 1081 -523 1114 c 1
 -501 1140 -471 1153 -435 1153 c 0
 -419 1153 -404 1151 -391 1145 c 1
 -358 1125 l 1
 -347 1114 l 1
 -347 1114 l 1
 -342 1122 -332 1130 -319 1139 c 0
 -305 1148 -287 1153 -266 1153 c 0
 -228 1153 -201 1141 -185 1116 c 0
 -168 1090 -160 1055 -160 1012 c 0
 -160 974 -169 941 -188 913 c 1
 -146 938 l 2
 -129 949 -116 963 -106 979 c 0
 -89 1012 -80 1043 -80 1072 c 0
 -80 1095 -83 1115 -88 1132 c 1
 -20 1158 l 1
 -14 1139 -11 1118 -11 1095 c 0
 -11 1036 -27 984 -58 940 c 0
 -98 881 -176 852 -289 852 c 1
 -286 858 -276 871 -261 889 c 0
 -254 898 -245 913 -234 935 c 0
 -226 954 -222 975 -222 997 c 0
 -222 1026 -225 1049 -232 1065 c 0
 -239 1082 -255 1090 -280 1090 c 0
 -297 1090 -311 1085 -321 1074 c 0
 -332 1064 -339 1054 -342 1046 c 1
 -352 1058 l 1
 -357 1064 -367 1070 -382 1079 c 0
 -395 1086 -410 1090 -426 1090 c 0
 -442 1090 -457 1084 -470 1072 c 1
 -481 1059 -486 1041 -486 1019 c 1
 -482 1023 -474 1026 -465 1028 c 2
 -435 1033 l 1
 -407 1033 -384 1023 -367 1004 c 0
 -351 988 -342 965 -342 935 c 0
 -342 913 -352 893 -370 875 c 0
 -389 857 -410 847 -435 847 c 0
-435 991 m 0
 -452 991 -465 986 -475 977 c 1
 -482 964 -486 952 -486 940 c 0
 -486 928 -482 917 -472 905 c 0
 -465 894 -453 889 -435 889 c 0
 -419 889 -406 894 -398 905 c 0
 -389 915 -384 927 -384 940 c 0
 -384 953 -389 966 -398 977 c 0
 -405 986 -417 991 -435 991 c 0
EndSplineSet
MinimumDistance: x19,-1 
EndChar
StartChar: uni0E4B.low
Encoding: 142 63245
OldEncoding: 63245
Width: 0
Flags: HW
HStem: 1003 76<-354 -214 -126 16>
VStem: -214 88<861 1002 1078 1231>
Fore
-214 1003 m 1
 -369 1003 l 1
 -369 1079 l 1
 -214 1079 l 1
 -214 1233 l 1
 -126 1233 l 1
 -126 1079 l 1
 27 1079 l 1
 27 1003 l 1
 -126 1003 l 1
 -126 847 l 5
 -214 847 l 1
 -214 1003 l 1
EndSplineSet
MinimumDistance: y3,5 y3,4 y0,10 y0,11 x6,8 x6,7 x0,2 x0,1 
EndChar
StartChar: uni0E4C.low
Encoding: 143 63246
OldEncoding: 63246
Width: 0
Flags: HW
HStem: 838 75<-239.119 -228.781> 1028 62<-252.959 -239.188>
VStem: -413 115<970.312 1003.08> -182 67<965 983>
Fore
-336 1032 m 1
 -331 1043 -322 1055 -309 1067 c 1
 -290 1083 -267 1090 -239 1090 c 0
 -201 1092 -170 1081 -146 1056 c 1
 -125 1031 -115 1003 -115 970 c 0
 -115 937 -125 907 -146 880 c 1
 -173 852 -204 838 -239 838 c 0
 -293 836 -335 851 -367 882 c 0
 -398 913 -413 953 -413 1003 c 0
 -415 1089 -380 1148 -307 1180 c 0
 -269 1199 -220 1209 -159 1211 c 0
 -99 1213 -55 1219 -27 1229 c 0
 -0 1240 13 1265 13 1306 c 1
 94 1306 l 1
 94 1268 83 1237 61 1213 c 0
 41 1189 16 1172 -13 1162 c 0
 -49 1149 -95 1141 -150 1139 c 0
 -213 1134 -256 1127 -279 1116 c 0
 -306 1106 -325 1078 -336 1032 c 1
-239 1028 m 0
 -259 1028 -273 1023 -281 1012 c 1
 -292 1001 -298 987 -298 970 c 0
 -298 954 -292 940 -281 929 c 0
 -270 918 -256 913 -239 913 c 0
 -224 913 -211 919 -198 931 c 0
 -187 941 -182 954 -182 970 c 0
 -182 987 -186 1001 -195 1012 c 1
 -206 1023 -221 1028 -239 1028 c 0
EndSplineSet
MinimumDistance: x4,-1 
EndChar
StartChar: uni0E0D.descless
Encoding: 144 63247
OldEncoding: 63247
Width: 1039
Flags: HW
HStem: -13 71<200 230> 1 84<420 502 606 774> 200 72<200 218> 730 72<308 356> 767 20G<822.315 919.495>
VStem: 71 71<117.56 132> 71 97<262 436> 286 68<117.194 132> 510 97<84 596> 822 97<130 772>
Fore
71 131 m 2
 71 410 l 2
 71 500 103 557 168 579 c 1
 103 619 l 1
 82 629 44 643 -10 658 c 1
 7 682 43 713 98 749 c 0
 154 784 227 802 318 802 c 0
 511 802 607 728 607 579 c 2
 607 85 l 1
 751 85 l 2
 783 85 802 89 809 98 c 1
 818 105 822 122 822 151 c 2
 822 787 l 1
 919 787 l 1
 919 151 l 2
 919 108 915 76 906 54 c 0
 897 33 881 19 857 12 c 0
 832 4 797 1 751 1 c 2
 413 1 l 1
 413 85 l 1
 510 85 l 1
 510 579 l 2
 510 629 494 667 462 692 c 0
 430 717 387 730 332 730 c 0
 261 730 193 710 128 672 c 1
 141 668 165 657 202 639 c 0
 235 624 267 603 297 575 c 1
 285 575 270 572 253 566 c 0
 236 560 217 545 195 522 c 1
 177 495 168 460 168 415 c 2
 168 262 l 1
 174 269 190 272 217 272 c 0
 258 272 292 258 318 230 c 1
 342 201 354 168 354 131 c 0
 354 92 342 59 318 31 c 0
 293 2 260 -13 217 -13 c 0
 175 -13 141 0 113 27 c 0
 85 52 71 86 71 131 c 2
214 58 m 0
 238 58 256 65 267 80 c 0
 280 94 286 111 286 131 c 0
 286 147 280 163 267 179 c 1
 253 193 235 200 214 200 c 0
 192 200 175 193 164 179 c 1
 149 165 142 149 142 131 c 0
 142 111 148 94 161 80 c 0
 175 65 193 58 214 58 c 0
EndSplineSet
MinimumDistance: x13,-1 y18,20 x20,18 x20,19 
EndChar
StartChar: quoteleft
Encoding: 145 8216
OldEncoding: 8216
Width: 249
Flags: HW
Fore
-12 837 m 0
 -14 902 4 952 41 986 c 0
 77 1019 118 1040 163 1048 c 1
 184 1049 195 1045 195 1037 c 0
 195 1034 192 1030 188 1026 c 1
 171 1020 147 1006 116 985 c 0
 86 967 70 943 66 913 c 1
 84 917 l 1
 110 923 l 1
 172 917 203 885 204 827 c 0
 204 800 196 777 179 758 c 0
 163 738 140 728 110 728 c 0
 32 727 -9 763 -12 837 c 0
EndSplineSet
EndChar
StartChar: quoteright
Encoding: 146 8217
OldEncoding: 8217
Width: 249
Flags: HW
Fore
231 920 m 4
 231 855 213 806 176 772 c 4
 139 739 98 719 53 711 c 5
 32 711 21 715 21 723 c 4
 21 726 23 730 28 734 c 5
 45 740 70 754 101 774 c 4
 130 791 147 815 153 845 c 5
 134 841 l 5
 109 836 l 5
 48 843 17 875 17 933 c 4
 17 960 25 983 42 1002 c 4
 58 1021 81 1030 112 1030 c 4
 189 1030 229 993 231 920 c 4
EndSplineSet
EndChar
StartChar: quotedblleft
Encoding: 147 8220
OldEncoding: 8220
Width: 463
Flags: HW
Fore
242 840 m 0
 241 904 258 954 295 989 c 0
 331 1023 372 1044 417 1053 c 1
 439 1053 450 1049 450 1040 c 1
 444 1030 l 1
 443 1029 l 2
 428 1024 403 1010 370 988 c 0
 341 971 324 947 320 916 c 1
 338 922 l 1
 363 926 l 1
 426 920 457 888 458 830 c 0
 458 803 450 780 433 761 c 0
 417 742 394 732 364 732 c 0
 286 730 245 766 242 840 c 0
-12 837 m 4
 -14 902 4 952 41 986 c 4
 77 1019 118 1040 163 1048 c 5
 184 1049 195 1045 195 1037 c 4
 195 1034 192 1030 188 1026 c 5
 171 1020 147 1006 116 985 c 4
 86 967 70 943 66 913 c 5
 84 917 l 5
 110 923 l 5
 172 917 203 885 204 827 c 4
 204 800 196 777 179 758 c 4
 163 738 140 728 110 728 c 4
 32 727 -9 763 -12 837 c 4
EndSplineSet
EndChar
StartChar: quotedblright
Encoding: 148 8221
OldEncoding: 8221
Width: 463
Flags: HW
Fore
232 920 m 4
 232 856 213 806 176 772 c 4
 140 739 98 719 53 711 c 5
 31 711 21 715 21 723 c 4
 21 726 23 730 27 734 c 5
 43 740 68 753 102 774 c 4
 131 791 148 815 153 845 c 5
 135 841 l 5
 109 836 l 5
 47 843 16 875 16 933 c 4
 16 960 25 983 42 1002 c 4
 58 1021 81 1030 111 1030 c 4
 189 1030 230 993 232 920 c 4
486 920 m 4
 486 855 468 806 431 772 c 4
 394 739 353 719 308 711 c 5
 286 711 276 715 276 723 c 4
 276 726 278 730 283 734 c 5
 300 740 324 754 356 774 c 4
 386 791 402 815 407 845 c 5
 389 841 l 5
 363 836 l 5
 301 843 270 875 270 933 c 4
 270 960 279 983 296 1002 c 4
 312 1021 335 1030 365 1030 c 4
 444 1030 484 993 486 920 c 4
EndSplineSet
EndChar
StartChar: bullet
Encoding: 149 8226
OldEncoding: 8226
Width: 370
Flags: HW
Fore
174 209 m 0
 113 209 64 229 28 269 c 0
 -6 308 -23 353 -23 406 c 0
 -23 441 -15 473 -0 501 c 0
 18 533 41 558 68 576 c 0
 97 594 133 603 174 603 c 0
 217 603 253 594 282 576 c 0
 311 557 334 533 350 503 c 1
 364 474 371 441 371 406 c 0
 371 352 354 305 320 267 c 0
 286 229 237 209 174 209 c 0
EndSplineSet
EndChar
StartChar: endash
Encoding: 150 8211
OldEncoding: 8211
Width: 1090
Flags: HW
HStem: 350 58<-22 1052>
Fore
-36 350 m 1
 -36 408 l 1
 1062 408 l 1
 1062 350 l 1
 -36 350 l 1
EndSplineSet
EndChar
StartChar: emdash
Encoding: 151 8212
OldEncoding: 8212
Width: 2183
Flags: HW
HStem: 350 58<-88 2138>
Fore
-103 350 m 1
 -103 408 l 1
 2153 408 l 1
 2153 350 l 1
 -103 350 l 1
EndSplineSet
EndChar
StartChar: uni0E31.left
Encoding: 152 63248
OldEncoding: 63248
Width: 0
Flags: HW
HStem: 1108 67<-484 -466>
VStem: -611 67<1021 1042> -410 71<1028.17 1042>
Fore
-611 1022 m 1
 -611 1067 -600 1103 -577 1131 c 0
 -554 1160 -521 1175 -478 1175 c 0
 -435 1175 -401 1161 -375 1135 c 0
 -351 1111 -339 1079 -339 1040 c 0
 -339 1001 -353 969 -380 943 c 1
 -341 936 l 1
 -299 932 l 1
 -233 934 -170 955 -111 996 c 0
 -53 1038 -16 1090 -1 1152 c 1
 83 1112 l 1
 69 1067 43 1024 6 985 c 0
 -31 947 -77 915 -132 888 c 0
 -186 863 -243 850 -304 850 c 0
 -381 850 -450 864 -511 890 c 1
 -571 919 -604 963 -611 1022 c 1
-478 974 m 0
 -456 974 -440 980 -429 994 c 0
 -416 1007 -410 1022 -410 1040 c 0
 -410 1061 -415 1077 -427 1089 c 0
 -440 1102 -456 1108 -478 1108 c 0
 -497 1108 -514 1102 -528 1089 c 1
 -539 1076 -544 1060 -544 1040 c 0
 -544 1025 -538 1010 -526 994 c 0
 -514 980 -498 974 -478 974 c 0
EndSplineSet
MinimumDistance: x4,-1 
EndChar
StartChar: uni0E4D.left
Encoding: 153 63249
OldEncoding: 63249
Width: 0
Flags: HW
HStem: 909 66<-441.198 -424> 1129 64<-440.867 -424>
VStem: -569 64<1039.19 1054> -347 62<1038.42 1054>
Fore
-426 909 m 4
 -470 909 -505 923 -530 953 c 4
 -556 981 -569 1014 -569 1052 c 4
 -569 1089 -556 1121 -530 1149 c 5
 -506 1179 -471 1193 -426 1193 c 4
 -381 1193 -347 1179 -322 1152 c 4
 -297 1126 -285 1093 -285 1052 c 4
 -285 1011 -297 978 -322 950 c 4
 -348 923 -382 909 -426 909 c 4
-426 1129 m 4
 -451 1129 -471 1121 -484 1105 c 4
 -498 1089 -505 1071 -505 1052 c 4
 -505 1032 -498 1013 -484 997 c 4
 -471 982 -451 975 -426 975 c 4
 -400 975 -381 982 -368 997 c 4
 -354 1012 -347 1030 -347 1052 c 4
 -347 1066 -350 1077 -357 1087 c 4
 -366 1102 -375 1112 -384 1118 c 4
 -397 1125 -411 1129 -426 1129 c 4
EndSplineSet
MinimumDistance: x6,-1 
EndChar
StartChar: uni0E47.left
Encoding: 154 63250
OldEncoding: 63250
Width: 0
Flags: HW
HStem: 845 53<-338.089 -324> 957 73<-543.814 -530.821> 1003 51<-336.784 -324> 1105 64<-429 -372>
VStem: -740 70<1021 1036> -275 53<942 963>
Fore
-326 845 m 0
 -348 845 -367 850 -383 862 c 1
 -404 873 -426 888 -449 906 c 1
 -502 944 l 2
 -514 952 -528 957 -544 957 c 0
 -578 954 -601 940 -613 913 c 0
 -624 882 -631 858 -633 840 c 1
 -666 858 -691 885 -710 919 c 0
 -730 956 -740 993 -740 1030 c 0
 -740 1055 -737 1074 -730 1088 c 0
 -705 1148 -646 1178 -551 1178 c 1
 -490 1176 l 1
 -456 1171 -423 1169 -392 1169 c 0
 -349 1169 -318 1177 -298 1192 c 0
 -278 1206 -268 1232 -268 1271 c 1
 -194 1271 l 1
 -194 1210 -210 1167 -242 1141 c 1
 -276 1117 -331 1105 -407 1105 c 0
 -439 1105 -474 1107 -513 1111 c 1
 -569 1111 -608 1106 -631 1094 c 0
 -657 1083 -670 1063 -670 1035 c 0
 -670 1015 -664 991 -650 961 c 1
 -648 966 -637 981 -617 1005 c 1
 -601 1022 -576 1030 -544 1030 c 0
 -517 1030 -493 1024 -472 1012 c 1
 -450 996 -435 984 -427 977 c 1
 -412 1028 -378 1054 -326 1054 c 0
 -294 1054 -268 1044 -249 1023 c 0
 -231 1003 -222 979 -222 952 c 0
 -222 923 -231 898 -249 878 c 0
 -269 856 -295 845 -326 845 c 0
-326 898 m 0
 -308 898 -294 904 -286 915 c 0
 -279 925 -275 937 -275 952 c 0
 -275 966 -279 978 -286 988 c 1
 -296 998 -309 1003 -326 1003 c 0
 -340 1003 -353 998 -365 988 c 1
 -374 977 -379 965 -379 952 c 0
 -379 939 -374 926 -365 915 c 0
 -357 904 -344 898 -326 898 c 0
EndSplineSet
MinimumDistance: x28,-1 
EndChar
StartChar: uni0E48.left
Encoding: 155 63251
OldEncoding: 63251
Width: 0
Flags: HW
VStem: -339 88<1313 1555>
Fore
-339 1298 m 1
 -339 1569 l 1
 -251 1569 l 1
 -251 1298 l 5
 -339 1298 l 1
EndSplineSet
MinimumDistance: x2,-1 
EndChar
StartChar: uni0E49.left
Encoding: 156 63252
OldEncoding: 63252
Width: 0
Flags: HW
HStem: 1538 60<-474 -450>
VStem: -582 64<1470 1487> -404 69<1475 1487>
Fore
-335 1476 m 0
 -333 1442 -338 1410 -353 1379 c 0
 -365 1355 -377 1339 -388 1330 c 1
 -335 1335 l 2
 -313 1338 -297 1342 -286 1346 c 0
 -269 1353 -250 1365 -231 1381 c 0
 -203 1406 -184 1436 -175 1469 c 0
 -167 1505 -163 1545 -163 1589 c 1
 -77 1589 l 1
 -77 1445 -127 1349 -226 1300 c 0
 -274 1275 -332 1263 -399 1263 c 5
 -474 1267 l 1
 -518 1277 l 1
 -510 1281 -498 1290 -480 1304 c 1
 -462 1323 -449 1346 -443 1372 c 1
 -452 1369 l 1
 -474 1367 l 1
 -503 1372 l 1
 -556 1388 -582 1425 -582 1483 c 0
 -582 1506 -578 1525 -568 1541 c 0
 -555 1560 -540 1575 -524 1585 c 1
 -505 1594 -484 1598 -461 1598 c 0
 -420 1598 -390 1587 -370 1564 c 0
 -346 1536 -335 1506 -335 1476 c 0
-461 1538 m 0
 -478 1538 -492 1533 -503 1523 c 0
 -513 1511 -518 1497 -518 1483 c 0
 -518 1466 -513 1453 -503 1444 c 0
 -491 1431 -477 1425 -461 1425 c 0
 -445 1425 -430 1431 -418 1444 c 0
 -408 1454 -404 1467 -404 1483 c 0
 -404 1497 -408 1511 -418 1523 c 0
 -429 1533 -443 1538 -461 1538 c 0
EndSplineSet
MinimumDistance: x0,-1 
EndChar
StartChar: uni0E4A.left
Encoding: 157 63253
OldEncoding: 63253
Width: 1
Flags: HW
HStem: 1253 42<-500 -486.238> 1397 42<-499.183 -486.222> 1496 62<-501 -488 -346 -330>
VStem: -448 42<1339 1350> -286 62<1397 1430> -142 67<1475 1505.18>
Fore
-499 1253 m 0
 -536 1255 -566 1273 -588 1306 c 1
 -614 1340 -626 1377 -624 1417 c 0
 -624 1455 -611 1488 -586 1516 c 1
 -566 1544 -537 1558 -499 1558 c 0
 -483 1558 -469 1556 -457 1552 c 0
 -442 1545 -431 1538 -422 1530 c 2
 -411 1519 l 1
 -407 1525 -398 1533 -383 1545 c 0
 -369 1554 -352 1558 -330 1558 c 0
 -259 1558 -224 1511 -224 1417 c 0
 -224 1384 -233 1351 -251 1318 c 1
 -240 1321 -227 1330 -210 1344 c 0
 -193 1356 -179 1369 -170 1384 c 0
 -152 1412 -142 1443 -142 1477 c 0
 -142 1492 -145 1513 -151 1540 c 1
 -82 1563 l 1
 -78 1549 -75 1530 -75 1505 c 0
 -75 1443 -91 1390 -122 1346 c 0
 -160 1289 -237 1260 -353 1260 c 5
 -325 1295 l 2
 -315 1307 -307 1322 -299 1341 c 0
 -290 1359 -286 1380 -286 1403 c 0
 -286 1434 -289 1456 -295 1470 c 0
 -303 1487 -319 1496 -343 1496 c 0
 -359 1496 -372 1490 -383 1479 c 0
 -398 1465 -405 1456 -406 1452 c 1
 -431 1479 l 2
 -442 1490 -461 1496 -489 1496 c 0
 -507 1496 -522 1490 -533 1477 c 0
 -544 1466 -550 1449 -550 1424 c 1
 -531 1433 l 1
 -499 1439 l 1
 -471 1439 -448 1430 -429 1413 c 0
 -414 1397 -406 1374 -406 1341 c 0
 -406 1319 -416 1299 -434 1280 c 0
 -453 1262 -474 1253 -499 1253 c 0
-499 1397 m 0
 -515 1397 -527 1391 -535 1380 c 0
 -545 1369 -550 1358 -550 1346 c 0
 -550 1332 -545 1320 -535 1311 c 1
 -527 1300 -515 1295 -499 1295 c 0
 -480 1295 -468 1300 -462 1311 c 1
 -453 1318 -448 1329 -448 1346 c 0
 -448 1359 -453 1371 -462 1382 c 0
 -469 1392 -481 1397 -499 1397 c 0
EndSplineSet
MinimumDistance: x17,-1 
EndChar
StartChar: uni0E4B.left
Encoding: 158 63254
OldEncoding: 63254
Width: 0
Flags: HW
HStem: 1391 79<-470 -342 -254 -116>
VStem: -341 88<1293 1391 1470 1583>
Fore
-341 1391 m 5
 -485 1391 l 5
 -485 1470 l 5
 -341 1470 l 5
 -341 1586 l 5
 -253 1586 l 5
 -253 1470 l 5
 -107 1470 l 5
 -107 1391 l 5
 -253 1391 l 5
 -253 1278 l 5
 -341 1278 l 5
 -341 1391 l 5
EndSplineSet
MinimumDistance: x7,-1 y3,5 y3,4 y0,10 y0,11 x6,8 x6,7 x0,2 x0,1 
EndChar
StartChar: uni0E4C.left
Encoding: 159 63255
OldEncoding: 63255
Width: 0
Flags: HW
HStem: 1168 62<-331.838 -319.713>
VStem: -480 99<1278.74 1309.25> -281 56<1274 1280>
Fore
-412 1334 m 1
 -410 1342 -402 1352 -389 1365 c 0
 -380 1374 -360 1380 -332 1383 c 1
 -298 1380 -272 1370 -253 1351 c 1
 -234 1328 -225 1304 -225 1276 c 0
 -225 1249 -234 1224 -253 1203 c 0
 -272 1180 -299 1168 -332 1168 c 4
 -376 1166 -412 1179 -440 1208 c 0
 -467 1234 -480 1268 -480 1309 c 0
 -480 1382 -450 1433 -389 1462 c 0
 -363 1475 -322 1482 -266 1484 c 0
 -216 1487 -177 1493 -151 1504 c 1
 -128 1510 -116 1532 -116 1568 c 1
 -47 1568 l 1
 -47 1536 -56 1509 -74 1487 c 1
 -94 1466 -115 1453 -138 1446 c 1
 -166 1434 -205 1427 -255 1425 c 0
 -302 1422 -339 1416 -364 1406 c 0
 -389 1397 -405 1373 -412 1334 c 1
-332 1327 m 0
 -364 1327 -381 1311 -381 1279 c 0
 -381 1268 -376 1257 -366 1246 c 1
 -360 1235 -348 1230 -332 1230 c 0
 -316 1230 -304 1235 -295 1244 c 1
 -286 1256 -281 1267 -281 1279 c 0
 -281 1293 -286 1305 -295 1314 c 1
 -301 1323 -314 1327 -332 1327 c 0
EndSplineSet
MinimumDistance: x4,-1 
EndChar
StartChar: uni0E01
Encoding: 161 3585
OldEncoding: 3585
Width: 795
Flags: HW
HStem: -0 21G<85.75 182.93 578.43 675.61> 717 84<339 389>
VStem: 86 97<14 416> 578 97<14 560>
Fore
4 618 m 1
 25 649 67 687 128 733 c 0
 189 778 267 801 360 801 c 0
 417 801 470 792 521 773 c 0
 568 756 605 727 634 687 c 0
 662 648 675 601 675 546 c 2
 675 -0 l 5
 578 -0 l 1
 578 546 l 2
 578 583 568 613 548 636 c 1
 530 662 505 682 472 696 c 0
 441 710 404 717 363 717 c 0
 280 717 208 692 148 641 c 1
 160 638 183 630 217 616 c 0
 249 601 279 581 307 556 c 1
 285 550 259 536 232 514 c 0
 199 491 183 451 183 395 c 2
 183 -0 l 1
 86 -0 l 1
 86 391 l 2
 86 435 94 471 111 497 c 1
 130 521 153 539 178 550 c 1
 166 561 145 573 117 588 c 0
 86 606 48 616 4 618 c 1
EndSplineSet
MinimumDistance: x5,-1 
EndChar
StartChar: uni0E02
Encoding: 162 3586
OldEncoding: 3586
Width: 808
Flags: HW
HStem: -0 84<205 297 394 532> 463 73<132 155> 766 20G<591.21 688.39>
VStem: 4 79<608.985 636.105> 297 97<84 368> 381 90<592.095 610> 591 97<142 784>
Fore
235 801 m 0
 283 801 324 792 360 773 c 0
 395 752 423 727 443 696 c 0
 462 667 471 635 471 599 c 0
 471 567 468 544 462 530 c 1
 434 477 l 1
 418 451 408 433 404 424 c 0
 398 409 394 383 394 347 c 2
 394 84 l 1
 520 84 l 2
 551 84 571 88 580 97 c 0
 587 105 591 122 591 150 c 2
 591 786 l 1
 688 786 l 1
 688 150 l 2
 688 88 678 47 657 28 c 0
 633 9 588 -0 520 -0 c 2
 200 -0 l 1
 200 84 l 1
 297 84 l 1
 297 360 l 2
 297 391 300 414 306 428 c 0
 310 439 320 456 335 479 c 0
 350 499 361 516 367 530 c 0
 374 546 379 566 381 592 c 1
 381 633 369 665 344 689 c 0
 320 714 289 727 251 727 c 1
 216 722 l 1
 229 720 246 709 267 689 c 0
 290 670 300 638 297 592 c 0
 297 552 282 520 251 497 c 0
 222 475 183 463 134 463 c 1
 47 475 4 532 4 636 c 1
 10 686 38 726 87 757 c 0
 136 786 186 801 235 801 c 0
154 680 m 0
 130 680 112 673 101 660 c 0
 89 644 83 627 83 609 c 0
 83 591 89 575 101 560 c 1
 111 545 129 536 154 536 c 0
 179 536 196 545 207 560 c 1
 220 575 226 592 226 609 c 0
 226 626 220 643 207 660 c 0
 196 673 178 680 154 680 c 0
EndSplineSet
MinimumDistance: x13,-1 y17,19 x19,17 x19,18 
EndChar
StartChar: uni0E03
Encoding: 163 3587
OldEncoding: 3587
Width: 860
Flags: HW
HStem: -0 84<254 349 453 592> 351 72<126 144> 567 67<126 134> 766 20G<643.28 740.46>
VStem: -32 93<494.855 545.705> 204 75<490 509> 349 97<84 512> 435 84<651 666> 643 97<142 784>
Fore
519 653 m 0
 519 635 516 622 510 614 c 2
 484 583 l 1
 474 575 465 564 456 550 c 0
 450 540 446 524 446 502 c 2
 446 84 l 1
 572 84 l 2
 604 84 623 88 630 97 c 1
 639 104 643 122 643 150 c 2
 643 786 l 1
 740 786 l 1
 740 150 l 2
 740 88 730 47 709 28 c 0
 688 9 642 -0 572 -0 c 2
 252 -0 l 1
 252 84 l 1
 349 84 l 1
 349 507 l 2
 349 536 352 557 359 572 c 0
 365 583 374 595 385 607 c 1
 422 634 l 2
 431 641 435 649 435 660 c 0
 435 673 428 688 413 704 c 1
 395 719 380 727 369 729 c 1
 274 664 l 1
 162 729 l 1
 130 722 105 705 88 678 c 1
 70 654 61 631 61 609 c 1
 63 611 70 617 84 625 c 0
 94 631 111 634 135 634 c 0
 175 632 209 620 236 599 c 0
 264 575 279 540 279 493 c 0
 279 450 263 416 232 389 c 0
 202 364 169 351 133 351 c 0
 85 351 46 369 14 404 c 0
 -17 441 -32 488 -32 546 c 0
 -32 586 -27 619 -16 645 c 1
 -4 690 23 728 65 759 c 0
 105 787 141 801 172 801 c 1
 274 738 l 1
 363 801 l 1
 403 788 439 769 470 745 c 0
 503 719 519 688 519 653 c 0
133 567 m 0
 110 567 93 560 82 546 c 1
 67 532 61 515 61 495 c 0
 61 477 67 461 82 446 c 1
 92 431 109 423 133 423 c 0
 157 423 174 430 186 444 c 1
 198 462 204 479 204 495 c 0
 204 514 198 531 186 546 c 0
 174 560 157 567 133 567 c 0
EndSplineSet
MinimumDistance: x10,-1 y14,16 x16,14 x16,15 
EndChar
StartChar: uni0E04
Encoding: 164 3588
OldEncoding: 3588
Width: 803
Flags: HW
HStem: -0 21G<153.64 248.56 586.43 683.61> 328 69<331 352> 541 72<331 352> 728 79<331 365>
VStem: 12 95<510 543> 154 95<14 160> 408 70<462 480> 586 97<14 543>
Fore
107 520 m 0
 107 493 116 462 133 426 c 0
 148 393 158 365 163 342 c 1
 163 416 l 2
 163 473 177 520 207 558 c 0
 238 595 281 613 337 613 c 0
 380 613 415 599 441 571 c 0
 466 544 478 510 478 470 c 0
 478 429 466 396 441 370 c 0
 416 342 381 328 337 328 c 0
 296 328 267 337 249 355 c 1
 249 -0 l 1
 154 -0 l 1
 154 141 l 2
 154 176 148 207 138 233 c 0
 128 255 110 288 82 331 c 0
 60 365 42 398 29 430 c 1
 18 453 12 484 12 525 c 0
 12 584 29 635 61 678 c 0
 94 723 137 755 189 775 c 1
 241 797 295 807 353 807 c 0
 440 807 517 783 584 735 c 0
 650 687 683 620 683 534 c 2
 683 -0 l 1
 586 -0 l 1
 586 525 l 2
 586 591 563 641 515 675 c 0
 466 711 410 728 346 728 c 0
 280 728 224 711 177 675 c 0
 131 640 107 588 107 520 c 0
337 541 m 0
 313 541 295 534 284 520 c 0
 271 505 264 488 264 470 c 0
 264 452 271 436 284 421 c 1
 294 405 312 397 337 397 c 0
 362 397 379 405 390 421 c 1
 402 435 408 452 408 470 c 0
 408 489 402 506 390 520 c 0
 379 534 361 541 337 541 c 0
EndSplineSet
MinimumDistance: x22,-1 
EndChar
StartChar: uni0E05
Encoding: 165 3589
OldEncoding: 3589
Width: 803
Flags: HW
HStem: -0 21G<153.64 248.56 586.43 683.61> 329 69<322 349> 541 72<321 349>
VStem: 154 95<14 160> 408 70<462 480> 586 97<14 560>
DStem: 244.04 719.725 235 801.085 323.14 668.875 369.47 710.685 500.55 801.085 496.03 719.725 369.47 710.685 369.47 636.105
Fore
12 525 m 0
 12 580 34 632 78 682 c 0
 121 734 173 773 235 801 c 1
 369 711 l 1
 501 801 l 1
 623 743 683 654 683 534 c 2
 683 -0 l 1
 586 -0 l 1
 586 525 l 2
 586 561 584 590 580 613 c 1
 571 639 563 658 556 667 c 0
 551 674 542 684 527 696 c 2
 496 720 l 1
 369 636 l 1
 323 669 l 1
 244 720 l 1
 197 696 163 668 142 636 c 0
 121 601 110 563 107 521 c 0
 107 494 116 462 133 426 c 0
 148 394 158 366 163 342 c 1
 163 417 l 2
 163 473 177 520 207 558 c 0
 238 595 281 613 337 613 c 0
 380 613 415 600 441 572 c 0
 466 545 478 511 478 470 c 0
 478 429 466 396 441 371 c 0
 416 343 381 329 337 329 c 0
 296 329 267 338 249 356 c 1
 249 -0 l 1
 154 -0 l 1
 154 141 l 2
 154 177 148 207 138 234 c 0
 128 256 110 288 82 331 c 0
 60 366 42 399 29 430 c 1
 18 453 12 485 12 525 c 0
337 541 m 0
 313 541 295 534 284 521 c 0
 271 506 264 489 264 470 c 0
 264 453 271 436 284 421 c 1
 294 406 312 398 337 398 c 0
 362 398 379 406 390 421 c 1
 402 436 408 452 408 470 c 0
 408 490 402 507 390 521 c 0
 379 534 361 541 337 541 c 0
EndSplineSet
MinimumDistance: x5,-1 
EndChar
StartChar: uni0E06
Encoding: 166 3590
OldEncoding: 3590
Width: 1005
Flags: HW
HStem: -13 80<313 331> 1 21G<789.015 886.195> 352 72<137 155> 568 67<137 142> 767 20G<789.015 886.195>
VStem: -21 93<495.635 546.485> 178 81<146 166> 215 71<491 510> 358 97<102 260 342 516> 445 81<652 667> 789 97<0.731178 14.7919 165 772>
Fore
358 343 m 1
 358 508 l 2
 358 534 362 555 370 572 c 0
 377 588 385 601 395 610 c 1
 432 635 l 2
 441 642 445 650 445 661 c 0
 445 674 438 689 423 705 c 1
 406 719 392 727 379 730 c 1
 282 665 l 1
 171 730 l 1
 145 724 120 707 96 679 c 1
 78 654 69 631 69 610 c 1
 92 626 l 2
 102 632 119 635 143 635 c 0
 185 633 219 620 244 597 c 1
 272 577 286 542 286 493 c 0
 286 450 271 416 240 389 c 0
 210 365 178 352 143 352 c 0
 95 352 56 370 25 405 c 0
 -6 443 -21 490 -21 546 c 0
 -21 579 -17 612 -8 646 c 0
 5 690 32 728 74 760 c 1
 114 788 150 802 180 802 c 1
 282 739 l 1
 374 802 l 1
 412 789 447 770 478 745 c 0
 511 721 526 690 526 654 c 0
 526 636 524 623 518 614 c 0
 507 600 499 590 492 584 c 0
 478 570 469 559 465 551 c 0
 459 541 455 525 455 502 c 2
 455 343 l 1
 509 339 558 326 601 306 c 1
 641 289 680 267 717 239 c 1
 745 215 769 190 789 165 c 1
 789 787 l 1
 886 787 l 1
 886 1 l 1
 789 1 l 1
 789 31 774 65 745 105 c 0
 712 148 670 183 620 211 c 1
 571 240 515 259 455 267 c 1
 455 120 l 2
 455 81 445 49 423 23 c 1
 400 -1 367 -13 326 -13 c 0
 278 -13 241 4 217 38 c 1
 191 70 178 110 178 156 c 0
 178 205 194 249 226 285 c 0
 256 322 300 341 358 343 c 1
282 89 m 1
 294 75 308 67 323 67 c 0
 347 67 358 81 358 107 c 2
 358 272 l 1
 326 272 301 261 284 239 c 1
 267 214 259 188 259 160 c 0
 259 128 267 104 282 89 c 1
143 568 m 0
 119 568 101 561 90 546 c 1
 77 534 72 517 72 496 c 0
 72 480 77 463 90 445 c 1
 101 431 119 424 143 424 c 0
 167 424 184 431 196 445 c 0
 209 461 215 478 215 496 c 0
 215 517 209 534 196 546 c 1
 184 561 167 568 143 568 c 0
EndSplineSet
MinimumDistance: x36,-1 
EndChar
StartChar: uni0E07
Encoding: 167 3591
OldEncoding: 3591
Width: 632
Flags: HW
HStem: -15 87<379 390> 513 71<355.835 383> 725 72<355.348 383>
VStem: 228 70<652 658> 415 97<98 514> 443 69<652 658>
DStem: 1.62012 493.765 77.3301 535.575 260.39 54.1953 339.49 98.2646
Fore
415 110 m 2
 415 522 l 1
 405 516 390 513 369 513 c 0
 324 513 290 528 265 557 c 0
 240 584 228 617 228 656 c 0
 228 696 240 730 265 758 c 1
 293 785 327 797 369 797 c 0
 397 797 422 791 446 779 c 0
 468 766 485 749 497 728 c 0
 507 709 512 684 512 654 c 2
 512 103 l 2
 512 65 501 36 478 15 c 0
 456 -5 426 -15 390 -15 c 0
 364 -15 340 -9 318 1 c 0
 291 16 272 34 260 54 c 2
 2 494 l 1
 77 536 l 1
 339 98 l 2
 349 81 363 72 381 72 c 0
 391 72 399 76 406 82 c 0
 412 88 415 98 415 110 c 2
369 725 m 0
 348 725 331 719 318 705 c 1
 304 688 298 672 298 656 c 0
 298 638 304 622 316 608 c 0
 329 592 347 584 369 584 c 0
 393 584 412 592 425 608 c 0
 437 622 443 638 443 656 c 0
 443 672 436 689 422 705 c 0
 408 719 391 725 369 725 c 0
EndSplineSet
MinimumDistance: x9,-1 
EndChar
StartChar: uni0E08
Encoding: 168 3592
OldEncoding: 3592
Width: 749
Flags: HW
HStem: -0 21G<532.635 629.815> 287 69<278 291> 497 77<278 296> 727 75<289 342>
VStem: 151 69<426 436> 533 97<-0.0259838 39.1554 320 560>
Fore
292 574 m 0
 340 574 380 558 412 525 c 0
 442 495 469 454 493 402 c 2
 533 320 l 1
 533 541 l 2
 533 599 513 644 473 676 c 0
 430 710 378 727 317 727 c 0
 214 729 131 686 69 599 c 1
 7 647 l 1
 29 686 68 722 125 755 c 1
 184 786 249 802 319 802 c 0
 377 802 431 791 480 771 c 0
 528 749 565 720 588 682 c 1
 616 643 630 596 630 541 c 2
 630 -0 l 1
 533 -0 l 1
 533 48 527 96 517 143 c 0
 506 185 492 230 473 280 c 1
 456 316 438 347 420 373 c 1
 414 359 403 342 385 322 c 1
 364 301 333 289 292 287 c 1
 251 287 217 301 193 329 c 1
 165 356 151 391 151 435 c 0
 151 476 164 510 190 534 c 1
 215 561 249 574 292 574 c 0
292 497 m 0
 268 497 250 490 239 477 c 0
 226 462 220 446 220 428 c 0
 220 410 227 394 241 380 c 1
 252 364 269 356 292 356 c 0
 314 356 331 363 343 377 c 0
 355 392 361 409 361 428 c 0
 361 448 356 464 345 477 c 0
 334 490 316 497 292 497 c 0
EndSplineSet
MinimumDistance: x13,-1 
EndChar
StartChar: uni0E09
Encoding: 169 3593
OldEncoding: 3593
Width: 852
Flags: HW
HStem: 1 21G<182.285 279.465> 267 69<123.085 140> 480 71<123.085 140> 725 77<361 395>
VStem: -5 71<402 420> 182 97<0.731251 16.1623 171 276> 209 70<402 420> 587 97<77 260 337 564> 761 73<146 172>
Fore
279 405 m 2
 279 170 l 1
 311 215 358 254 418 285 c 0
 478 315 534 333 587 339 c 1
 587 542 l 2
 587 601 568 646 531 676 c 1
 495 709 444 725 381 725 c 0
 328 725 280 712 235 685 c 0
 195 661 162 630 138 593 c 1
 76 641 l 1
 108 689 148 727 198 756 c 0
 254 786 315 802 381 802 c 0
 471 802 544 779 602 732 c 0
 657 688 684 625 684 542 c 2
 684 339 l 1
 733 330 771 310 798 279 c 1
 822 247 834 206 834 156 c 0
 834 104 820 64 791 36 c 0
 761 3 724 -13 679 -13 c 0
 652 -13 629 -5 613 12 c 0
 595 29 587 52 587 80 c 2
 587 262 l 1
 529 250 476 231 430 204 c 0
 380 174 343 141 319 105 c 0
 293 67 279 32 279 1 c 1
 182 1 l 1
 182 276 l 1
 174 270 159 267 138 267 c 0
 93 267 58 282 34 310 c 0
 8 339 -5 372 -5 410 c 0
 -5 450 7 483 32 510 c 0
 57 537 92 551 138 551 c 0
 181 551 215 537 240 510 c 0
 266 482 279 447 279 405 c 2
138 480 m 0
 114 480 96 473 85 459 c 0
 72 443 66 426 66 407 c 0
 66 390 72 373 85 357 c 0
 96 343 114 336 138 336 c 0
 162 336 180 343 191 357 c 1
 203 375 209 392 209 407 c 0
 209 426 203 444 191 459 c 0
 180 473 162 480 138 480 c 0
761 156 m 0
 761 183 755 207 743 230 c 1
 727 249 707 259 684 262 c 1
 684 84 l 2
 684 70 689 63 699 63 c 0
 716 63 731 72 743 91 c 0
 755 111 761 132 761 156 c 0
EndSplineSet
MinimumDistance: x16,-1 
EndChar
StartChar: uni0E0A
Encoding: 170 3594
OldEncoding: 3594
Width: 803
Flags: HW
HStem: -3 84<199 292 389 527> 461 73<127 150>
VStem: -1 79<606.45 633.57> 292 97<81 366> 586 97<124.774 474>
Fore
573 629 m 1
 582 629 595 626 610 620 c 0
 626 613 642 598 658 574 c 0
 675 547 683 512 683 470 c 2
 683 148 l 2
 683 85 673 44 652 26 c 0
 628 7 583 -3 515 -3 c 2
 195 -3 l 1
 195 81 l 1
 292 81 l 1
 292 358 l 2
 292 389 295 411 301 426 c 0
 305 437 315 454 330 476 c 0
 345 496 356 513 362 527 c 0
 369 543 374 564 376 590 c 1
 376 630 364 663 339 687 c 0
 315 712 284 724 246 724 c 1
 211 719 l 1
 224 717 241 706 262 687 c 0
 284 668 295 635 292 590 c 0
 292 550 277 518 246 495 c 0
 217 472 177 461 128 461 c 1
 42 472 -1 530 -1 634 c 1
 5 683 33 724 82 754 c 0
 131 784 180 799 230 799 c 0
 263 799 297 792 332 779 c 0
 360 769 385 752 409 728 c 0
 428 710 442 687 452 660 c 1
 477 660 514 672 561 696 c 0
 613 721 660 770 703 843 c 1
 771 799 l 1
 745 743 712 702 672 678 c 1
 625 651 591 635 573 629 c 1
464 590 m 1
 464 560 461 539 454 525 c 0
 443 499 434 482 429 474 c 0
 412 449 402 430 399 419 c 0
 393 402 389 377 389 344 c 2
 389 81 l 1
 515 81 l 2
 546 81 566 86 575 95 c 0
 582 102 586 120 586 148 c 2
 586 451 l 2
 586 543 545 590 464 590 c 1
149 678 m 0
 125 678 107 671 96 657 c 0
 84 641 78 625 78 606 c 0
 78 588 84 572 96 558 c 1
 106 542 124 534 149 534 c 0
 174 534 191 542 202 558 c 1
 215 573 221 589 221 606 c 0
 221 624 215 641 202 657 c 0
 191 671 173 678 149 678 c 0
EndSplineSet
MinimumDistance: x3,-1 y7,9 x9,7 x9,8 
EndChar
StartChar: uni0E0B
Encoding: 171 3595
OldEncoding: 3595
Width: 855
Flags: HW
HStem: -4 84<249 344 441 587> 348 72<121 139> 563 67<121 129>
VStem: -38 93<491.02 541.87> 199 75<486 505> 344 97<80 509> 638 97<139 492>
Fore
514 672 m 1
 547 681 585 699 627 725 c 0
 677 754 720 801 754 864 c 1
 826 818 l 1
 807 781 782 749 752 723 c 0
 727 701 699 682 669 667 c 0
 637 651 619 642 615 641 c 1
 634 639 660 627 691 605 c 1
 721 583 735 537 735 468 c 2
 735 146 l 2
 735 84 725 43 704 24 c 0
 683 5 637 -4 567 -4 c 2
 247 -4 l 1
 247 80 l 1
 344 80 l 1
 344 503 l 2
 344 539 351 565 363 581 c 0
 376 598 393 614 417 630 c 0
 426 637 430 645 430 656 c 0
 430 670 423 684 408 700 c 1
 389 715 375 723 363 725 c 1
 269 661 l 1
 157 725 l 1
 124 718 100 701 83 674 c 1
 64 650 55 627 55 605 c 1
 57 607 64 613 79 621 c 0
 89 627 105 630 130 630 c 0
 170 628 203 616 231 595 c 0
 259 572 274 536 274 489 c 0
 274 447 258 412 227 385 c 0
 197 360 163 348 127 348 c 0
 80 348 40 365 9 401 c 0
 -22 437 -38 484 -38 542 c 0
 -38 582 -32 615 -21 641 c 1
 -9 687 17 725 60 755 c 0
 100 783 136 797 167 797 c 1
 269 734 l 1
 358 797 l 1
 395 789 422 777 441 760 c 0
 467 740 485 720 495 702 c 1
 514 672 l 1
 514 672 l 1
505 605 m 1
 479 579 l 1
 465 570 456 560 450 549 c 0
 444 539 441 522 441 498 c 2
 441 80 l 1
 567 80 l 2
 599 80 618 84 625 93 c 1
 634 100 638 118 638 146 c 2
 638 468 l 2
 638 560 594 605 505 605 c 1
127 563 m 0
 105 563 88 556 76 542 c 1
 62 528 55 511 55 491 c 0
 55 473 62 457 76 442 c 1
 87 427 104 420 127 420 c 0
 151 420 169 427 180 440 c 1
 192 458 199 475 199 491 c 0
 199 511 192 528 180 542 c 0
 169 556 151 563 127 563 c 0
EndSplineSet
MinimumDistance: x8,-1 y12,14 x14,12 x14,13 
EndChar
StartChar: uni0E0C
Encoding: 172 3596
OldEncoding: 3596
Width: 1039
Flags: HW
HStem: -13 71<200 230> 1 21G<822.315 919.495> 200 72<200 218> 730 72<308 356> 767 20G<822.315 919.495>
VStem: 71 71<117.56 143> 71 97<262 436> 286 68<117.194 143> 390 68<128 151> 510 97<92 202 288 596> 822 97<142 772>
Fore
168 415 m 2
 168 262 l 1
 174 269 190 272 217 272 c 0
 258 272 292 258 318 230 c 1
 342 201 354 168 354 131 c 0
 354 92 342 59 318 31 c 0
 293 2 260 -13 217 -13 c 0
 175 -13 141 0 113 27 c 0
 85 52 71 86 71 131 c 2
 71 410 l 2
 71 500 103 557 168 579 c 1
 103 619 l 1
 82 629 44 643 -10 658 c 1
 7 682 43 713 98 749 c 0
 154 784 227 802 318 802 c 0
 511 802 607 728 607 579 c 2
 607 288 l 1
 640 281 679 265 723 239 c 1
 767 210 800 178 822 142 c 1
 822 787 l 1
 919 787 l 1
 919 1 l 1
 822 1 l 1
 813 23 802 47 788 72 c 1
 772 95 748 121 718 149 c 0
 690 174 652 194 607 211 c 1
 607 89 l 2
 607 21 577 -13 515 -13 c 0
 476 -13 445 3 422 33 c 0
 400 65 390 102 390 144 c 0
 390 183 400 217 422 246 c 0
 442 273 471 288 510 290 c 1
 510 579 l 2
 510 629 494 667 462 692 c 0
 430 717 387 730 332 730 c 0
 261 730 193 710 128 672 c 1
 141 668 165 657 202 639 c 0
 235 624 267 603 297 575 c 1
 285 575 270 572 253 566 c 0
 236 560 217 545 195 522 c 1
 177 495 168 460 168 415 c 2
510 93 m 1
 510 223 l 1
 475 215 458 186 458 135 c 0
 458 119 462 105 471 93 c 0
 478 81 486 75 493 75 c 0
 503 75 508 81 510 93 c 1
214 58 m 0
 238 58 256 65 267 80 c 0
 280 94 286 111 286 131 c 0
 286 147 280 163 267 179 c 1
 253 193 235 200 214 200 c 0
 192 200 175 193 164 179 c 1
 149 165 142 149 142 131 c 0
 142 111 148 94 161 80 c 0
 175 65 193 58 214 58 c 0
EndSplineSet
MinimumDistance: x20,-1 
EndChar
StartChar: uni0E0D
Encoding: 173 3597
OldEncoding: 3597
Width: 1039
Flags: HW
HStem: -128 73<527.738 539.801 539.838 550> 9 71<200 230> 23 84<420 502 606 774> 221 72<200 218> 751 72<308 356>
VStem: 71 71<140 158> 71 97<284 446> 286 68<140 158> 404 71<-198 -178> 510 97<106 622> 603 73<-198 -178> 822 97<-84 -66 151 798>
Fore
919 -59 m 1
 919 -127 906 -185 880 -232 c 1
 855 -281 820 -315 776 -336 c 1
 732 -359 687 -371 639 -371 c 0
 578 -371 523 -354 475 -320 c 0
 428 -286 404 -245 404 -196 c 0
 404 -159 416 -125 438 -95 c 0
 461 -66 497 -53 545 -55 c 0
 587 -55 619 -68 643 -95 c 0
 665 -121 676 -152 676 -190 c 0
 676 -213 671 -235 661 -255 c 0
 651 -273 636 -288 617 -302 c 1
 665 -302 712 -286 758 -255 c 0
 801 -226 822 -161 822 -59 c 1
 919 -59 l 1
71 152 m 2
 71 432 l 2
 71 522 103 578 168 601 c 1
 103 641 l 1
 82 651 44 664 -10 680 c 1
 7 704 43 734 98 771 c 0
 154 806 227 823 318 823 c 0
 511 823 607 750 607 601 c 2
 607 107 l 1
 751 107 l 2
 783 107 802 111 809 120 c 1
 818 126 822 144 822 173 c 2
 822 809 l 1
 919 809 l 1
 919 173 l 2
 919 130 915 97 906 76 c 0
 897 55 881 41 857 34 c 0
 832 26 797 23 751 23 c 2
 413 23 l 1
 413 107 l 1
 510 107 l 1
 510 601 l 2
 510 651 494 688 462 714 c 0
 430 739 387 751 332 751 c 0
 261 751 193 732 128 694 c 1
 141 690 165 679 202 661 c 0
 235 646 267 624 297 597 c 1
 285 597 270 594 253 588 c 0
 236 582 217 567 195 543 c 1
 177 517 168 482 168 437 c 2
 168 284 l 1
 174 290 190 293 217 293 c 0
 258 293 292 280 318 252 c 1
 342 223 354 189 354 152 c 0
 354 114 342 81 318 53 c 0
 293 24 260 9 217 9 c 0
 175 9 141 22 113 49 c 0
 85 73 71 108 71 152 c 2
540 -253 m 0
 559 -253 575 -247 586 -234 c 0
 597 -223 603 -209 603 -190 c 0
 603 -173 597 -159 586 -147 c 0
 575 -134 559 -128 540 -128 c 0
 522 -128 506 -134 493 -147 c 0
 481 -159 475 -173 475 -190 c 0
 475 -207 481 -222 493 -234 c 0
 506 -247 522 -253 540 -253 c 0
214 80 m 0
 238 80 256 87 267 102 c 0
 280 116 286 133 286 152 c 0
 286 169 280 185 267 201 c 1
 253 215 235 221 214 221 c 0
 192 221 175 215 164 201 c 1
 149 187 142 171 142 152 c 0
 142 133 148 116 161 102 c 0
 175 87 193 80 214 80 c 0
EndSplineSet
MinimumDistance: x0,-1 y32,34 x34,32 x34,33 
EndChar
StartChar: uni0E0E
Encoding: 174 3598
OldEncoding: 3598
Width: 885
Flags: HW
HStem: -377 90<237 239 240.195 255.929> -141 85<253 279> 9 71<122 139> 222 72<117 139> 740 84<430 471>
VStem: -10 69<146 154> 81 90<-223 -214> 178 97<293 423> 205 70<146 154> 671 95<-243 583>
Fore
178 284 m 1
 178 414 l 2
 178 444 183 471 192 495 c 0
 199 519 210 536 224 546 c 0
 238 557 253 566 271 573 c 1
 261 582 240 594 207 611 c 0
 176 629 138 639 94 641 c 1
 116 673 158 711 220 756 c 0
 284 802 361 824 453 824 c 0
 545 824 620 802 677 759 c 0
 736 713 766 650 766 569 c 2
 766 -373 l 1
 671 -373 l 1
 641 -333 604 -296 562 -262 c 0
 537 -241 506 -222 470 -202 c 1
 459 -243 432 -283 388 -322 c 0
 344 -361 295 -379 240 -377 c 0
 193 -377 154 -362 125 -331 c 0
 96 -302 81 -263 81 -213 c 0
 83 -162 102 -122 136 -95 c 1
 172 -69 216 -56 268 -56 c 0
 310 -56 358 -64 412 -81 c 1
 423 -41 l 2
 426 -30 429 -9 432 23 c 1
 520 5 l 1
 517 -29 514 -54 509 -70 c 1
 497 -118 l 1
 531 -135 567 -156 604 -183 c 0
 639 -210 662 -230 671 -244 c 1
 671 569 l 2
 671 606 660 636 640 659 c 1
 622 685 597 705 564 719 c 0
 533 733 496 740 455 740 c 0
 372 740 300 715 240 664 c 1
 252 661 275 653 309 639 c 0
 341 624 372 605 399 579 c 1
 377 573 352 559 324 537 c 0
 291 514 275 474 275 418 c 2
 275 148 l 2
 275 108 263 76 238 51 c 0
 212 23 177 9 132 9 c 0
 89 9 55 23 30 51 c 0
 4 79 -10 113 -10 153 c 0
 -10 192 3 225 28 252 c 0
 53 280 88 294 132 294 c 0
 152 294 167 291 178 284 c 1
302 -275 m 0
 326 -264 344 -246 358 -220 c 0
 371 -197 381 -177 386 -162 c 1
 339 -148 300 -141 268 -141 c 0
 204 -141 171 -165 171 -213 c 0
 171 -225 173 -236 178 -248 c 0
 189 -274 215 -287 256 -287 c 0
 270 -287 285 -283 302 -275 c 0
132 80 m 0
 155 80 173 88 187 102 c 0
 199 116 205 133 205 153 c 0
 205 169 199 186 187 201 c 1
 173 215 155 222 132 222 c 0
 109 222 92 215 81 201 c 0
 66 185 59 169 59 153 c 0
 59 134 66 118 81 104 c 1
 91 88 108 80 132 80 c 0
EndSplineSet
MinimumDistance: x10,-1 
EndChar
StartChar: uni0E0F
Encoding: 175 3599
OldEncoding: 3599
Width: 885
Flags: HW
HStem: -178 76<203 231> 9 71<118.017 135> 222 72<117 135> 740 84<432 471>
VStem: -10 69<146 154> 178 97<293 423> 205 70<146 154> 671 95<-257 583>
DStem: 559.93 -146.575 564.45 -243.755 458.23 -252.795 448.06 -377.095
Fore
178 284 m 1
 178 414 l 2
 178 444 183 471 192 495 c 0
 199 519 210 536 224 546 c 0
 238 557 253 566 271 573 c 1
 261 582 240 594 207 611 c 0
 176 629 138 639 94 641 c 1
 116 673 158 711 220 756 c 0
 284 801 361 824 453 824 c 0
 545 824 620 802 677 759 c 0
 736 713 766 650 766 569 c 2
 766 -373 l 1
 671 -373 l 1
 564 -244 l 1
 448 -377 l 1
 434 -353 421 -332 406 -315 c 0
 387 -292 374 -275 366 -266 c 1
 354 -286 336 -309 311 -335 c 0
 284 -363 248 -377 203 -377 c 0
 163 -377 131 -363 108 -335 c 1
 83 -310 71 -273 71 -222 c 1
 77 -182 91 -152 115 -132 c 0
 140 -112 172 -102 212 -102 c 0
 253 -102 294 -115 335 -141 c 1
 355 -72 l 1
 366 -40 372 -9 375 23 c 1
 458 5 l 1
 456 -12 448 -48 434 -100 c 0
 423 -144 412 -176 402 -195 c 1
 405 -195 424 -214 458 -253 c 1
 560 -147 l 1
 671 -257 l 1
 671 569 l 2
 671 606 660 636 640 659 c 1
 622 685 597 705 564 719 c 0
 533 733 496 740 455 740 c 0
 372 740 300 715 240 664 c 1
 252 661 275 653 309 639 c 0
 341 624 372 604 399 579 c 1
 377 573 352 559 324 537 c 0
 291 514 275 474 275 418 c 2
 275 148 l 2
 275 108 263 76 238 51 c 0
 212 23 177 9 132 9 c 0
 89 9 55 23 30 51 c 0
 4 79 -10 113 -10 153 c 0
 -10 192 3 225 28 252 c 0
 53 280 88 294 132 294 c 0
 152 294 167 291 178 284 c 1
245 -289 m 0
 257 -281 270 -266 284 -246 c 0
 295 -230 302 -218 305 -209 c 1
 279 -188 251 -178 220 -178 c 0
 183 -178 161 -192 154 -220 c 1
 154 -272 173 -299 212 -301 c 0
 224 -301 235 -297 245 -289 c 0
132 80 m 0
 155 80 173 88 187 102 c 0
 199 116 205 133 205 153 c 0
 205 169 199 186 187 201 c 1
 173 215 155 222 132 222 c 0
 109 222 92 215 81 201 c 0
 66 185 59 169 59 153 c 0
 59 134 66 118 81 104 c 1
 91 88 108 80 132 80 c 0
EndSplineSet
MinimumDistance: x10,-1 
EndChar
StartChar: uni0E10
Encoding: 176 3600
OldEncoding: 3600
Width: 702
Flags: HW
HStem: -288 20G<487.9 496.94> -270 55<458 472> -245 63<94 117> -104 59<458 485> 225 70<230.949 261> 438 71<231.388 256> 679 85<574 596> 748 79<307 341>
VStem: -12 62<-309 -288> 104 70<360 378> 358 59<-168 -150> 486 97<218 426> 527 55<-168 -150>
Fore
245 509 m 0
 273 509 301 501 331 484 c 1
 358 466 378 443 391 417 c 2
 486 218 l 1
 486 408 l 2
 486 466 475 506 455 525 c 1
 438 546 403 564 351 582 c 1
 301 596 245 608 183 618 c 1
 127 630 84 637 53 639 c 1
 81 690 119 735 166 774 c 1
 212 809 262 827 316 827 c 0
 350 827 376 824 395 819 c 2
 474 794 l 1
 543 770 l 2
 560 766 577 764 594 764 c 0
 621 764 648 770 675 783 c 1
 694 701 l 1
 656 686 621 679 590 679 c 0
 569 679 550 681 534 686 c 2
 460 710 l 1
 382 739 l 2
 363 745 342 748 320 748 c 0
 299 748 275 742 247 730 c 1
 223 715 210 704 208 697 c 1
 254 686 l 1
 338 662 l 1
 414 644 l 2
 491 624 537 599 555 567 c 1
 573 538 583 486 583 412 c 2
 583 26 l 1
 468 26 l 1
 460 70 445 120 421 176 c 0
 395 236 376 275 365 295 c 1
 359 275 344 258 320 244 c 0
 298 231 273 225 245 225 c 0
 201 225 166 239 141 266 c 0
 116 296 104 329 104 366 c 0
 104 408 116 442 141 468 c 0
 166 495 201 509 245 509 c 0
488 -317 m 1
 495 -294 l 1
 497 -268 l 1
 488 -268 l 1
 472 -270 l 1
 437 -270 409 -259 388 -238 c 0
 368 -217 358 -192 358 -162 c 0
 358 -135 369 -108 391 -80 c 1
 412 -57 439 -45 472 -45 c 0
 505 -45 532 -56 552 -76 c 0
 573 -96 583 -125 583 -162 c 2
 583 -299 l 2
 583 -314 581 -328 576 -338 c 1
 569 -348 561 -355 550 -361 c 1
 516 -383 l 1
 448 -423 l 1
 360 -365 l 1
 268 -418 l 1
 222 -335 l 1
 197 -387 155 -412 97 -409 c 0
 30 -407 -6 -374 -12 -310 c 0
 -12 -290 l 0
 -12 -260 0 -235 25 -213 c 0
 48 -192 76 -182 108 -182 c 0
 135 -182 165 -192 196 -210 c 1
 199 -201 203 -184 210 -160 c 1
 214 -134 217 -99 217 -56 c 1
 289 -56 l 1
 289 -136 277 -206 252 -266 c 1
 289 -321 l 1
 316 -308 l 1
 360 -282 l 1
 453 -340 l 1
 488 -317 l 1
472 -215 m 0
 489 -215 503 -210 514 -199 c 1
 523 -186 527 -173 527 -160 c 0
 527 -145 523 -131 514 -120 c 1
 503 -110 489 -104 472 -104 c 0
 452 -104 439 -110 433 -120 c 1
 422 -131 417 -144 417 -160 c 0
 417 -175 422 -188 433 -199 c 1
 439 -210 452 -215 472 -215 c 0
245 295 m 0
 269 295 287 301 298 315 c 0
 310 332 316 349 316 366 c 0
 316 385 310 402 298 417 c 0
 286 431 268 438 245 438 c 0
 223 438 206 431 194 417 c 0
 181 403 174 386 174 366 c 0
 174 347 181 331 194 317 c 1
 205 302 222 295 245 295 c 0
106 -245 m 0
 86 -245 72 -251 64 -261 c 0
 55 -273 50 -285 50 -299 c 0
 50 -311 55 -321 64 -330 c 1
 72 -342 86 -347 106 -347 c 0
 120 -347 133 -342 143 -332 c 0
 152 -325 161 -315 168 -303 c 1
 178 -282 l 1
 177 -279 168 -272 152 -259 c 0
 141 -250 126 -245 106 -245 c 0
EndSplineSet
MinimumDistance: x28,-1 
EndChar
StartChar: uni0E11
Encoding: 177 3601
OldEncoding: 3601
Width: 1032
Flags: HW
HStem: -0 21G<338.95 436.13 815.81 912.99> 351 72<116 134> 567 67<116 125> 698 88<756 766>
VStem: -43 93<494.855 545.705> 193 75<490 509> 339 97<14 32 378 518> 425 84<651 666> 816 97<14 630>
Fore
339 -0 m 1
 339 507 l 2
 339 536 342 557 348 572 c 0
 355 583 363 595 374 607 c 1
 411 634 l 2
 420 641 425 649 425 660 c 0
 425 673 417 688 402 704 c 1
 384 719 369 727 358 729 c 1
 263 664 l 1
 151 729 l 1
 119 722 94 705 78 678 c 1
 59 654 50 631 50 609 c 1
 52 611 59 617 73 625 c 0
 83 631 100 634 124 634 c 0
 164 632 198 620 226 599 c 0
 254 575 268 540 268 493 c 0
 268 450 252 416 221 389 c 0
 191 364 158 351 122 351 c 0
 75 351 35 369 3 404 c 0
 -28 441 -43 488 -43 546 c 0
 -43 586 -37 619 -26 645 c 1
 -15 690 12 728 54 759 c 0
 95 787 131 801 162 801 c 1
 263 738 l 1
 353 801 l 1
 392 788 428 769 460 745 c 0
 492 719 509 688 509 653 c 0
 509 635 505 622 499 614 c 2
 473 583 l 1
 464 575 454 564 445 550 c 0
 439 540 436 524 436 502 c 2
 436 377 l 1
 447 407 467 453 494 516 c 0
 518 570 557 630 610 696 c 0
 658 756 710 786 765 786 c 0
 814 786 851 769 876 733 c 0
 901 700 913 659 913 609 c 2
 913 -0 l 1
 816 -0 l 1
 816 609 l 2
 816 668 797 698 758 698 c 0
 730 698 699 675 666 627 c 0
 624 570 589 509 559 444 c 1
 519 363 490 286 471 212 c 1
 448 136 436 65 436 -0 c 1
 339 -0 l 1
122 567 m 0
 99 567 82 560 71 546 c 1
 57 532 50 515 50 495 c 0
 50 477 57 461 71 446 c 1
 82 431 99 423 122 423 c 0
 146 423 164 430 175 444 c 1
 187 462 193 479 193 495 c 0
 193 514 187 531 175 546 c 0
 164 560 146 567 122 567 c 0
EndSplineSet
MinimumDistance: x36,-1 
EndChar
StartChar: uni0E12
Encoding: 178 3602
OldEncoding: 3602
Width: 1098
Flags: HW
HStem: 1 21G<124.465 221.645 883.825 978.745> 528 71<327 345> 767 20G<883.825 978.745>
VStem: -8 86<498 516> 189 72<450 468> 405 69<450 468> 449 67<130 147> 569 97<92 196 288 560> 884 95<142 772>
DStem: 226.165 720.505 217.125 801.865 305.265 669.655 351.595 711.465 482.675 801.865 478.155 720.505 351.595 711.465 351.595 636.885
Fore
569 290 m 1
 569 522 l 2
 569 576 563 616 553 641 c 0
 543 666 518 693 478 721 c 1
 352 637 l 1
 305 670 l 1
 226 721 l 1
 127 670 78 597 78 502 c 0
 78 437 102 365 149 285 c 0
 180 232 196 197 196 179 c 1
 212 212 230 243 249 270 c 0
 268 294 282 311 293 320 c 1
 260 330 235 347 217 374 c 1
 198 398 189 426 189 459 c 0
 189 499 201 532 226 559 c 0
 252 586 287 599 332 599 c 0
 378 599 412 585 436 557 c 0
 461 527 474 493 474 454 c 0
 474 434 470 415 462 396 c 0
 456 380 445 366 432 352 c 2
 392 310 l 1
 361 274 335 242 317 213 c 0
 292 180 273 148 259 116 c 0
 241 79 228 41 222 1 c 1
 124 1 l 1
 135 17 140 38 140 63 c 0
 140 82 132 118 115 170 c 0
 112 179 98 210 74 262 c 1
 46 311 26 353 14 389 c 0
 -1 428 -8 470 -8 517 c 0
 -5 580 17 636 60 685 c 0
 101 734 153 772 217 802 c 1
 352 711 l 1
 483 802 l 1
 537 775 576 750 601 725 c 0
 626 699 643 671 652 641 c 0
 661 612 666 572 666 522 c 2
 666 288 l 1
 699 282 738 265 784 239 c 1
 827 210 860 178 884 142 c 1
 884 787 l 1
 979 787 l 1
 979 1 l 1
 884 1 l 1
 830 111 758 181 666 211 c 1
 666 89 l 2
 666 21 635 -13 573 -13 c 0
 535 -13 505 3 483 33 c 0
 460 63 449 100 449 144 c 0
 449 184 459 218 480 246 c 0
 501 273 530 288 569 290 c 1
332 528 m 0
 311 528 293 522 279 508 c 1
 267 490 261 473 261 456 c 0
 261 440 267 423 279 407 c 0
 292 392 310 385 332 385 c 0
 356 385 374 392 385 405 c 0
 398 420 405 437 405 456 c 0
 405 476 398 493 385 508 c 0
 374 522 356 528 332 528 c 0
569 93 m 1
 569 223 l 1
 533 215 516 186 516 135 c 0
 516 120 519 106 527 93 c 1
 537 81 545 75 553 75 c 0
 561 75 566 81 569 93 c 1
EndSplineSet
MinimumDistance: x41,-1 
EndChar
StartChar: uni0E13
Encoding: 179 3603
OldEncoding: 3603
Width: 1066
Flags: HW
HStem: -15 78<897 916> -13 71<192 222> 1 21G<502.57 599.75> 200 72<192 210> 730 72<300 348> 767 20G<800.89 898.07>
VStem: 63 71<117.671 141> 63 97<262 434> 278 68<117.306 141> 503 97<171 594> 801 97<78 242 339 786> 977 71<144 180>
Fore
63 131 m 2
 63 410 l 2
 63 500 95 557 160 579 c 1
 95 619 l 1
 74 629 37 643 -18 658 c 1
 -1 683 35 713 90 749 c 0
 146 784 219 802 310 802 c 0
 503 802 600 728 600 579 c 2
 600 170 l 1
 653 254 720 309 801 334 c 1
 801 787 l 1
 898 787 l 1
 898 341 l 1
 947 334 984 316 1009 288 c 0
 1035 257 1048 214 1048 160 c 0
 1048 104 1033 61 1002 31 c 1
 973 0 938 -15 898 -15 c 0
 869 -15 846 -7 829 8 c 0
 810 23 801 45 801 72 c 2
 801 255 l 1
 745 235 700 196 664 140 c 1
 629 87 608 41 600 1 c 1
 503 1 l 1
 503 579 l 2
 503 629 486 667 454 692 c 0
 422 717 379 730 324 730 c 0
 253 730 185 710 121 672 c 1
 133 668 157 657 194 639 c 0
 227 624 259 603 289 575 c 1
 277 575 262 572 245 566 c 0
 228 560 209 545 187 522 c 1
 169 495 160 460 160 416 c 2
 160 262 l 1
 166 269 182 272 209 272 c 0
 250 272 284 258 310 230 c 1
 334 201 346 168 346 131 c 0
 346 92 334 59 310 31 c 0
 286 2 252 -13 209 -13 c 0
 167 -13 133 0 105 27 c 0
 77 52 63 86 63 131 c 2
898 89 m 2
 898 72 904 63 916 63 c 0
 931 63 944 72 956 91 c 1
 970 106 977 129 977 160 c 0
 977 224 951 260 898 268 c 1
 898 89 l 2
207 58 m 0
 231 58 248 66 260 80 c 0
 272 94 278 111 278 131 c 0
 278 147 272 164 260 179 c 1
 245 193 228 200 207 200 c 0
 184 200 167 193 156 179 c 1
 141 165 134 149 134 131 c 0
 134 111 141 94 153 80 c 0
 167 66 185 58 207 58 c 0
EndSplineSet
MinimumDistance: x14,-1 
EndChar
StartChar: uni0E14
Encoding: 180 3604
OldEncoding: 3604
Width: 803
Flags: HW
HStem: -0 21G<142.363 239.543 586.453 683.634> 527 71<336.198 365> 733 72<347 403>
VStem: 207 72<446 464> 423 69<446 464> 586 97<14 544>
Fore
98 512 m 0
 96 445 119 371 167 289 c 0
 195 241 209 201 209 169 c 1
 232 214 252 245 267 263 c 2
 311 319 l 1
 278 328 253 346 235 373 c 1
 216 397 207 425 207 458 c 0
 207 498 219 531 244 558 c 0
 270 585 305 598 350 598 c 0
 395 598 430 584 454 556 c 0
 479 526 492 492 492 453 c 0
 492 433 488 414 480 395 c 0
 473 379 463 365 450 351 c 2
 410 309 l 1
 379 273 353 241 334 212 c 0
 310 179 291 147 277 115 c 0
 259 78 246 40 240 -0 c 1
 142 -0 l 1
 153 16 158 37 158 62 c 0
 158 81 150 117 133 169 c 0
 124 193 110 224 89 263 c 0
 64 309 45 351 34 391 c 1
 17 434 10 476 12 516 c 0
 15 593 47 661 110 722 c 0
 168 777 254 805 369 805 c 0
 579 805 683 710 683 521 c 2
 683 -0 l 1
 586 -0 l 1
 586 525 l 2
 586 586 573 636 545 675 c 0
 518 714 460 733 369 733 c 0
 292 733 228 712 177 671 c 0
 125 627 98 574 98 512 c 0
350 527 m 0
 328 527 311 521 297 507 c 1
 285 489 279 472 279 455 c 0
 279 438 285 422 297 406 c 0
 310 391 328 384 350 384 c 0
 374 384 392 391 403 404 c 0
 416 419 423 436 423 455 c 0
 423 475 416 492 403 507 c 0
 392 521 374 527 350 527 c 0
EndSplineSet
MinimumDistance: x25,-1 
EndChar
StartChar: uni0E15
Encoding: 181 3605
OldEncoding: 3605
Width: 803
Flags: HW
HStem: -0 21G<142.47 239.65 586.56 683.74> 528 71<345 363>
VStem: 10 86<494 516> 207 72<446 464> 423 69<446 464> 587 97<14 559>
DStem: 244.17 719.725 235.13 801.085 323.27 668.875 369.6 710.685 500.68 801.085 496.16 719.725 369.6 710.685 369.6 636.105
Fore
214 178 m 1
 230 212 248 242 267 269 c 0
 286 294 300 311 311 320 c 1
 278 329 253 346 235 373 c 1
 216 397 207 426 207 459 c 0
 207 498 219 531 244 558 c 0
 270 585 305 599 350 599 c 0
 396 599 430 585 454 556 c 0
 479 526 492 492 492 453 c 0
 492 433 488 414 480 395 c 0
 474 380 463 365 450 351 c 2
 410 310 l 1
 379 273 353 241 335 212 c 0
 310 179 291 147 277 115 c 0
 259 78 246 40 240 -0 c 1
 142 -0 l 1
 153 16 158 37 158 62 c 0
 158 82 150 117 133 169 c 0
 130 178 116 209 92 261 c 1
 64 310 44 352 32 389 c 0
 17 427 10 470 10 516 c 0
 13 579 35 635 78 685 c 0
 119 733 171 772 235 801 c 1
 370 711 l 1
 501 801 l 1
 555 775 594 749 619 724 c 0
 644 698 661 670 670 641 c 0
 679 611 684 571 684 521 c 2
 684 -0 l 1
 587 -0 l 1
 587 521 l 2
 587 575 581 615 571 641 c 0
 561 665 536 692 496 720 c 1
 370 636 l 1
 323 669 l 1
 244 720 l 1
 145 669 96 597 96 502 c 0
 96 436 120 364 167 285 c 0
 198 231 214 196 214 178 c 1
350 528 m 0
 329 528 311 521 297 507 c 1
 285 489 279 472 279 455 c 0
 279 439 285 423 297 407 c 0
 310 392 328 384 350 384 c 0
 374 384 392 391 404 404 c 0
 416 420 423 436 423 455 c 0
 423 475 416 492 404 507 c 0
 392 521 374 528 350 528 c 0
EndSplineSet
MinimumDistance: x27,-1 
EndChar
StartChar: uni0E16
Encoding: 182 3606
OldEncoding: 3606
Width: 795
Flags: HW
HStem: -13 71<215 233> 1 21G<578.43 675.61> 200 72<215 233> 718 84<334 389>
VStem: 86 71<117.56 132> 86 97<262 404> 300 68<117.194 132> 578 97<2 564>
Fore
86 131 m 2
 86 392 l 2
 86 436 94 472 111 498 c 1
 130 522 153 540 178 551 c 1
 166 562 145 574 117 588 c 0
 86 606 48 617 4 619 c 1
 25 650 67 688 128 734 c 0
 189 779 267 802 360 802 c 0
 417 802 470 792 521 774 c 0
 568 756 605 728 634 688 c 0
 662 649 675 601 675 546 c 2
 675 1 l 1
 578 1 l 1
 578 546 l 2
 578 583 568 614 548 637 c 1
 530 663 505 683 472 697 c 0
 441 711 404 718 363 718 c 0
 280 718 208 693 148 641 c 1
 160 639 183 631 217 617 c 0
 249 602 279 582 307 557 c 1
 285 551 259 537 232 515 c 0
 199 491 183 452 183 396 c 2
 183 262 l 1
 189 269 205 272 232 272 c 0
 273 272 307 258 333 230 c 1
 357 201 368 168 368 131 c 0
 368 92 357 59 333 31 c 0
 308 2 274 -13 232 -13 c 0
 190 -13 155 0 128 27 c 0
 100 52 86 86 86 131 c 2
229 58 m 0
 253 58 271 65 282 80 c 0
 294 94 300 111 300 131 c 0
 300 147 294 163 282 179 c 1
 268 193 250 200 229 200 c 0
 207 200 190 193 178 179 c 1
 164 165 157 149 157 131 c 0
 157 111 163 94 176 80 c 0
 190 65 207 58 229 58 c 0
EndSplineSet
MinimumDistance: x10,-1 
EndChar
StartChar: uni0E17
Encoding: 183 3607
OldEncoding: 3607
Width: 874
Flags: HW
HStem: 0 21G<186.77 283.95 663.63 760.81> 512 69<128.238 144> 699 88<606 614> 725 72<127.533 144>
VStem: -1 71<641.564 657> 187 97<15 33 378 514> 214 70<640.814 657> 664 97<15 629>
Fore
187 0 m 1
 187 519 l 1
 175 514 161 512 143 512 c 0
 98 512 63 527 39 556 c 1
 12 584 -1 617 -1 656 c 0
 -1 693 12 726 39 755 c 0
 64 783 99 797 143 797 c 0
 168 797 193 790 217 778 c 0
 238 766 255 749 268 727 c 0
 279 708 284 683 284 653 c 2
 284 378 l 1
 337 493 l 1
 358 544 383 591 412 634 c 0
 443 681 475 718 507 745 c 0
 537 773 573 787 613 787 c 0
 647 787 674 778 695 762 c 1
 716 743 733 720 744 694 c 0
 755 671 761 643 761 609 c 2
 761 0 l 1
 664 0 l 1
 664 609 l 2
 664 669 645 699 608 699 c 0
 582 699 551 675 516 627 c 0
 475 575 438 514 406 444 c 0
 366 361 337 284 319 213 c 1
 296 136 284 65 284 0 c 1
 187 0 l 1
143 725 m 0
 119 725 101 718 90 704 c 0
 77 688 70 671 70 653 c 0
 70 636 77 620 90 605 c 1
 100 589 118 581 143 581 c 0
 168 581 185 589 196 605 c 1
 208 619 214 635 214 653 c 0
 214 671 208 688 196 704 c 0
 185 718 167 725 143 725 c 0
EndSplineSet
MinimumDistance: x17,-1 
EndChar
StartChar: uni0E18
Encoding: 184 3608
OldEncoding: 3608
Width: 707
Flags: HW
HStem: -0 84<67 159 253 428> 658 78<547 575> 729 72<252 293>
VStem: 159 95<84 496> 477 97<142 416>
Fore
144 662 m 1
 176 661 235 651 320 634 c 0
 395 618 461 587 517 541 c 1
 541 524 557 503 565 479 c 0
 571 458 574 426 574 384 c 2
 574 150 l 2
 574 87 563 46 541 28 c 0
 520 9 474 -0 405 -0 c 2
 62 -0 l 1
 62 84 l 1
 159 84 l 1
 159 502 l 1
 254 502 l 1
 254 84 l 1
 405 84 l 2
 436 84 456 88 466 97 c 0
 473 105 477 122 477 150 c 2
 477 386 l 2
 477 415 475 437 470 453 c 0
 464 470 450 487 428 504 c 0
 391 535 341 558 278 574 c 0
 216 589 149 597 79 597 c 1
 5 592 l 1
 15 624 42 668 86 724 c 0
 128 775 189 801 268 801 c 0
 315 801 371 790 435 768 c 0
 499 746 539 736 555 736 c 0
 585 736 612 743 636 757 c 1
 671 689 l 1
 633 668 597 658 563 658 c 0
 543 658 517 662 486 671 c 2
 407 698 l 1
 340 720 l 2
 319 726 295 729 268 729 c 0
 229 729 200 720 181 704 c 0
 161 688 148 674 144 662 c 1
EndSplineSet
MinimumDistance: x4,-1 y10,12 y10,11 y8,10 x10,8 x10,9 
EndChar
StartChar: uni0E19
Encoding: 185 3609
OldEncoding: 3609
Width: 856
Flags: HW
HStem: -15 78<688.2 709.67> 1 21G<181.96 279.14> 513 71<123.104 139> 725 72<123.606 139> 768 20G<591.02 688.2>
VStem: -6 71<652 658> 182 97<152 514> 209 70<652 658> 591 97<80 258 342 786> 767 72<144 178>
Fore
182 1 m 1
 182 520 l 1
 171 515 156 513 138 513 c 0
 93 513 58 528 34 557 c 1
 8 585 -6 618 -6 656 c 0
 -6 694 8 727 34 756 c 0
 60 784 94 797 138 797 c 0
 164 797 188 791 212 779 c 0
 234 766 251 750 263 728 c 0
 274 709 279 684 279 654 c 2
 279 151 l 1
 356 257 460 321 591 343 c 1
 591 788 l 1
 688 788 l 1
 688 341 l 1
 738 334 776 317 800 288 c 0
 826 256 839 213 839 160 c 0
 839 104 825 61 796 32 c 0
 765 1 729 -15 688 -15 c 0
 659 -15 637 -7 619 8 c 0
 600 24 591 46 591 72 c 2
 591 268 l 1
 535 257 484 235 441 200 c 0
 400 168 365 132 337 94 c 0
 307 52 287 21 279 1 c 1
 182 1 l 1
138 725 m 0
 115 725 98 719 87 705 c 0
 73 689 65 673 65 656 c 0
 65 638 72 621 85 606 c 0
 96 591 114 584 138 584 c 0
 162 584 180 591 191 606 c 0
 203 622 209 639 209 656 c 0
 209 675 202 691 189 705 c 0
 177 719 160 725 138 725 c 0
688 89 m 2
 688 72 695 63 710 63 c 0
 722 63 735 73 749 91 c 1
 761 111 767 134 767 160 c 0
 767 224 741 260 688 268 c 1
 688 89 l 2
EndSplineSet
MinimumDistance: x16,-1 
EndChar
StartChar: uni0E1A
Encoding: 186 3610
OldEncoding: 3610
Width: 858
Flags: HW
HStem: 0 84<95 177 284 593> 512 69<129.651 147> 725 72<128.949 146> 767 20G<641.265 738.445>
VStem: 1 71<641.564 657> 188 97<84 514> 215 70<640.814 657> 641 97<143 785>
Fore
188 84 m 1
 188 519 l 1
 177 514 162 512 144 512 c 0
 99 512 64 527 40 556 c 1
 14 584 1 617 1 656 c 0
 1 693 14 726 40 755 c 0
 66 783 100 797 144 797 c 0
 170 797 195 790 219 778 c 0
 240 766 257 749 269 727 c 0
 280 708 285 683 285 653 c 2
 285 84 l 1
 570 84 l 2
 602 84 621 88 628 97 c 1
 637 104 641 122 641 150 c 2
 641 787 l 1
 738 787 l 5
 738 150 l 2
 738 88 728 47 707 28 c 0
 686 10 640 0 570 0 c 2
 93 0 l 1
 93 84 l 1
 188 84 l 1
144 725 m 0
 120 725 102 718 91 704 c 0
 78 688 72 671 72 653 c 0
 72 636 78 620 91 605 c 1
 102 589 119 581 144 581 c 0
 169 581 187 589 197 605 c 1
 209 619 215 635 215 653 c 0
 215 671 209 688 197 704 c 0
 186 718 168 725 144 725 c 0
EndSplineSet
MinimumDistance: x15,-1 y19,0 x0,19 x0,20 
EndChar
StartChar: uni0E1B
Encoding: 187 3611
OldEncoding: 3611
Width: 858
Flags: HW
HStem: -16 84<94 177 284 593> 496 71<129.349 147> 709 72<129.852 146>
VStem: 1 71<635 641> 188 97<68 498> 215 70<635 641> 641 97<127 1041>
Fore
188 68 m 1
 188 503 l 1
 177 499 162 496 144 496 c 0
 99 496 64 511 40 540 c 1
 14 568 1 601 1 640 c 0
 1 677 14 711 40 739 c 0
 66 767 100 781 144 781 c 0
 170 781 195 775 219 762 c 0
 240 750 257 733 269 711 c 0
 280 692 285 668 285 638 c 2
 285 68 l 1
 570 68 l 2
 602 68 621 73 628 82 c 1
 637 88 641 106 641 135 c 2
 641 1056 l 1
 738 1056 l 1
 738 135 l 2
 738 72 728 31 707 13 c 0
 686 -6 640 -16 570 -16 c 2
 93 -16 l 1
 93 68 l 1
 188 68 l 1
144 709 m 0
 121 709 105 702 93 688 c 0
 79 673 72 656 72 640 c 0
 72 621 78 604 91 589 c 0
 102 575 120 567 144 567 c 0
 168 567 186 575 197 589 c 0
 209 606 215 622 215 640 c 0
 215 658 208 674 195 688 c 0
 184 702 167 709 144 709 c 0
EndSplineSet
MinimumDistance: x15,-1 y19,0 x0,19 x0,20 
EndChar
StartChar: uni0E1C
Encoding: 188 3612
OldEncoding: 3612
Width: 817
Flags: HW
HStem: 0 21G<69.8604 168.17 599.83 698.14> 512 69<198.159 218> 725 72<197.927 218> 767 20G<599.83 698.14>
VStem: 70 70<642.023 657> 70 98<15 17 204 514> 286 69<642.023 657> 600 98<15 17 204 785>
DStem: 385.13 333.525 385.13 439.745 554.63 143.685 599.83 203.575 385.13 439.745 385.13 333.525 168.17 203.575 216.76 143.685 385.13 333.525 385.13 439.745 554.63 143.685 599.83 203.575 385.13 439.745 385.13 333.525 168.17 203.575 216.76 143.685 385.13 333.525 385.13 439.745 554.63 143.685 599.83 203.575 385.13 439.745 385.13 333.525 168.17 203.575 216.76 143.685 385.13 333.525 385.13 439.745 554.63 143.685 599.83 203.575 385.13 439.745 385.13 333.525 168.17 203.575 216.76 143.685 385.13 333.525 385.13 439.745 554.63 143.685 599.83 203.575 385.13 439.745 385.13 333.525 168.17 203.575 216.76 143.685 385.13 333.525 385.13 439.745 554.63 143.685 599.83 203.575 385.13 439.745 385.13 333.525 168.17 203.575 216.76 143.685 385.13 333.525 385.13 439.745 554.63 143.685 599.83 203.575 385.13 439.745 385.13 333.525 168.17 203.575 216.76 143.685 385.13 333.525 385.13 439.745 554.63 143.685 599.83 203.575 385.13 439.745 385.13 333.525 168.17 203.575 216.76 143.685 385.13 333.525 385.13 439.745 554.63 143.685 599.83 203.575 385.13 439.745 385.13 333.525 168.17 203.575 216.76 143.685
Fore
168 521 m 1
 168 204 l 1
 385 440 l 1
 600 204 l 1
 600 787 l 1
 698 787 l 1
 698 0 l 1
 600 0 l 1
 600 60 585 108 555 144 c 1
 385 334 l 1
 217 144 l 1
 184 109 168 61 168 0 c 1
 70 0 l 1
 70 653 l 2
 70 694 82 729 107 757 c 1
 135 784 170 797 211 797 c 0
 256 797 292 783 318 755 c 0
 343 728 355 695 355 656 c 0
 355 614 343 580 318 553 c 0
 293 526 257 512 211 512 c 0
 197 512 182 515 168 521 c 1
211 581 m 0
 235 581 254 589 268 605 c 0
 280 621 286 637 286 653 c 0
 286 671 280 688 268 704 c 1
 253 718 234 725 211 725 c 0
 191 725 173 718 158 704 c 1
 146 686 140 669 140 653 c 0
 140 637 146 621 158 605 c 0
 172 589 189 581 211 581 c 0
EndSplineSet
MinimumDistance: x5,-1 
EndChar
StartChar: uni0E1D
Encoding: 189 3613
OldEncoding: 3613
Width: 817
Flags: HW
HStem: -16 21G<69.8604 168.17 599.83 698.14> 496 71<198.159 218> 709 72<197.287 218>
VStem: 70 70<635 641> 70 98<-1 1 188 498> 286 69<635 641> 600 98<-1 1 188 1041>
DStem: 385.13 317.73 385.13 423.95 554.63 127.89 599.83 187.78 385.13 423.95 385.13 317.73 168.17 187.78 216.76 127.89 385.13 317.73 385.13 423.95 554.63 127.89 599.83 187.78 385.13 423.95 385.13 317.73 168.17 187.78 216.76 127.89 385.13 317.73 385.13 423.95 554.63 127.89 599.83 187.78 385.13 423.95 385.13 317.73 168.17 187.78 216.76 127.89 385.13 317.73 385.13 423.95 554.63 127.89 599.83 187.78 385.13 423.95 385.13 317.73 168.17 187.78 216.76 127.89 385.13 317.73 385.13 423.95 554.63 127.89 599.83 187.78 385.13 423.95 385.13 317.73 168.17 187.78 216.76 127.89 385.13 317.73 385.13 423.95 554.63 127.89 599.83 187.78 385.13 423.95 385.13 317.73 168.17 187.78 216.76 127.89 385.13 317.73 385.13 423.95 554.63 127.89 599.83 187.78 385.13 423.95 385.13 317.73 168.17 187.78 216.76 127.89 385.13 317.73 385.13 423.95 554.63 127.89 599.83 187.78 385.13 423.95 385.13 317.73 168.17 187.78 216.76 127.89 385.13 317.73 385.13 423.95 554.63 127.89 599.83 187.78 385.13 423.95 385.13 317.73 168.17 187.78 216.76 127.89
Fore
168 505 m 1
 168 188 l 1
 385 424 l 1
 600 188 l 1
 600 1056 l 1
 698 1056 l 1
 698 -16 l 1
 600 -16 l 1
 600 44 585 92 555 128 c 1
 385 318 l 1
 217 128 l 1
 184 93 168 45 168 -16 c 1
 70 -16 l 1
 70 638 l 2
 70 678 82 713 107 741 c 1
 135 768 170 781 211 781 c 0
 256 781 292 767 318 739 c 0
 343 712 355 679 355 640 c 0
 355 598 343 564 318 537 c 0
 293 510 257 496 211 496 c 0
 197 496 182 499 168 505 c 1
211 567 m 0
 235 567 254 575 268 591 c 0
 280 606 286 622 286 640 c 0
 286 655 279 671 265 688 c 1
 251 702 233 709 211 709 c 0
 189 709 172 702 160 688 c 0
 147 671 140 655 140 640 c 0
 140 622 146 606 158 591 c 0
 172 575 189 567 211 567 c 0
EndSplineSet
MinimumDistance: x5,-1 
EndChar
StartChar: uni0E1E
Encoding: 190 3614
OldEncoding: 3614
Width: 948
Flags: HW
HStem: 0 21G<181.7 278.88 746.7 843.88> 512 71<122.848 139> 725 72<123.36 139> 767 20G<746.7 843.88>
VStem: -6 71<651 657> 182 97<255 514> 209 70<651 657> 747 97<253 785>
DStem: 512.79 599.075 512.79 786.655 727.49 97.3555 746.7 252.165 512.79 786.655 512.79 599.075 278.88 254.425 296.96 97.3555 512.79 599.075 512.79 786.655 727.49 97.3555 746.7 252.165 512.79 786.655 512.79 599.075 278.88 254.425 296.96 97.3555 512.79 599.075 512.79 786.655 727.49 97.3555 746.7 252.165 512.79 786.655 512.79 599.075 278.88 254.425 296.96 97.3555 512.79 599.075 512.79 786.655 727.49 97.3555 746.7 252.165 512.79 786.655 512.79 599.075 278.88 254.425 296.96 97.3555 512.79 599.075 512.79 786.655 727.49 97.3555 746.7 252.165 512.79 786.655 512.79 599.075 278.88 254.425 296.96 97.3555 512.79 599.075 512.79 786.655 727.49 97.3555 746.7 252.165 512.79 786.655 512.79 599.075 278.88 254.425 296.96 97.3555 512.79 599.075 512.79 786.655 727.49 97.3555 746.7 252.165 512.79 786.655 512.79 599.075 278.88 254.425 296.96 97.3555 512.79 599.075 512.79 786.655 727.49 97.3555 746.7 252.165 512.79 786.655 512.79 599.075 278.88 254.425 296.96 97.3555 512.79 599.075 512.79 786.655 727.49 97.3555 746.7 252.165 512.79 786.655 512.79 599.075 278.88 254.425 296.96 97.3555 512.79 599.075 512.79 786.655 727.49 97.3555 746.7 252.165 512.79 786.655 512.79 599.075 278.88 254.425 296.96 97.3555 512.79 599.075 512.79 786.655 727.49 97.3555 746.7 252.165 512.79 786.655 512.79 599.075 278.88 254.425 296.96 97.3555 512.79 599.075 512.79 786.655 727.49 97.3555 746.7 252.165 512.79 786.655 512.79 599.075 278.88 254.425 296.96 97.3555 512.79 599.075 512.79 786.655 727.49 97.3555 746.7 252.165 512.79 786.655 512.79 599.075 278.88 254.425 296.96 97.3555 512.79 599.075 512.79 786.655 727.49 97.3555 746.7 252.165 512.79 786.655 512.79 599.075 278.88 254.425 296.96 97.3555 512.79 599.075 512.79 786.655 727.49 97.3555 746.7 252.165 512.79 786.655 512.79 599.075 278.88 254.425 296.96 97.3555 512.79 599.075 512.79 786.655 727.49 97.3555 746.7 252.165 512.79 786.655 512.79 599.075 278.88 254.425 296.96 97.3555 512.79 599.075 512.79 786.655 727.49 97.3555 746.7 252.165 512.79 786.655 512.79 599.075 278.88 254.425 296.96 97.3555 512.79 599.075 512.79 786.655 727.49 97.3555 746.7 252.165 512.79 786.655 512.79 599.075 278.88 254.425 296.96 97.3555 512.79 599.075 512.79 786.655 727.49 97.3555 746.7 252.165 512.79 786.655 512.79 599.075 278.88 254.425 296.96 97.3555 512.79 599.075 512.79 786.655 727.49 97.3555 746.7 252.165 512.79 786.655 512.79 599.075 278.88 254.425 296.96 97.3555 512.79 599.075 512.79 786.655 727.49 97.3555 746.7 252.165 512.79 786.655 512.79 599.075 278.88 254.425 296.96 97.3555 512.79 599.075 512.79 786.655 727.49 97.3555 746.7 252.165 512.79 786.655 512.79 599.075 278.88 254.425 296.96 97.3555 512.79 599.075 512.79 786.655 727.49 97.3555 746.7 252.165 512.79 786.655 512.79 599.075 278.88 254.425 296.96 97.3555 512.79 599.075 512.79 786.655 727.49 97.3555 746.7 252.165 512.79 786.655 512.79 599.075 278.88 254.425 296.96 97.3555 512.79 599.075 512.79 786.655 727.49 97.3555 746.7 252.165 512.79 786.655 512.79 599.075 278.88 254.425 296.96 97.3555 512.79 599.075 512.79 786.655 727.49 97.3555 746.7 252.165 512.79 786.655 512.79 599.075 278.88 254.425 296.96 97.3555 512.79 599.075 512.79 786.655 727.49 97.3555 746.7 252.165 512.79 786.655 512.79 599.075 278.88 254.425 296.96 97.3555 512.79 599.075 512.79 786.655 727.49 97.3555 746.7 252.165 512.79 786.655 512.79 599.075 278.88 254.425 296.96 97.3555 512.79 599.075 512.79 786.655 727.49 97.3555 746.7 252.165 512.79 786.655 512.79 599.075 278.88 254.425 296.96 97.3555 512.79 599.075 512.79 786.655 727.49 97.3555 746.7 252.165 512.79 786.655 512.79 599.075 278.88 254.425 296.96 97.3555 512.79 599.075 512.79 786.655 727.49 97.3555 746.7 252.165 512.79 786.655 512.79 599.075 278.88 254.425 296.96 97.3555 512.79 599.075 512.79 786.655 727.49 97.3555 746.7 252.165 512.79 786.655 512.79 599.075 278.88 254.425 296.96 97.3555 512.79 599.075 512.79 786.655 727.49 97.3555 746.7 252.165 512.79 786.655 512.79 599.075 278.88 254.425 296.96 97.3555 512.79 599.075 512.79 786.655 727.49 97.3555 746.7 252.165 512.79 786.655 512.79 599.075 278.88 254.425 296.96 97.3555 512.79 599.075 512.79 786.655 727.49 97.3555 746.7 252.165 512.79 786.655 512.79 599.075 278.88 254.425 296.96 97.3555 512.79 599.075 512.79 786.655 727.49 97.3555 746.7 252.165
Fore
182 0 m 1
 182 519 l 1
 170 514 156 512 138 512 c 0
 92 512 58 527 34 556 c 1
 7 584 -6 617 -6 656 c 0
 -6 693 7 726 34 755 c 0
 59 783 94 797 138 797 c 0
 163 797 188 790 212 778 c 0
 233 766 250 749 263 727 c 0
 274 708 279 683 279 653 c 2
 279 254 l 1
 513 787 l 1
 747 252 l 1
 747 787 l 1
 844 787 l 1
 844 0 l 1
 747 0 l 1
 744 44 l 1
 743 56 737 74 727 97 c 2
 513 599 l 1
 297 97 l 2
 290 82 286 65 283 44 c 1
 279 0 l 1
 182 0 l 1
138 725 m 0
 115 725 98 718 87 704 c 0
 72 688 65 672 65 656 c 0
 65 637 72 620 85 605 c 0
 96 590 114 583 138 583 c 0
 162 583 179 590 191 605 c 0
 203 621 209 638 209 656 c 0
 209 674 202 690 188 704 c 0
 177 718 160 725 138 725 c 0
EndSplineSet
MinimumDistance: x14,-1 
EndChar
StartChar: uni0E1F
Encoding: 191 3615
OldEncoding: 3615
Width: 948
Flags: HW
HStem: -16 21G<181.7 278.88 746.7 843.88> 496 69<123.156 139> 709 72<122.482 139>
VStem: -6 71<625.754 641> 182 97<239 498> 209 70<625.012 641> 747 97<237 1041>
DStem: 512.79 583.28 512.79 770.86 727.49 81.5596 746.7 236.37 512.79 770.86 512.79 583.28 278.88 238.63 296.96 81.5596 512.79 583.28 512.79 770.86 727.49 81.5596 746.7 236.37 512.79 770.86 512.79 583.28 278.88 238.63 296.96 81.5596 512.79 583.28 512.79 770.86 727.49 81.5596 746.7 236.37 512.79 770.86 512.79 583.28 278.88 238.63 296.96 81.5596 512.79 583.28 512.79 770.86 727.49 81.5596 746.7 236.37 512.79 770.86 512.79 583.28 278.88 238.63 296.96 81.5596 512.79 583.28 512.79 770.86 727.49 81.5596 746.7 236.37 512.79 770.86 512.79 583.28 278.88 238.63 296.96 81.5596 512.79 583.28 512.79 770.86 727.49 81.5596 746.7 236.37 512.79 770.86 512.79 583.28 278.88 238.63 296.96 81.5596 512.79 583.28 512.79 770.86 727.49 81.5596 746.7 236.37 512.79 770.86 512.79 583.28 278.88 238.63 296.96 81.5596 512.79 583.28 512.79 770.86 727.49 81.5596 746.7 236.37 512.79 770.86 512.79 583.28 278.88 238.63 296.96 81.5596 512.79 583.28 512.79 770.86 727.49 81.5596 746.7 236.37 512.79 770.86 512.79 583.28 278.88 238.63 296.96 81.5596 512.79 583.28 512.79 770.86 727.49 81.5596 746.7 236.37 512.79 770.86 512.79 583.28 278.88 238.63 296.96 81.5596 512.79 583.28 512.79 770.86 727.49 81.5596 746.7 236.37 512.79 770.86 512.79 583.28 278.88 238.63 296.96 81.5596 512.79 583.28 512.79 770.86 727.49 81.5596 746.7 236.37 512.79 770.86 512.79 583.28 278.88 238.63 296.96 81.5596 512.79 583.28 512.79 770.86 727.49 81.5596 746.7 236.37 512.79 770.86 512.79 583.28 278.88 238.63 296.96 81.5596 512.79 583.28 512.79 770.86 727.49 81.5596 746.7 236.37 512.79 770.86 512.79 583.28 278.88 238.63 296.96 81.5596 512.79 583.28 512.79 770.86 727.49 81.5596 746.7 236.37 512.79 770.86 512.79 583.28 278.88 238.63 296.96 81.5596 512.79 583.28 512.79 770.86 727.49 81.5596 746.7 236.37 512.79 770.86 512.79 583.28 278.88 238.63 296.96 81.5596 512.79 583.28 512.79 770.86 727.49 81.5596 746.7 236.37 512.79 770.86 512.79 583.28 278.88 238.63 296.96 81.5596 512.79 583.28 512.79 770.86 727.49 81.5596 746.7 236.37 512.79 770.86 512.79 583.28 278.88 238.63 296.96 81.5596 512.79 583.28 512.79 770.86 727.49 81.5596 746.7 236.37 512.79 770.86 512.79 583.28 278.88 238.63 296.96 81.5596 512.79 583.28 512.79 770.86 727.49 81.5596 746.7 236.37 512.79 770.86 512.79 583.28 278.88 238.63 296.96 81.5596 512.79 583.28 512.79 770.86 727.49 81.5596 746.7 236.37 512.79 770.86 512.79 583.28 278.88 238.63 296.96 81.5596 512.79 583.28 512.79 770.86 727.49 81.5596 746.7 236.37 512.79 770.86 512.79 583.28 278.88 238.63 296.96 81.5596 512.79 583.28 512.79 770.86 727.49 81.5596 746.7 236.37 512.79 770.86 512.79 583.28 278.88 238.63 296.96 81.5596 512.79 583.28 512.79 770.86 727.49 81.5596 746.7 236.37 512.79 770.86 512.79 583.28 278.88 238.63 296.96 81.5596 512.79 583.28 512.79 770.86 727.49 81.5596 746.7 236.37 512.79 770.86 512.79 583.28 278.88 238.63 296.96 81.5596 512.79 583.28 512.79 770.86 727.49 81.5596 746.7 236.37 512.79 770.86 512.79 583.28 278.88 238.63 296.96 81.5596 512.79 583.28 512.79 770.86 727.49 81.5596 746.7 236.37 512.79 770.86 512.79 583.28 278.88 238.63 296.96 81.5596 512.79 583.28 512.79 770.86 727.49 81.5596 746.7 236.37 512.79 770.86 512.79 583.28 278.88 238.63 296.96 81.5596 512.79 583.28 512.79 770.86 727.49 81.5596 746.7 236.37 512.79 770.86 512.79 583.28 278.88 238.63 296.96 81.5596 512.79 583.28 512.79 770.86 727.49 81.5596 746.7 236.37 512.79 770.86 512.79 583.28 278.88 238.63 296.96 81.5596 512.79 583.28 512.79 770.86 727.49 81.5596 746.7 236.37 512.79 770.86 512.79 583.28 278.88 238.63 296.96 81.5596 512.79 583.28 512.79 770.86 727.49 81.5596 746.7 236.37 512.79 770.86 512.79 583.28 278.88 238.63 296.96 81.5596 512.79 583.28 512.79 770.86 727.49 81.5596 746.7 236.37 512.79 770.86 512.79 583.28 278.88 238.63 296.96 81.5596 512.79 583.28 512.79 770.86 727.49 81.5596 746.7 236.37 512.79 770.86 512.79 583.28 278.88 238.63 296.96 81.5596 512.79 583.28 512.79 770.86 727.49 81.5596 746.7 236.37 512.79 770.86 512.79 583.28 278.88 238.63 296.96 81.5596 512.79 583.28 512.79 770.86 727.49 81.5596 746.7 236.37
Fore
182 -16 m 1
 182 503 l 1
 170 499 156 496 138 496 c 0
 92 496 58 511 34 540 c 1
 7 568 -6 601 -6 640 c 0
 -6 677 7 711 34 739 c 0
 59 767 94 781 138 781 c 0
 163 781 188 775 212 762 c 0
 233 750 250 733 263 711 c 0
 274 692 279 668 279 638 c 2
 279 239 l 1
 513 771 l 1
 747 236 l 1
 747 1056 l 1
 844 1056 l 1
 844 -16 l 1
 747 -16 l 1
 744 28 l 1
 743 41 737 58 727 82 c 2
 513 583 l 1
 297 82 l 2
 290 66 286 49 283 28 c 1
 279 -16 l 1
 182 -16 l 1
138 709 m 0
 114 709 96 702 85 688 c 0
 72 672 65 655 65 638 c 0
 65 620 72 604 85 589 c 1
 95 573 113 565 138 565 c 0
 162 565 180 573 191 589 c 1
 203 603 209 619 209 638 c 0
 209 656 203 673 191 688 c 0
 179 702 162 709 138 709 c 0
EndSplineSet
MinimumDistance: x14,-1 
EndChar
StartChar: uni0E20
Encoding: 192 3616
OldEncoding: 3616
Width: 885
Flags: HW
HStem: -13 71<118.017 135> 1 21G<670.67 765.59> 200 72<117 135> 718 84<437 471>
VStem: -10 69<124 132> 178 97<270 404> 205 70<124 132> 671 95<2 564>
Fore
178 262 m 1
 178 392 l 2
 178 422 183 449 192 473 c 0
 199 496 210 513 224 524 c 0
 238 535 253 544 271 551 c 1
 261 559 240 572 207 588 c 0
 176 606 138 617 94 619 c 1
 116 650 158 689 220 734 c 0
 284 779 361 802 453 802 c 0
 545 802 620 780 677 736 c 0
 736 691 766 628 766 546 c 2
 766 1 l 1
 671 1 l 1
 671 546 l 2
 671 583 660 614 640 637 c 1
 622 663 597 683 564 697 c 0
 533 711 496 718 455 718 c 0
 372 718 300 693 240 641 c 1
 252 639 275 631 309 617 c 0
 341 602 372 582 399 557 c 1
 377 551 352 537 324 515 c 0
 291 491 275 452 275 396 c 2
 275 126 l 2
 275 86 263 54 238 29 c 0
 212 1 177 -13 132 -13 c 0
 89 -13 55 1 30 29 c 0
 4 57 -10 91 -10 131 c 0
 -10 170 3 203 28 230 c 0
 53 258 88 272 132 272 c 0
 152 272 167 269 178 262 c 1
132 58 m 0
 155 58 173 65 187 80 c 0
 199 94 205 111 205 131 c 0
 205 147 199 163 187 179 c 1
 173 193 155 200 132 200 c 0
 109 200 92 193 81 179 c 0
 66 163 59 146 59 131 c 0
 59 112 66 96 81 82 c 1
 91 66 108 58 132 58 c 0
EndSplineSet
MinimumDistance: x10,-1 
EndChar
StartChar: uni0E21
Encoding: 193 3617
OldEncoding: 3617
Width: 852
Flags: HW
HStem: -13 80<161 180> 1 21G<635.835 733.015> 513 69<148.277 175> 725 72<147.655 175> 767 20G<635.835 733.015>
VStem: 20 70<642 660> 26 80<146 166> 205 97<102 260 342 516> 234 69<642 660> 636 97<0.986896 14.3976 165 780>
Fore
205 343 m 1
 205 520 l 1
 194 515 179 513 161 513 c 0
 118 513 83 526 57 554 c 0
 32 581 20 616 20 656 c 0
 20 694 32 727 57 756 c 0
 84 784 118 797 161 797 c 0
 187 797 212 791 236 778 c 0
 258 766 275 749 287 728 c 0
 297 709 302 684 302 654 c 2
 302 343 l 1
 350 339 399 326 446 306 c 0
 495 285 535 263 565 239 c 1
 596 212 620 187 636 165 c 1
 636 787 l 1
 733 787 l 1
 733 1 l 1
 636 1 l 1
 636 30 620 65 590 105 c 0
 559 146 518 182 467 211 c 0
 418 241 363 259 302 268 c 1
 302 121 l 2
 302 81 292 48 271 24 c 1
 247 -1 215 -13 174 -13 c 0
 125 -13 89 4 64 38 c 0
 38 71 26 110 26 156 c 0
 26 204 41 247 71 286 c 1
 102 322 147 341 205 343 c 1
130 89 m 1
 142 75 156 67 171 67 c 0
 194 67 205 81 205 107 c 2
 205 272 l 1
 174 272 149 261 132 239 c 0
 115 215 106 189 106 160 c 0
 106 128 114 104 130 89 c 1
161 725 m 0
 140 725 122 719 108 705 c 1
 96 687 90 670 90 654 c 0
 90 638 96 622 108 606 c 0
 122 590 139 582 161 582 c 0
 186 582 204 590 214 606 c 1
 227 620 234 636 234 654 c 0
 234 673 227 690 214 705 c 0
 203 719 185 725 161 725 c 0
EndSplineSet
MinimumDistance: x15,-1 
EndChar
StartChar: uni0E22
Encoding: 194 3618
OldEncoding: 3618
Width: 760
Flags: HW
HStem: -0 84<159 490> 530 69<232 240> 733 68<232 250> 766 20G<543.27 640.45>
VStem: 42 97<558 573> 57 97<94 208> 307 70<654 672> 543 97<142 784>
Fore
187 373 m 1
 140 388 104 414 79 451 c 0
 54 486 42 527 42 574 c 0
 42 633 61 686 99 731 c 0
 137 778 184 801 240 801 c 0
 280 801 314 788 342 762 c 1
 365 732 377 700 377 664 c 0
 377 627 365 595 342 569 c 1
 316 543 282 530 240 530 c 0
 210 530 186 535 170 546 c 0
 152 560 142 569 139 574 c 1
 139 519 157 479 194 453 c 0
 230 427 269 415 312 415 c 1
 312 329 l 1
 260 329 221 316 196 291 c 1
 168 267 154 233 154 192 c 2
 154 84 l 1
 472 84 l 2
 503 84 523 88 532 97 c 0
 540 105 543 122 543 150 c 2
 543 786 l 1
 640 786 l 1
 640 150 l 2
 640 88 630 47 609 28 c 0
 585 9 540 -0 472 -0 c 2
 57 -0 l 1
 57 192 l 2
 57 227 63 259 75 287 c 1
 88 311 103 329 120 340 c 2
 161 366 l 1
 187 373 l 1
240 599 m 0
 285 601 307 624 307 667 c 0
 307 686 302 702 291 715 c 0
 279 727 262 733 240 733 c 0
 220 733 204 727 192 715 c 0
 180 701 174 685 174 667 c 0
 174 650 180 635 192 620 c 0
 204 606 220 599 240 599 c 0
EndSplineSet
MinimumDistance: x21,-1 
EndChar
StartChar: uni0E23
Encoding: 195 3619
OldEncoding: 3619
Width: 681
Flags: HW
HStem: -13 71<383 407> 200 72<383 407> 654 85<533 551> 725 77<252 292>
VStem: 251 72<124 132> 439 97<264 404> 467 69<124 132>
Fore
536 387 m 2
 536 126 l 2
 536 85 522 51 494 23 c 0
 470 -1 437 -13 395 -13 c 0
 350 -13 315 2 291 31 c 1
 265 59 251 91 251 128 c 0
 251 165 265 199 291 230 c 0
 317 258 350 272 393 272 c 0
 405 272 420 269 439 264 c 1
 439 383 l 2
 439 420 435 451 428 478 c 1
 419 499 405 516 386 528 c 1
 368 537 341 546 304 557 c 0
 251 571 194 583 134 593 c 2
 6 614 l 1
 35 665 72 710 119 749 c 1
 165 784 215 802 269 802 c 0
 303 802 330 799 349 794 c 2
 428 769 l 1
 497 745 l 1
 514 741 531 739 547 739 c 0
 575 739 602 745 629 758 c 1
 647 676 l 1
 609 661 575 654 543 654 c 0
 520 654 501 656 488 661 c 2
 413 688 l 1
 333 716 l 2
 314 722 293 725 269 725 c 0
 245 725 220 719 194 707 c 1
 167 691 152 679 150 672 c 1
 150 672 l 1
 367 619 l 1
 441 602 488 577 508 542 c 0
 527 509 536 457 536 387 c 2
395 58 m 0
 419 58 437 65 448 80 c 0
 461 95 467 112 467 131 c 0
 467 146 461 163 448 179 c 0
 437 193 419 200 395 200 c 0
 372 200 355 193 344 179 c 0
 330 163 323 146 323 131 c 0
 323 112 330 96 344 82 c 1
 355 66 372 58 395 58 c 0
EndSplineSet
MinimumDistance: x0,-1 
EndChar
StartChar: uni0E24
Encoding: 196 3620
OldEncoding: 3620
Width: 795
Flags: HW
HStem: 10 71<215 233> 222 72<215 233> 741 84<334 389>
VStem: 86 71<141 159> 86 97<285 431> 300 68<141 159> 578 97<-371 581>
Fore
86 153 m 2
 86 414 l 2
 86 459 94 494 111 521 c 1
 130 545 153 562 178 574 c 1
 166 584 145 597 117 611 c 0
 86 629 48 639 4 642 c 1
 25 672 67 711 128 757 c 0
 189 802 267 825 360 825 c 0
 417 825 470 815 521 796 c 0
 568 779 605 750 634 710 c 0
 662 671 675 624 675 569 c 2
 675 -386 l 1
 578 -386 l 1
 578 569 l 2
 578 606 568 636 548 660 c 1
 530 686 505 706 472 720 c 0
 441 734 404 741 363 741 c 0
 280 741 208 715 148 664 c 1
 160 662 183 654 217 639 c 0
 249 625 279 605 307 579 c 1
 285 573 259 559 232 538 c 0
 199 514 183 475 183 419 c 2
 183 284 l 1
 189 291 205 294 232 294 c 0
 273 294 307 281 333 253 c 1
 357 223 368 190 368 153 c 0
 368 115 357 82 333 54 c 0
 308 25 274 10 232 10 c 0
 190 10 155 23 128 49 c 0
 100 74 86 109 86 153 c 2
229 81 m 0
 253 81 271 88 282 103 c 0
 294 117 300 134 300 153 c 0
 300 170 294 186 282 202 c 1
 268 216 250 222 229 222 c 0
 207 222 190 216 178 202 c 1
 164 188 157 171 157 153 c 0
 157 134 163 117 176 103 c 0
 190 88 207 81 229 81 c 0
EndSplineSet
MinimumDistance: x10,-1 
EndChar
StartChar: uni0E25
Encoding: 197 3621
OldEncoding: 3621
Width: 765
Flags: HW
HStem: -13 69<214 241> 1 21G<548.635 645.815> 200 72<214 243> 725 77<310 360>
VStem: 299 70<124 134> 549 97<0.730533 17.5536 272 564>
Fore
255 498 m 1
 189 491 155 433 155 325 c 1
 160 253 l 1
 164 256 171 260 181 264 c 0
 192 269 207 272 228 272 c 0
 271 272 305 258 332 230 c 0
 357 202 369 169 369 131 c 0
 369 88 357 54 332 29 c 0
 306 1 271 -13 228 -13 c 0
 183 -13 147 2 123 31 c 0
 97 61 82 95 76 133 c 0
 68 196 65 262 67 330 c 0
 67 393 83 450 114 500 c 0
 144 546 186 572 241 579 c 1
 302 579 354 559 398 519 c 1
 443 477 477 429 502 376 c 1
 549 272 l 1
 549 542 l 2
 549 598 529 643 489 676 c 0
 450 709 398 725 334 725 c 0
 228 725 146 683 86 600 c 1
 23 648 l 5
 47 687 87 723 144 756 c 0
 202 786 267 802 338 802 c 0
 427 802 501 779 561 734 c 0
 618 691 646 627 646 542 c 2
 646 1 l 1
 549 1 l 1
 549 25 540 67 524 126 c 0
 506 183 483 240 456 294 c 0
 430 349 399 398 361 440 c 0
 328 479 293 498 255 498 c 1
228 200 m 0
 206 200 188 193 175 179 c 0
 162 164 155 147 155 128 c 0
 155 110 162 94 175 80 c 0
 187 64 205 56 228 56 c 0
 252 56 270 64 281 80 c 0
 293 94 299 110 299 128 c 0
 299 146 293 163 281 179 c 1
 268 193 250 200 228 200 c 0
EndSplineSet
MinimumDistance: x25,-1 
EndChar
StartChar: uni0E26
Encoding: 198 3622
OldEncoding: 3622
Width: 885
Flags: HW
HStem: 10 71<118.017 135> 222 72<117 135> 741 84<437 471>
VStem: -10 69<141 159> 178 97<285 431> 205 70<141 159> 671 95<-371 581>
Fore
178 284 m 1
 178 414 l 2
 178 445 183 472 192 496 c 0
 199 519 210 536 224 547 c 0
 238 558 253 567 271 574 c 1
 261 582 240 594 207 611 c 0
 176 629 138 639 94 642 c 1
 116 673 158 712 220 757 c 0
 284 802 361 825 453 825 c 0
 545 825 620 803 677 759 c 0
 736 714 766 651 766 569 c 2
 766 -386 l 1
 671 -386 l 1
 671 569 l 2
 671 606 660 636 640 660 c 1
 622 686 597 706 564 720 c 0
 533 734 496 741 455 741 c 0
 372 741 300 715 240 664 c 1
 252 662 275 654 309 639 c 0
 341 625 372 605 399 579 c 1
 377 573 352 559 324 538 c 0
 291 514 275 475 275 419 c 2
 275 149 l 2
 275 109 263 77 238 52 c 0
 212 24 177 10 132 10 c 0
 89 10 55 24 30 52 c 0
 4 80 -10 113 -10 153 c 0
 -10 193 3 226 28 253 c 0
 53 281 88 294 132 294 c 0
 152 294 167 291 178 284 c 1
132 81 m 0
 155 81 173 88 187 103 c 0
 199 117 205 134 205 153 c 0
 205 170 199 186 187 202 c 1
 173 216 155 222 132 222 c 0
 109 222 92 216 81 202 c 0
 66 185 59 169 59 153 c 0
 59 135 66 118 81 105 c 1
 91 89 108 81 132 81 c 0
EndSplineSet
MinimumDistance: x10,-1 
EndChar
StartChar: uni0E27
Encoding: 199 3623
OldEncoding: 3623
Width: 727
Flags: HW
HStem: -13 71<453 470> 200 72<453 470> 725 77<287 326>
VStem: 324 69<118.116 132> 511 95<264 564> 537 69<117.194 132>
Fore
606 542 m 2
 606 131 l 2
 606 92 595 59 574 31 c 0
 554 2 518 -13 468 -13 c 0
 424 -13 389 1 363 29 c 0
 337 57 324 91 324 131 c 0
 324 170 337 203 361 230 c 0
 385 258 419 272 465 272 c 0
 480 272 496 269 511 264 c 1
 511 542 l 2
 511 603 492 649 456 679 c 0
 419 710 368 725 303 725 c 0
 250 725 202 712 157 685 c 0
 119 663 86 632 60 593 c 1
 0 641 l 1
 14 666 37 692 69 721 c 0
 97 743 132 762 173 778 c 0
 215 794 259 802 303 802 c 0
 394 802 468 779 523 732 c 1
 578 688 606 625 606 542 c 2
465 200 m 0
 443 200 427 193 414 179 c 0
 400 163 393 146 393 131 c 0
 393 113 399 96 411 82 c 0
 425 66 443 58 465 58 c 0
 489 58 507 65 519 80 c 0
 531 94 537 111 537 131 c 0
 537 147 531 163 519 179 c 0
 507 193 489 200 465 200 c 0
EndSplineSet
MinimumDistance: x0,-1 
EndChar
StartChar: uni0E28
Encoding: 200 3624
OldEncoding: 3624
Width: 799
Flags: HW
HStem: -2 21G<149.48 244.4 582.27 679.45> 327 69<327 347> 539 72<327 347> 727 77<327 361>
VStem: 8 95<508 542> 149 95<12 158> 582 97<12 523>
Fore
608 713 m 1
 616 723 625 739 635 762 c 0
 647 782 657 806 666 833 c 1
 752 789 l 1
 740 753 725 724 708 702 c 0
 692 682 675 661 657 641 c 1
 672 611 679 575 679 532 c 2
 679 -2 l 1
 582 -2 l 1
 582 523 l 1
 578 574 l 1
 525 541 l 2
 500 527 481 518 467 514 c 1
 472 493 l 1
 474 461 l 1
 474 423 460 391 432 366 c 1
 406 340 372 327 333 327 c 0
 292 327 262 336 244 354 c 1
 244 -2 l 1
 149 -2 l 1
 149 139 l 2
 149 175 144 206 134 232 c 0
 124 254 105 286 78 329 c 0
 56 364 38 397 25 428 c 1
 14 451 8 483 8 523 c 0
 8 581 24 632 55 676 c 0
 86 719 129 751 182 771 c 0
 237 793 292 804 346 804 c 0
 455 804 542 774 608 713 c 1
543 639 m 1
 531 656 510 674 478 694 c 0
 445 716 401 727 346 727 c 0
 313 727 278 721 240 709 c 1
 200 693 168 670 143 641 c 0
 116 612 103 571 103 519 c 0
 103 492 112 460 129 424 c 0
 144 392 154 364 159 340 c 1
 159 415 l 2
 159 471 173 519 203 556 c 0
 233 593 277 611 333 611 c 0
 354 611 372 609 386 605 c 1
 404 594 415 586 421 581 c 2
 434 570 l 1
 452 574 470 583 490 597 c 0
 514 613 531 627 543 639 c 1
333 539 m 0
 308 539 291 532 279 519 c 0
 267 504 260 487 260 468 c 0
 260 451 267 435 279 419 c 1
 290 404 308 396 333 396 c 0
 357 396 375 404 386 419 c 1
 398 434 404 450 404 468 c 0
 404 488 398 505 386 519 c 0
 374 532 357 539 333 539 c 0
EndSplineSet
MinimumDistance: x6,-1 
EndChar
StartChar: uni0E29
Encoding: 201 3625
OldEncoding: 3625
Width: 873
Flags: HW
HStem: 0 84<87 169 275 585> 504 61<455 461> 512 69<121.103 137> 725 72<120.398 137> 767 20G<632.75 729.93>
VStem: -8 71<641.564 657> 180 97<84 514> 207 70<640.814 657> 334 62<438 453> 522 67<431 453> 633 97<143 289 396 785>
Fore
730 320 m 1
 730 150 l 2
 730 88 719 47 698 28 c 0
 677 10 632 0 562 0 c 2
 85 0 l 1
 85 84 l 1
 180 84 l 1
 180 519 l 1
 168 514 154 512 136 512 c 0
 90 512 56 527 32 556 c 1
 5 584 -8 617 -8 656 c 0
 -8 693 5 726 32 755 c 0
 57 783 92 797 136 797 c 0
 161 797 186 790 210 778 c 0
 231 766 248 749 261 727 c 0
 272 708 277 683 277 653 c 2
 277 84 l 1
 562 84 l 2
 593 84 612 88 619 97 c 1
 628 104 633 122 633 150 c 2
 633 289 l 1
 618 286 597 285 571 285 c 0
 509 287 455 300 409 322 c 0
 362 344 337 383 334 440 c 0
 334 472 345 501 365 526 c 0
 387 552 418 565 460 565 c 0
 503 565 535 553 557 530 c 1
 578 503 589 474 589 442 c 0
 589 404 577 375 553 356 c 1
 633 358 l 1
 633 787 l 1
 730 787 l 1
 730 396 l 1
 743 404 758 422 776 451 c 0
 791 472 800 507 802 556 c 1
 878 556 l 1
 878 485 864 435 837 405 c 1
 806 372 770 344 730 320 c 1
460 380 m 0
 473 380 484 383 494 389 c 0
 504 396 511 404 515 413 c 0
 520 422 522 431 522 442 c 0
 522 461 517 476 506 486 c 0
 493 498 477 504 460 504 c 0
 441 504 426 498 414 486 c 0
 402 475 396 460 396 442 c 0
 396 428 402 413 414 398 c 1
 426 386 441 380 460 380 c 0
136 725 m 0
 111 725 94 718 82 704 c 0
 70 688 63 671 63 653 c 0
 63 636 70 620 82 605 c 1
 93 589 111 581 136 581 c 0
 160 581 178 589 189 605 c 1
 201 619 207 635 207 653 c 0
 207 671 201 688 189 704 c 0
 177 718 160 725 136 725 c 0
EndSplineSet
MinimumDistance: x0,-1 y4,6 x6,4 x6,5 
EndChar
StartChar: uni0E2A
Encoding: 202 3626
OldEncoding: 3626
Width: 763
Flags: HW
HStem: -17 69<212 239> -3 21G<546.49 643.67> 196 72<212 239> 721 77<308 360>
VStem: 297 70<120 132> 546 97<-2.97897 13.7698 269 557>
Fore
226 196 m 0
 204 196 186 189 172 176 c 0
 160 160 153 144 153 125 c 0
 153 107 160 90 172 76 c 0
 185 60 203 52 226 52 c 0
 250 52 267 60 279 76 c 0
 291 90 297 107 297 125 c 0
 297 143 291 160 279 176 c 1
 266 189 248 196 226 196 c 0
522 633 m 1
 522 628 507 604 478 562 c 1
 447 522 431 498 431 490 c 1
 450 469 468 443 484 412 c 1
 524 328 l 1
 546 268 l 1
 546 538 l 2
 546 571 538 602 522 633 c 1
389 545 m 2
 390 545 406 568 438 613 c 2
 482 677 l 1
 448 707 398 721 332 721 c 0
 226 721 144 680 84 596 c 1
 21 644 l 1
 44 684 85 719 142 752 c 0
 200 783 265 798 336 798 c 0
 404 798 465 784 519 756 c 1
 523 756 537 774 561 809 c 0
 584 845 599 863 608 863 c 1
 630 849 l 1
 667 823 l 2
 676 816 681 809 681 803 c 1
 628 739 l 1
 603 715 591 702 591 699 c 1
 626 657 643 603 643 538 c 2
 643 -3 l 1
 546 -3 l 1
 546 21 538 63 522 122 c 0
 504 180 481 236 454 291 c 0
 428 346 397 394 359 437 c 0
 326 475 290 494 253 494 c 1
 186 487 153 430 153 321 c 1
 158 249 l 1
 162 253 169 257 179 260 c 0
 190 266 205 268 226 268 c 0
 269 268 303 254 330 226 c 0
 354 199 367 165 367 127 c 0
 367 84 354 50 330 25 c 0
 304 -3 269 -17 226 -17 c 0
 180 -17 145 -2 120 28 c 0
 95 58 79 92 74 129 c 0
 66 192 63 258 65 326 c 0
 65 389 81 446 111 496 c 0
 142 542 184 569 239 576 c 1
 287 576 321 570 343 557 c 1
 354 555 l 1
 378 550 l 1
 389 545 l 2
EndSplineSet
MinimumDistance: x31,-1 
EndChar
StartChar: uni0E2B
Encoding: 203 3627
OldEncoding: 3627
Width: 880
Flags: HW
HStem: 0 21G<186.64 283.82 665.76 760.68> 512 69<128.108 144> 725 72<127.434 144 606 624>
VStem: -1 71<641.564 657> 187 97<15 49 294 514> 214 70<640.814 657> 474 73<651 657> 666 95<15 385> 691 72<651 657>
Fore
187 0 m 1
 187 519 l 1
 175 514 161 512 143 512 c 0
 97 512 63 527 39 556 c 1
 12 584 -1 617 -1 656 c 0
 -1 693 12 726 39 755 c 0
 64 783 99 797 143 797 c 0
 168 797 193 790 217 778 c 0
 238 766 255 749 268 727 c 0
 279 708 284 683 284 653 c 2
 284 294 l 1
 310 358 350 412 404 456 c 0
 460 502 500 531 525 541 c 1
 491 566 474 604 474 653 c 0
 474 690 487 724 513 755 c 0
 539 783 574 797 619 797 c 0
 665 797 700 783 726 755 c 0
 751 728 763 695 763 656 c 0
 763 631 757 607 744 583 c 0
 729 558 710 541 688 530 c 1
 703 525 718 510 732 486 c 1
 751 464 761 427 761 373 c 2
 761 0 l 1
 666 0 l 1
 666 373 l 2
 666 417 658 448 642 466 c 1
 624 484 611 494 604 497 c 1
 503 447 425 376 370 285 c 1
 312 197 284 112 284 31 c 2
 284 0 l 1
 187 0 l 1
619 727 m 0
 597 727 580 720 569 706 c 0
 554 691 547 674 547 656 c 0
 547 637 554 621 569 607 c 1
 579 591 596 583 619 583 c 0
 644 583 662 591 673 607 c 1
 685 621 691 637 691 656 c 0
 691 674 685 691 673 706 c 0
 661 720 644 727 619 727 c 0
143 725 m 0
 118 725 101 718 89 704 c 0
 77 688 70 671 70 653 c 0
 70 636 77 620 89 605 c 1
 100 589 118 581 143 581 c 0
 167 581 185 589 196 605 c 1
 208 619 214 635 214 653 c 0
 214 671 208 688 196 704 c 0
 184 718 167 725 143 725 c 0
EndSplineSet
MinimumDistance: x17,-1 
EndChar
StartChar: uni0E2C
Encoding: 204 3628
OldEncoding: 3628
Width: 940
Flags: HW
HStem: -6 21G<173.185 270.365 723.495 820.675> 506 69<114.697 131> 718 72<113.995 131> 839 62<701 716>
VStem: -14 71<644 654> 173 97<246 507> 200 70<634.383 654> 578 68<766 791> 721 99<-4.22739 11.873 246 652> 763 68<767 782>
DStem: 502.015 549.765 502.015 746.385 709.935 90.9854 723.495 245.795 502.015 746.385 502.015 549.765 270.365 245.795 288.445 90.9854 502.015 549.765 502.015 746.385 709.935 90.9854 723.495 245.795 502.015 746.385 502.015 549.765 270.365 245.795 288.445 90.9854 502.015 549.765 502.015 746.385 709.935 90.9854 723.495 245.795 502.015 746.385 502.015 549.765 270.365 245.795 288.445 90.9854 502.015 549.765 502.015 746.385 709.935 90.9854 723.495 245.795 502.015 746.385 502.015 549.765 270.365 245.795 288.445 90.9854 502.015 549.765 502.015 746.385 709.935 90.9854 723.495 245.795 502.015 746.385 502.015 549.765 270.365 245.795 288.445 90.9854 502.015 549.765 502.015 746.385 709.935 90.9854 723.495 245.795 502.015 746.385 502.015 549.765 270.365 245.795 288.445 90.9854 502.015 549.765 502.015 746.385 709.935 90.9854 723.495 245.795 502.015 746.385 502.015 549.765 270.365 245.795 288.445 90.9854 502.015 549.765 502.015 746.385 709.935 90.9854 723.495 245.795 502.015 746.385 502.015 549.765 270.365 245.795 288.445 90.9854 502.015 549.765 502.015 746.385 709.935 90.9854 723.495 245.795 502.015 746.385 502.015 549.765 270.365 245.795 288.445 90.9854 502.015 549.765 502.015 746.385 709.935 90.9854 723.495 245.795 502.015 746.385 502.015 549.765 270.365 245.795 288.445 90.9854 502.015 549.765 502.015 746.385 709.935 90.9854 723.495 245.795 502.015 746.385 502.015 549.765 270.365 245.795 288.445 90.9854 502.015 549.765 502.015 746.385 709.935 90.9854 723.495 245.795 502.015 746.385 502.015 549.765 270.365 245.795 288.445 90.9854 502.015 549.765 502.015 746.385 709.935 90.9854 723.495 245.795 502.015 746.385 502.015 549.765 270.365 245.795 288.445 90.9854 502.015 549.765 502.015 746.385 709.935 90.9854 723.495 245.795 502.015 746.385 502.015 549.765 270.365 245.795 288.445 90.9854 502.015 549.765 502.015 746.385 709.935 90.9854 723.495 245.795 502.015 746.385 502.015 549.765 270.365 245.795 288.445 90.9854 502.015 549.765 502.015 746.385 709.935 90.9854 723.495 245.795 502.015 746.385 502.015 549.765 270.365 245.795 288.445 90.9854 502.015 549.765 502.015 746.385 709.935 90.9854 723.495 245.795 502.015 746.385 502.015 549.765 270.365 245.795 288.445 90.9854 502.015 549.765 502.015 746.385 709.935 90.9854 723.495 245.795 502.015 746.385 502.015 549.765 270.365 245.795 288.445 90.9854 502.015 549.765 502.015 746.385 709.935 90.9854 723.495 245.795 502.015 746.385 502.015 549.765 270.365 245.795 288.445 90.9854 502.015 549.765 502.015 746.385 709.935 90.9854 723.495 245.795 502.015 746.385 502.015 549.765 270.365 245.795 288.445 90.9854 502.015 549.765 502.015 746.385 709.935 90.9854 723.495 245.795 502.015 746.385 502.015 549.765 270.365 245.795 288.445 90.9854 502.015 549.765 502.015 746.385 709.935 90.9854 723.495 245.795 502.015 746.385 502.015 549.765 270.365 245.795 288.445 90.9854 502.015 549.765 502.015 746.385 709.935 90.9854 723.495 245.795 502.015 746.385 502.015 549.765 270.365 245.795 288.445 90.9854 502.015 549.765 502.015 746.385 709.935 90.9854 723.495 245.795 502.015 746.385 502.015 549.765 270.365 245.795 288.445 90.9854 502.015 549.765 502.015 746.385 709.935 90.9854 723.495 245.795 502.015 746.385 502.015 549.765 270.365 245.795 288.445 90.9854 502.015 549.765 502.015 746.385 709.935 90.9854 723.495 245.795 502.015 746.385 502.015 549.765 270.365 245.795 288.445 90.9854
Fore
173 -6 m 1
 173 512 l 1
 162 508 147 506 129 506 c 0
 84 506 49 520 25 550 c 1
 -1 578 -14 611 -14 649 c 0
 -14 687 -1 720 25 749 c 0
 51 777 85 790 129 790 c 0
 155 790 180 784 204 771 c 0
 225 759 242 742 255 720 c 0
 265 702 270 677 270 647 c 2
 270 246 l 1
 502 746 l 1
 723 246 l 1
 723 651 l 1
 675 651 638 664 613 688 c 0
 589 712 578 743 578 780 c 0
 578 815 590 844 615 866 c 0
 641 890 672 901 710 901 c 0
 745 901 773 889 796 864 c 0
 819 838 831 806 831 767 c 1
 842 771 856 783 874 802 c 0
 892 819 906 844 916 877 c 1
 983 839 l 1
 969 795 945 759 911 729 c 0
 873 697 842 677 820 670 c 1
 820 -6 l 1
 723 -6 l 2
 722 -6 721 -0 721 12 c 1
 717 54 l 1
 710 91 l 1
 502 550 l 1
 288 91 l 1
 282 75 277 58 275 40 c 1
 270 -6 l 1
 173 -6 l 1
129 718 m 0
 105 718 87 711 76 698 c 0
 63 681 57 664 57 647 c 0
 57 630 63 613 76 598 c 1
 87 583 104 575 129 575 c 0
 154 575 172 583 182 598 c 1
 194 613 200 629 200 647 c 0
 200 665 194 682 182 698 c 0
 171 711 153 718 129 718 c 0
703 718 m 0
 722 718 737 724 749 736 c 1
 759 749 763 763 763 778 c 0
 763 796 759 811 749 822 c 1
 738 833 723 839 703 839 c 0
 686 839 672 833 661 820 c 0
 651 809 646 795 646 778 c 0
 646 761 651 748 661 736 c 0
 671 724 685 718 703 718 c 0
EndSplineSet
MinimumDistance: x19,-1 
EndChar
StartChar: uni0E2D
Encoding: 205 3629
OldEncoding: 3629
Width: 784
Flags: HW
HStem: -0 84<229 516> 280 71<217 235> 493 72<217 235> 727 75<329 374>
VStem: 84 71<414 432> 84 97<142 288> 299 72<414 432> 568 97<142 560>
Fore
181 289 m 1
 181 150 l 2
 181 122 186 104 195 97 c 1
 202 88 221 84 252 84 c 2
 495 84 l 2
 526 84 546 88 555 97 c 0
 563 104 568 122 568 150 c 2
 568 541 l 2
 568 599 547 644 507 676 c 0
 464 710 412 727 350 727 c 0
 248 729 165 686 102 599 c 1
 42 647 l 1
 64 686 103 722 160 755 c 1
 218 786 282 802 354 802 c 0
 413 802 466 791 515 771 c 0
 561 750 598 721 625 682 c 1
 652 640 665 593 665 541 c 2
 665 150 l 2
 665 88 654 48 632 28 c 0
 610 9 565 -0 495 -0 c 2
 252 -0 l 2
 206 -0 171 4 146 11 c 0
 122 19 107 33 100 53 c 1
 89 73 84 106 84 150 c 2
 84 421 l 2
 84 441 89 461 98 481 c 1
 105 504 120 523 142 539 c 0
 163 556 192 565 230 565 c 0
 273 565 307 551 334 523 c 0
 359 495 371 462 371 424 c 0
 371 383 359 349 334 322 c 0
 308 294 273 280 230 280 c 0
 219 280 203 283 181 289 c 1
228 351 m 0
 249 351 267 359 281 375 c 0
 293 387 299 403 299 421 c 0
 299 441 293 458 281 472 c 0
 269 486 252 493 228 493 c 0
 204 493 186 487 174 475 c 0
 162 460 155 443 155 424 c 0
 155 404 162 387 174 373 c 0
 188 359 206 351 228 351 c 0
EndSplineSet
MinimumDistance: x16,-1 
EndChar
StartChar: uni0E2E
Encoding: 206 3630
OldEncoding: 3630
Width: 778
Flags: HW
HStem: -0 84<223 512> 203 70<208 225> 417 71<208 225> 525 79<291 354> 729 72<293 354>
VStem: 50 97<654 664> 78 71<334 352> 78 97<142 208> 292 72<334 352> 561 97<142 576>
Fore
78 150 m 2
 78 342 l 2
 78 373 88 405 109 439 c 0
 130 472 169 488 224 488 c 0
 267 488 302 474 327 446 c 0
 352 419 364 386 364 347 c 0
 364 310 352 276 327 245 c 1
 301 217 266 203 224 203 c 0
 205 203 189 206 175 212 c 1
 175 150 l 2
 175 121 179 104 188 97 c 1
 195 88 214 84 246 84 c 2
 489 84 l 2
 520 84 540 88 549 97 c 0
 557 104 561 121 561 150 c 2
 561 583 l 1
 543 568 511 555 464 543 c 0
 410 531 364 525 325 525 c 0
 255 525 192 537 135 560 c 0
 78 583 50 615 50 657 c 0
 50 691 64 718 94 738 c 0
 124 759 161 776 202 786 c 0
 244 796 285 801 325 801 c 0
 381 801 431 794 476 782 c 0
 511 772 543 757 573 738 c 2
 605 715 l 1
 605 715 l 1
 639 749 666 779 686 805 c 1
 753 752 l 1
 727 715 707 690 692 678 c 0
 674 660 658 648 646 640 c 1
 652 636 656 627 658 613 c 1
 658 150 l 2
 658 88 648 47 626 28 c 0
 604 9 558 -0 489 -0 c 2
 246 -0 l 2
 200 -0 165 3 140 11 c 0
 116 18 100 32 94 53 c 1
 83 73 78 105 78 150 c 2
325 604 m 0
 364 604 401 609 434 618 c 1
 467 625 493 632 513 640 c 0
 531 649 540 655 540 657 c 1
 526 672 503 687 473 704 c 1
 436 720 387 729 325 729 c 0
 278 729 237 723 202 713 c 0
 165 701 147 684 147 662 c 0
 147 623 206 604 325 604 c 0
221 273 m 0
 245 273 263 280 274 293 c 0
 286 310 292 327 292 344 c 0
 292 364 286 381 274 395 c 0
 262 409 245 417 221 417 c 0
 200 417 182 409 168 395 c 0
 155 384 149 367 149 344 c 0
 149 325 155 308 168 293 c 0
 182 280 199 273 221 273 c 0
EndSplineSet
MinimumDistance: x31,-1 
EndChar
StartChar: uni0E2F
Encoding: 207 3631
OldEncoding: 3631
Width: 730
Flags: HW
HStem: 355 86<268 291> 523 67<192 211> 731 72<192 211> 768 20G<513.97 611.15>
VStem: 270 66<658 666> 514 97<226 518 761 788>
Fore
194 803 m 0
 239 803 274 790 298 763 c 0
 323 736 336 703 336 664 c 0
 336 628 323 595 298 567 c 0
 274 537 242 523 203 523 c 0
 181 523 164 526 152 532 c 2
 128 543 l 1
 139 515 157 491 183 472 c 1
 206 451 238 441 278 441 c 0
 321 441 361 457 395 490 c 0
 431 523 460 566 483 618 c 1
 504 671 514 728 514 788 c 1
 611 788 l 1
 611 247 l 2
 611 168 592 108 552 66 c 0
 514 25 451 -7 363 -29 c 1
 340 59 l 1
 407 76 454 98 481 125 c 1
 503 151 514 195 514 256 c 2
 514 518 l 1
 491 462 460 422 421 397 c 0
 376 369 330 355 282 355 c 0
 230 355 183 370 139 399 c 0
 93 430 62 469 46 518 c 0
 39 546 35 573 35 601 c 0
 35 659 47 707 71 744 c 0
 97 783 138 803 194 803 c 0
199 590 m 0
 223 590 241 596 252 611 c 0
 264 625 270 642 270 662 c 0
 270 680 263 696 250 710 c 0
 238 724 221 731 199 731 c 0
 176 731 159 724 148 710 c 0
 136 694 130 678 130 662 c 0
 130 642 136 625 148 611 c 0
 159 596 176 590 199 590 c 0
EndSplineSet
MinimumDistance: x12,-1 
EndChar
StartChar: uni0E30
Encoding: 208 3632
OldEncoding: 3632
Width: 605
Flags: HW
HStem: 223 62<150 158> 738 63<140 158> 766 20G<424.005 521.185>
VStem: 14 71<145 160 662 675> 217 75<142 160 662 675>
Fore
226 516 m 0
 154 516 101 531 67 560 c 1
 32 588 14 622 14 664 c 0
 14 701 27 733 53 762 c 0
 80 788 112 801 151 801 c 0
 199 801 234 789 257 764 c 0
 280 738 292 708 292 673 c 0
 292 645 282 618 264 592 c 1
 289 592 322 604 363 627 c 1
 404 653 424 706 424 786 c 1
 521 786 l 1
 521 728 510 679 486 638 c 1
 458 596 424 565 384 546 c 0
 342 526 290 516 226 516 c 0
226 -0 m 0
 156 -0 103 15 67 44 c 0
 32 75 14 110 14 148 c 0
 14 183 27 214 53 243 c 0
 80 273 112 287 151 285 c 0
 180 285 207 278 232 263 c 0
 249 253 264 238 277 218 c 0
 287 199 292 179 292 157 c 0
 292 128 282 101 264 77 c 1
 291 77 325 89 363 113 c 0
 404 137 424 190 424 271 c 1
 521 271 l 1
 521 212 510 163 486 123 c 0
 460 80 426 49 384 30 c 0
 343 10 290 -0 226 -0 c 0
151 223 m 0
 131 223 115 216 102 203 c 0
 91 190 85 174 85 155 c 0
 85 140 91 125 104 108 c 0
 116 95 131 88 151 88 c 0
 172 88 189 94 201 106 c 0
 212 119 217 135 217 155 c 0
 217 177 212 193 201 203 c 0
 189 216 172 223 151 223 c 0
151 738 m 0
 130 738 114 732 102 720 c 0
 91 706 85 690 85 671 c 0
 85 655 91 640 104 625 c 0
 116 611 131 604 151 604 c 0
 173 604 190 611 201 625 c 0
 212 635 217 651 217 671 c 0
 217 716 195 738 151 738 c 0
EndSplineSet
MinimumDistance: x6,-1 
EndChar
StartChar: uni0E31
Encoding: 209 3633
OldEncoding: 3633
Width: 0
Flags: HW
HStem: 1108 67<-345 -327>
VStem: -472 67<1021 1045> -273 75<1035 1045>
Fore
-472 1022 m 1
 -472 1068 -460 1104 -437 1131 c 1
 -415 1160 -382 1175 -337 1175 c 0
 -296 1175 -262 1161 -236 1135 c 0
 -211 1108 -198 1077 -198 1042 c 0
 -198 1004 -213 971 -242 943 c 1
 -236 941 -222 938 -202 936 c 2
 -160 932 l 1
 -117 934 -74 944 -32 962 c 0
 14 983 51 1008 76 1038 c 1
 106 1070 127 1108 140 1152 c 1
 220 1113 l 1
 207 1069 182 1026 144 985 c 1
 107 948 62 916 7 890 c 0
 -49 864 -106 850 -164 850 c 0
 -237 848 -307 861 -372 890 c 0
 -432 918 -465 962 -472 1022 c 1
-337 974 m 0
 -318 974 -302 980 -289 992 c 1
 -278 1005 -273 1021 -273 1040 c 0
 -273 1062 -278 1078 -289 1089 c 0
 -303 1102 -319 1108 -337 1108 c 0
 -357 1108 -373 1102 -386 1089 c 0
 -399 1077 -405 1061 -405 1040 c 0
 -405 1024 -399 1009 -386 994 c 0
 -375 980 -358 974 -337 974 c 0
EndSplineSet
MinimumDistance: x4,-1 
EndChar
StartChar: uni0E32
Encoding: 210 3634
OldEncoding: 3634
Width: 650
Flags: HW
HStem: -0 21G<433.565 530.745> 729 72<251 285>
VStem: 434 97<14 594>
Fore
-4 627 m 1
 26 684 61 727 100 757 c 0
 140 786 194 801 262 801 c 0
 342 801 406 781 456 740 c 0
 506 701 531 644 531 569 c 2
 531 -0 l 1
 434 -0 l 1
 434 574 l 2
 434 624 418 663 387 689 c 0
 356 716 315 729 262 729 c 0
 216 729 177 716 144 691 c 0
 110 667 84 633 67 592 c 1
 32 611 l 1
 -4 627 l 1
EndSplineSet
MinimumDistance: x4,-1 
EndChar
StartChar: uni0E33
Encoding: 211 3635
OldEncoding: 3635
Width: 670
Flags: HW
HStem: -24 21G<453.26 550.44> 705 72<264 298> 908 63<-198.718 -183> 1129 62<-198.762 -183>
VStem: -326 64<1035.9 1051> -105 62<1036.02 1051> 453 97<-9 570>
Fore
-184 908 m 4
 -227 908 -262 922 -288 950 c 0
 -314 980 -326 1013 -326 1050 c 0
 -326 1090 -314 1123 -290 1149 c 0
 -265 1177 -229 1191 -184 1191 c 0
 -140 1191 -105 1177 -79 1149 c 0
 -55 1123 -43 1090 -43 1050 c 0
 -43 1010 -55 977 -79 950 c 0
 -105 922 -140 908 -184 908 c 4
16 603 m 1
 46 660 81 703 120 733 c 0
 160 763 214 777 282 777 c 0
 361 777 426 757 476 716 c 0
 526 677 550 620 550 546 c 2
 550 -24 l 1
 453 -24 l 1
 453 550 l 2
 453 601 438 639 407 665 c 0
 376 692 334 705 282 705 c 0
 236 705 196 693 164 668 c 0
 129 643 104 610 87 568 c 1
 52 587 l 1
 16 603 l 1
-184 1129 m 0
 -209 1129 -228 1121 -242 1105 c 0
 -255 1089 -262 1071 -262 1050 c 0
 -262 1029 -255 1010 -242 994 c 0
 -227 979 -208 971 -184 971 c 0
 -169 971 -155 975 -142 983 c 0
 -131 989 -122 999 -114 1013 c 0
 -108 1023 -105 1035 -105 1050 c 0
 -105 1071 -112 1089 -125 1105 c 0
 -139 1121 -158 1129 -184 1129 c 0
EndSplineSet
MinimumDistance: x12,-1 
EndChar
StartChar: uni0E34
Encoding: 212 3636
OldEncoding: 3636
Width: 0
Flags: HW
HStem: 921 67<-513.328 -478.379>
DStem: -478.345 990.115 -478.345 990.115 -571.005 987.855 -399.245 987.855
Fore
-399 1171 m 5
 -298 1157 -224 1118 -180 1052 c 4
 -136 984 -107 914 -92 842 c 5
 -213 882 l 6
 -255 894 -313 905 -386 914 c 4
 -428 919 -470 921 -513 921 c 6
 -650 917 l 5
 -737 904 l 5
 -730 950 -710 994 -677 1036 c 5
 -648 1079 -609 1111 -560 1134 c 5
 -513 1158 -460 1171 -399 1171 c 5
-418 1099 m 5
 -467 1099 -510 1087 -547 1062 c 5
 -588 1038 -611 1012 -617 983 c 5
 -571 988 l 5
 -478 990 l 5
 -399 988 l 5
 -340 983 -293 974 -258 961 c 4
 -231 951 -209 941 -191 930 c 5
 -235 1027 -311 1083 -418 1099 c 5
EndSplineSet
EndChar
StartChar: uni0E35
Encoding: 213 3637
OldEncoding: 3637
Width: 0
Flags: HW
HStem: 916 67<-513.328 -478.379>
VStem: -207 87<1076 1253>
DStem: -478.345 984.785 -478.345 984.785 -571.005 982.525 -399.245 982.525
Fore
-207 1075 m 5
 -207 1258 l 5
 -120 1258 l 5
 -120 936 l 5
 -120 936 l 5
 -110 911 l 5
 -92 837 l 5
 -213 876 l 6
 -255 889 -313 900 -386 909 c 4
 -427 914 -470 916 -513 916 c 6
 -650 911 l 5
 -737 899 l 5
 -730 945 -710 989 -677 1031 c 5
 -649 1072 -609 1105 -560 1131 c 4
 -512 1154 -459 1166 -399 1166 c 5
 -362 1161 -329 1152 -300 1137 c 4
 -278 1128 -256 1116 -235 1101 c 5
 -207 1075 l 5
-418 1093 m 5
 -450 1093 -481 1087 -511 1075 c 4
 -541 1062 -564 1048 -580 1031 c 5
 -597 1018 -609 1000 -617 978 c 5
 -571 983 l 5
 -478 985 l 5
 -399 983 l 5
 -340 978 -293 969 -259 955 c 4
 -231 946 -209 935 -191 925 c 5
 -208 966 -234 1002 -268 1033 c 4
 -303 1067 -353 1086 -418 1093 c 5
EndSplineSet
MinimumDistance: x2,-1 
EndChar
StartChar: uni0E36
Encoding: 214 3638
OldEncoding: 3638
Width: 0
Flags: HW
HStem: 915 67<-513 -477> 1209 62<-215 -192>
VStem: -330 64<1149.02 1157>
DStem: -477.995 984.005 -477.995 984.005 -570.655 981.745 -398.895 981.745
Fore
-80 1147 m 4
 -80 1116 -88 1089 -103 1068 c 4
 -119 1044 -141 1030 -166 1026 c 5
 -158 1015 -145 990 -127 952 c 4
 -110 919 -98 880 -92 836 c 5
 -212 876 l 6
 -255 888 -312 899 -385 908 c 4
 -428 913 -470 915 -513 915 c 6
 -650 911 l 5
 -737 898 l 5
 -727 950 -707 996 -677 1037 c 4
 -649 1077 -612 1109 -566 1134 c 4
 -522 1158 -480 1169 -438 1169 c 5
 -388 1165 l 5
 -346 1156 l 5
 -330 1149 l 5
 -330 1180 -318 1207 -295 1231 c 5
 -275 1258 -245 1271 -207 1271 c 4
 -166 1271 -135 1259 -114 1236 c 4
 -94 1211 -82 1181 -80 1147 c 4
-205 1209 m 4
 -226 1209 -240 1203 -249 1192 c 5
 -260 1181 -266 1168 -266 1151 c 4
 -266 1135 -260 1122 -249 1112 c 4
 -236 1099 -221 1092 -205 1092 c 4
 -190 1092 -177 1099 -164 1112 c 4
 -153 1122 -147 1135 -147 1151 c 4
 -147 1167 -151 1181 -160 1192 c 5
 -172 1203 -186 1209 -205 1209 c 4
-418 1092 m 5
 -450 1092 -481 1086 -511 1074 c 4
 -541 1062 -564 1047 -580 1030 c 5
 -596 1017 -609 999 -617 977 c 5
 -571 982 l 5
 -478 984 l 5
 -399 982 l 5
 -340 977 -293 968 -258 955 c 4
 -231 945 -208 935 -191 924 c 5
 -205 961 -231 996 -268 1030 c 4
 -302 1063 -352 1083 -418 1092 c 5
EndSplineSet
MinimumDistance: x21,-1 
EndChar
StartChar: uni0E37
Encoding: 215 3639
OldEncoding: 3639
Width: 0
Flags: HW
HStem: 916 67<-513.328 -478.379> 1093 77<-435 -419>
VStem: -381 88<1164 1253> -207 87<1073 1253>
DStem: -478.345 984.785 -478.345 984.785 -571.005 982.525 -399.245 982.525
Fore
-120 934 m 5
 -117 934 -108 902 -92 837 c 5
 -213 876 l 6
 -255 889 -313 900 -386 909 c 4
 -427 914 -470 916 -513 916 c 6
 -650 911 l 5
 -737 899 l 5
 -731 946 -711 992 -677 1036 c 4
 -644 1079 -607 1112 -566 1133 c 5
 -524 1158 -479 1170 -432 1170 c 4
 -414 1170 -397 1168 -381 1163 c 5
 -381 1258 l 5
 -293 1258 l 5
 -293 1135 l 5
 -258 1122 -229 1102 -207 1073 c 5
 -207 1258 l 5
 -120 1258 l 5
 -120 934 l 5
-418 1093 m 5
 -467 1093 -510 1081 -548 1057 c 4
 -588 1032 -611 1006 -617 978 c 5
 -571 983 l 5
 -478 985 l 5
 -399 983 l 5
 -340 978 -293 969 -259 955 c 4
 -231 946 -209 935 -191 925 c 5
 -235 1021 -311 1077 -418 1093 c 5
EndSplineSet
MinimumDistance: x0,-1 
EndChar
StartChar: uni0E38
Encoding: 216 3640
OldEncoding: 3640
Width: 0
Flags: HW
HStem: -297 72<-270 -260> -85 72<-270 -260>
VStem: -405 69<-159 -149> -219 98<-479 -296> -191 70<-169.634 -150>
Fore
-121 -494 m 5
 -219 -494 l 5
 -219 -290 l 5
 -232 -295 -249 -297 -268 -297 c 4
 -312 -297 -346 -283 -369 -255 c 4
 -393 -228 -405 -195 -405 -156 c 4
 -405 -117 -393 -84 -369 -54 c 5
 -344 -26 -308 -13 -262 -13 c 4
 -220 -13 -187 -25 -162 -50 c 4
 -135 -75 -121 -109 -121 -151 c 6
 -121 -494 l 5
-262 -225 m 4
 -242 -225 -224 -218 -209 -204 c 4
 -197 -192 -191 -176 -191 -156 c 4
 -191 -136 -197 -119 -209 -105 c 4
 -221 -91 -239 -85 -262 -85 c 4
 -285 -85 -304 -92 -318 -107 c 4
 -330 -122 -336 -138 -336 -156 c 4
 -336 -175 -330 -191 -316 -204 c 4
 -302 -218 -284 -225 -262 -225 c 4
EndSplineSet
MinimumDistance: x0,-1 
EndChar
StartChar: uni0E39
Encoding: 217 3641
OldEncoding: 3641
Width: 0
Flags: HW
HStem: -513 78<-287 -269> -296 72<-483 -477> -83 72<-483 -477> -40 20G<-217.385 -119.075>
VStem: -622 72<-162 -144> -434 97<-386 -294> -406 69<-162 -144> -217 98<-386 -32>
Fore
-434 -377 m 6
 -434 -289 l 5
 -448 -294 -463 -296 -481 -296 c 4
 -524 -296 -558 -281 -582 -252 c 4
 -609 -221 -622 -188 -622 -152 c 4
 -622 -117 -609 -84 -582 -53 c 4
 -558 -25 -523 -11 -478 -11 c 4
 -436 -11 -403 -24 -379 -48 c 5
 -351 -73 -337 -106 -337 -150 c 6
 -337 -377 l 6
 -337 -392 -331 -406 -319 -418 c 4
 -308 -429 -294 -435 -277 -435 c 4
 -260 -435 -246 -429 -235 -418 c 4
 -223 -406 -217 -392 -217 -377 c 6
 -217 -20 l 5
 -119 -20 l 5
 -119 -377 l 6
 -119 -416 -135 -450 -165 -477 c 4
 -195 -501 -232 -513 -277 -513 c 4
 -318 -513 -354 -500 -386 -474 c 4
 -418 -449 -434 -416 -434 -377 c 6
-478 -224 m 4
 -454 -224 -437 -217 -425 -203 c 4
 -412 -188 -406 -172 -406 -155 c 4
 -406 -137 -412 -121 -425 -106 c 5
 -436 -91 -454 -83 -478 -83 c 4
 -503 -83 -520 -90 -532 -104 c 4
 -544 -118 -550 -135 -550 -155 c 4
 -550 -173 -543 -190 -529 -203 c 5
 -518 -217 -501 -224 -478 -224 c 4
EndSplineSet
MinimumDistance: x15,-1 
EndChar
StartChar: uni0E3A
Encoding: 218 3642
OldEncoding: 3642
Width: 0
Flags: HW
Fore
-171 -73 m 5
 -147 -73 -129 -79 -117 -93 c 5
 -105 -111 -99 -129 -99 -147 c 4
 -99 -163 -105 -180 -117 -198 c 5
 -129 -212 -147 -218 -171 -218 c 4
 -194 -218 -211 -212 -224 -198 c 4
 -238 -181 -244 -165 -244 -147 c 4
 -244 -131 -238 -113 -226 -95 c 5
 -213 -82 -194 -75 -171 -73 c 5
EndSplineSet
EndChar
StartChar: dottedcircle
Encoding: 221 9676
OldEncoding: 63260
Width: 1269
VWidth: 1000
Flags: HW
HStem: 6 50<653 662> 56 50<458 462> 70 50<829 835> 178 50<326 335> 194 50<940 944> 377 50<277 287> 548 50<940 944> 556 50<333 340> 668 50<808 819> 678 50<472 479> 724 50<653 662>
VStem: 254 50<394 407> 303 50<197 205> 313 50<573 583> 435 50<79 87> 449 50<701 711> 635 50<29 39 741 751> 791 50<691 695> 807 50<93 103> 917 50<213 221 565 581> 965 50<389 395>
Fore
323 603 m 2
459 725 m 2
445 103 m 2
313 225 m 2
817 117 m 2
927 241 m 2
927 595 m 2
801 715 m 2
975 415 m 2
264 424 m 2
643 771 m 2
338 606 m 0
 352 606 363 595 363 581 c 0
 363 567 352 556 338 556 c 0
 324 556 313 567 313 581 c 0
 313 595 324 606 338 606 c 0
474 728 m 0
 488 728 499 717 499 703 c 0
 499 689 488 678 474 678 c 0
 460 678 449 689 449 703 c 0
 449 717 460 728 474 728 c 0
460 106 m 0
 474 106 485 95 485 81 c 0
 485 67 474 56 460 56 c 0
 446 56 435 67 435 81 c 0
 435 95 446 106 460 106 c 0
328 228 m 0
 342 228 353 217 353 203 c 0
 353 189 342 178 328 178 c 0
 314 178 303 189 303 203 c 0
 303 217 314 228 328 228 c 0
832 120 m 0
 846 120 857 109 857 95 c 0
 857 81 846 70 832 70 c 0
 818 70 807 81 807 95 c 0
 807 109 818 120 832 120 c 0
942 244 m 0
 956 244 967 233 967 219 c 0
 967 205 956 194 942 194 c 0
 928 194 917 205 917 219 c 0
 917 233 928 244 942 244 c 0
942 598 m 0
 956 598 967 587 967 573 c 0
 967 559 956 548 942 548 c 0
 928 548 917 559 917 573 c 0
 917 587 928 598 942 598 c 0
816 718 m 0
 830 718 841 707 841 693 c 0
 841 679 830 668 816 668 c 0
 802 668 791 679 791 693 c 0
 791 707 802 718 816 718 c 0
990 418 m 0
 1004 418 1015 407 1015 393 c 0
 1015 379 1004 368 990 368 c 0
 976 368 965 379 965 393 c 0
 965 407 976 418 990 418 c 0
279 427 m 0
 293 427 304 416 304 402 c 0
 304 388 293 377 279 377 c 0
 265 377 254 388 254 402 c 0
 254 416 265 427 279 427 c 0
660 56 m 0
 674 56 685 45 685 31 c 0
 685 17 674 6 660 6 c 0
 646 6 635 17 635 31 c 0
 635 45 646 56 660 56 c 0
658 774 m 0
 672 774 683 763 683 749 c 0
 683 735 672 724 658 724 c 0
 644 724 633 735 633 749 c 0
 633 763 644 774 658 774 c 0
EndSplineSet
MinimumDistance: x44,-1 
EndChar
StartChar: uni0E3F
Encoding: 223 3647
OldEncoding: 3647
Width: 842
Flags: HW
HStem: 0 94<207 344 438 530> 430 96<207 344 438 482> 834 94<207 344 438.125 468.308>
VStem: 113 94<94 430 526 834> 344 94<-125 0 94 430 526 834 928 1040> 639 96<671 694> 682 92<242 276>
Fore
344 526 m 5
 344 834 l 5
 207 834 l 5
 207 526 l 5
 344 526 l 5
344 94 m 5
 344 430 l 5
 207 430 l 5
 207 94 l 5
 344 94 l 5
438 430 m 5
 438 94 l 5
 514 94 l 6
 626 94 682 151 682 266 c 4
 682 333 658 378 610 403 c 4
 576 421 523 430 451 430 c 6
 438 430 l 5
438 834 m 5
 438 526 l 5
 461 526 l 6
 509 526 550 538 583 562 c 4
 620 589 639 625 639 672 c 4
 639 780 572 834 438 834 c 5
344 1040 m 5
 438 1040 l 5
 438 928 l 5
 502 928 l 6
 554 928 602 912 647 879 c 4
 706 836 735 774 735 694 c 4
 735 604 691 537 602 492 c 5
 659 463 l 6
 736 425 774 357 774 260 c 4
 774 178 745 111 688 59 c 4
 645 20 600 0 553 0 c 6
 438 0 l 5
 438 -125 l 5
 344 -125 l 5
 344 0 l 5
 113 0 l 5
 113 928 l 5
 344 928 l 5
 344 1040 l 5
EndSplineSet
MinimumDistance: x27,-1 y21,19 y21,20 y30,32 y30,31 y34,36 y35,33 x33,35 x33,34 
EndChar
StartChar: uni0E40
Encoding: 224 3648
OldEncoding: 3648
Width: 430
Flags: HW
HStem: -12 71<228.527 246> 200 72<227.901 246> 768 20G<98.6201 195.8>
VStem: 99 71<124 134> 99 97<265 788> 313 70<124 134>
Fore
99 788 m 1
 196 788 l 1
 196 265 l 1
 207 270 223 272 244 272 c 0
 287 272 322 259 348 231 c 1
 372 202 383 168 383 129 c 0
 383 90 371 57 346 30 c 0
 320 2 286 -12 242 -12 c 0
 200 -12 167 0 143 24 c 0
 113 51 99 86 99 127 c 2
 99 788 l 1
242 200 m 0
 220 200 203 194 191 180 c 1
 177 166 170 150 170 131 c 0
 170 112 176 95 189 81 c 0
 203 66 220 59 242 59 c 0
 266 59 284 66 295 81 c 0
 307 95 313 112 313 131 c 0
 313 148 307 164 295 180 c 1
 281 194 263 200 242 200 c 0
EndSplineSet
MinimumDistance: x5,-1 
EndChar
StartChar: uni0E41
Encoding: 225 3649
OldEncoding: 3649
Width: 782
Flags: HW
HStem: -12 71<207.089 226 577.282 594> 200 72<206.479 226 576.413 594> 768 20G<77.2354 174.415 449.005 546.185>
VStem: 77 71<124 134> 77 97<265 788> 292 70<124 134> 449 70<124 134> 449 97<265 788> 665 69<124 134>
Fore
77 788 m 1
 174 788 l 1
 174 265 l 1
 185 270 201 272 223 272 c 0
 266 272 301 259 327 231 c 1
 350 202 362 168 362 129 c 0
 362 90 350 57 325 30 c 0
 299 2 264 -12 221 -12 c 0
 179 -12 145 0 121 24 c 0
 92 51 77 86 77 127 c 2
 77 788 l 1
449 788 m 1
 546 788 l 1
 546 265 l 1
 560 270 575 272 593 272 c 0
 636 272 671 259 698 231 c 1
 722 202 734 168 734 129 c 0
 734 92 721 60 695 32 c 0
 670 3 635 -12 590 -12 c 0
 550 -12 518 0 493 24 c 0
 464 52 449 86 449 127 c 2
 449 788 l 1
590 200 m 0
 568 200 551 194 539 180 c 0
 526 164 519 147 519 131 c 0
 519 113 525 97 537 83 c 0
 551 67 568 59 590 59 c 0
 614 59 633 67 646 83 c 0
 658 97 665 113 665 131 c 0
 665 147 658 164 643 180 c 0
 630 194 612 200 590 200 c 0
221 200 m 0
 198 200 181 194 170 180 c 1
 156 166 148 150 148 131 c 0
 148 112 155 95 168 81 c 0
 181 66 199 59 221 59 c 0
 245 59 263 66 274 81 c 0
 286 95 292 112 292 131 c 0
 292 148 286 164 274 180 c 1
 260 194 242 200 221 200 c 0
EndSplineSet
MinimumDistance: x15,-1 
EndChar
StartChar: uni0E42
Encoding: 226 3650
OldEncoding: 3650
Width: 471
Flags: HW
HStem: -49 71<306 324> 163 72<306 324> 1258 81<354 372> 1316 81<146 168>
VStem: 167 71<87 97> 167 97<228 1055> 381 70<87 97>
Fore
167 90 m 2
 167 1031 l 2
 167 1070 163 1101 155 1124 c 1
 146 1142 125 1161 92 1181 c 0
 61 1201 -0 1231 -92 1272 c 1
 -72 1296 -41 1322 1 1351 c 0
 46 1382 97 1397 153 1397 c 0
 187 1397 226 1388 268 1369 c 0
 311 1349 342 1339 363 1339 c 0
 387 1339 413 1349 442 1369 c 1
 482 1302 l 1
 444 1273 405 1258 366 1258 c 0
 345 1258 310 1268 259 1288 c 1
 216 1306 181 1316 153 1316 c 0
 131 1316 111 1312 92 1305 c 0
 80 1299 70 1293 61 1285 c 1
 189 1216 l 1
 210 1204 229 1183 244 1154 c 0
 257 1126 264 1087 264 1036 c 2
 264 228 l 1
 275 233 291 235 313 235 c 0
 357 235 391 222 414 194 c 0
 439 167 451 133 451 92 c 0
 451 51 439 18 414 -7 c 0
 389 -35 355 -49 310 -49 c 0
 270 -49 237 -37 213 -13 c 1
 182 13 167 47 167 90 c 2
310 163 m 0
 288 163 271 156 259 143 c 0
 245 127 238 111 238 94 c 0
 238 75 244 59 257 43 c 0
 268 29 286 22 310 22 c 0
 334 22 352 29 363 43 c 0
 375 58 381 75 381 94 c 0
 381 112 375 128 361 143 c 0
 350 156 333 163 310 163 c 0
EndSplineSet
MinimumDistance: x22,-1 
EndChar
StartChar: uni0E43
Encoding: 227 3651
OldEncoding: 3651
Width: 474
Flags: HW
HStem: -49 71<299 316> 163 72<299 316> 1055 55<11 29> 1334 68<70 97>
VStem: 72 55<1153.38 1167> 169 71<87 97> 169 97<228 1231> 384 70<87 97>
Fore
169 90 m 2
 169 1221 l 2
 169 1296 140 1334 83 1334 c 0
 53 1334 32 1327 21 1313 c 0
 11 1298 3 1286 -0 1276 c 1
 40 1276 71 1265 95 1244 c 0
 116 1223 127 1196 127 1165 c 0
 127 1133 116 1106 95 1084 c 0
 75 1064 50 1055 19 1055 c 0
 -5 1055 -27 1061 -49 1075 c 0
 -69 1085 -82 1105 -90 1133 c 0
 -96 1153 -100 1178 -100 1207 c 0
 -100 1261 -84 1307 -54 1346 c 0
 -23 1383 22 1402 81 1402 c 0
 134 1402 179 1386 215 1355 c 1
 249 1323 266 1278 266 1218 c 2
 266 227 l 1
 277 233 293 235 315 235 c 0
 359 235 393 221 417 193 c 0
 441 166 454 132 454 92 c 0
 454 51 441 18 417 -8 c 0
 392 -36 357 -49 313 -49 c 0
 272 -49 240 -37 215 -13 c 1
 185 12 169 47 169 90 c 2
17 1221 m 0
 -4 1221 -17 1215 -23 1205 c 1
 -34 1194 -39 1180 -39 1165 c 0
 -39 1149 -34 1136 -23 1126 c 1
 -17 1115 -4 1110 17 1110 c 0
 35 1110 49 1115 58 1126 c 0
 67 1137 72 1150 72 1165 c 0
 72 1180 67 1193 58 1205 c 0
 49 1215 35 1221 17 1221 c 0
313 163 m 0
 290 163 273 156 262 143 c 0
 247 127 240 111 240 94 c 0
 240 75 247 58 259 43 c 0
 271 29 288 22 313 22 c 0
 337 22 354 29 366 43 c 0
 378 58 384 74 384 94 c 0
 384 111 377 128 363 143 c 0
 352 156 335 163 313 163 c 0
EndSplineSet
MinimumDistance: x19,-1 
EndChar
StartChar: uni0E44
Encoding: 228 3652
OldEncoding: 3652
Width: 550
Flags: HW
HStem: -49 71<383 401> 163 72<383 401>
VStem: 247 69<87 96> 247 97<228 1299> 460 72<87 96>
DStem: -51.0049 1290.72 15.665 1315.58 24.7051 1005.96 84.5947 1050.03 154.655 1320.1 225.845 1297.5 84.5947 1050.03 141.095 1001.44
Fore
247 90 m 2
 247 1291 l 2
 247 1303 244 1309 238 1309 c 0
 232 1309 228 1305 226 1298 c 2
 141 1001 l 1
 129 962 109 943 82 943 c 0
 55 943 36 964 25 1006 c 2
 -51 1291 l 1
 -62 1323 -76 1342 -95 1348 c 1
 -46 1401 l 1
 -16 1390 4 1362 16 1316 c 1
 85 1050 l 1
 155 1320 l 2
 168 1371 201 1397 252 1397 c 0
 280 1397 303 1388 319 1371 c 1
 336 1355 344 1331 344 1298 c 2
 344 227 l 1
 355 233 371 235 393 235 c 0
 436 235 471 221 497 193 c 1
 520 164 532 131 532 94 c 0
 532 53 520 19 495 -8 c 0
 469 -36 434 -49 389 -49 c 0
 348 -49 315 -37 291 -13 c 0
 262 14 247 48 247 90 c 2
389 163 m 0
 368 163 351 156 338 143 c 0
 323 126 316 110 316 94 c 0
 316 75 323 59 338 45 c 1
 348 30 365 22 389 22 c 0
 413 22 430 29 442 43 c 0
 454 58 460 74 460 94 c 0
 460 111 454 127 442 143 c 1
 427 156 409 163 389 163 c 0
EndSplineSet
MinimumDistance: x19,-1 
EndChar
StartChar: uni0E45
Encoding: 229 3653
OldEncoding: 3653
Width: 650
Flags: HW
HStem: 752 72<251 285>
VStem: 434 97<-371 617>
Fore
-4 651 m 1
 26 707 61 750 100 781 c 0
 140 810 194 824 262 824 c 0
 342 824 406 804 456 764 c 0
 506 724 531 668 531 593 c 2
 531 -386 l 1
 434 -386 l 1
 434 597 l 2
 434 648 418 686 387 713 c 0
 356 739 315 752 262 752 c 0
 216 752 177 740 144 715 c 0
 110 690 84 657 67 616 c 1
 32 635 l 1
 -4 651 l 1
EndSplineSet
MinimumDistance: x4,-1 
EndChar
StartChar: uni0E46
Encoding: 230 3654
OldEncoding: 3654
Width: 861
Flags: HW
HStem: 352 67<355 373> 544 62<355 373>
VStem: 181 84<565 591> 428 62<468.11 483> 644 97<-47 606>
Fore
563 819 m 1
 601 812 636 797 667 775 c 0
 693 755 712 729 724 696 c 0
 736 668 741 632 741 588 c 2
 741 -26 l 2
 741 -77 733 -122 715 -160 c 0
 699 -196 672 -224 636 -245 c 1
 605 -267 559 -286 496 -301 c 1
 470 -213 l 1
 538 -197 584 -175 609 -148 c 0
 632 -122 644 -78 644 -17 c 2
 644 574 l 2
 644 616 639 650 629 678 c 0
 620 702 597 722 563 738 c 1
 470 680 l 1
 470 680 l 1
 430 701 l 1
 362 738 l 1
 329 725 304 704 287 674 c 0
 272 644 265 608 265 564 c 1
 298 590 l 2
 314 601 336 606 364 606 c 0
 404 606 436 593 459 569 c 0
 480 543 490 514 490 482 c 0
 490 447 480 417 459 391 c 1
 435 365 403 352 364 352 c 0
 325 352 293 363 265 384 c 0
 239 404 217 432 201 467 c 1
 188 502 181 541 181 583 c 0
 181 641 198 691 234 736 c 0
 269 780 312 807 364 819 c 1
 430 784 l 2
 457 771 470 763 470 761 c 1
 563 819 l 1
364 544 m 0
 346 544 332 538 320 526 c 0
 307 511 301 497 301 482 c 0
 301 465 306 451 317 440 c 1
 329 425 344 419 364 419 c 0
 385 419 401 425 412 438 c 0
 423 448 428 463 428 482 c 0
 428 501 423 517 412 528 c 0
 402 538 386 544 364 544 c 0
EndSplineSet
MinimumDistance: x3,-1 
EndChar
StartChar: uni0E47
Encoding: 231 3655
OldEncoding: 3655
Width: 0
Flags: HW
HStem: 836 55<-193 -175> 954 73<-415.075 -404.115> 1003 51<-193 -175> 1107 69<-294 -246>
VStem: -623 77<1021 1040> -133 57<937 959>
Fore
-229 836 m 4
 -255 836 -276 841 -291 851 c 4
 -318 868 -339 883 -353 895 c 4
 -376 916 -395 931 -412 940 c 4
 -429 949 -445 954 -458 954 c 4
 -492 952 -516 936 -529 906 c 4
 -542 877 -550 852 -552 831 c 5
 -581 844 -608 871 -631 912 c 4
 -654 952 -666 991 -666 1030 c 4
 -666 1046 -662 1065 -655 1088 c 4
 -629 1152 -566 1185 -465 1185 c 5
 -402 1182 l 5
 -365 1178 -332 1176 -300 1176 c 4
 -254 1176 -221 1184 -200 1199 c 4
 -179 1214 -169 1241 -169 1282 c 5
 -92 1282 l 5
 -92 1218 -110 1173 -145 1149 c 4
 -182 1121 -240 1107 -319 1107 c 4
 -352 1107 -388 1109 -428 1114 c 5
 -484 1114 -524 1108 -547 1098 c 4
 -575 1086 -589 1065 -589 1034 c 4
 -589 1013 -582 988 -569 959 c 5
 -566 967 -554 982 -534 1003 c 4
 -517 1019 -492 1027 -458 1027 c 4
 -430 1027 -405 1022 -384 1010 c 4
 -359 995 -343 984 -335 975 c 5
 -328 1000 -316 1019 -298 1032 c 4
 -279 1047 -256 1054 -229 1054 c 4
 -196 1054 -169 1044 -147 1023 c 5
 -129 1002 -119 976 -119 946 c 4
 -119 915 -129 889 -147 868 c 5
 -169 847 -196 836 -229 836 c 4
-229 891 m 4
 -211 891 -197 897 -189 908 c 4
 -180 919 -176 932 -176 946 c 4
 -176 961 -180 975 -189 986 c 4
 -198 997 -211 1003 -229 1003 c 4
 -245 1003 -258 997 -268 986 c 4
 -277 975 -282 961 -282 946 c 4
 -282 934 -277 921 -268 910 c 4
 -258 897 -245 891 -229 891 c 4
EndSplineSet
MinimumDistance: x29,-1 
EndChar
StartChar: uni0E48
Encoding: 232 3656
OldEncoding: 3656
Width: 0
Flags: HW
VStem: -208 87<1313 1555>
Fore
-208 1298 m 5
 -208 1569 l 5
 -121 1569 l 5
 -121 1298 l 5
 -208 1298 l 5
EndSplineSet
MinimumDistance: x2,-1 
EndChar
StartChar: uni0E49
Encoding: 233 3657
OldEncoding: 3657
Width: 0
Flags: HW
HStem: 1538 60<-321 -297>
VStem: -427 64<1474 1487> -250 70<1470 1487>
Fore
-180 1476 m 4
 -180 1437 -186 1405 -199 1379 c 4
 -212 1353 -224 1337 -233 1330 c 5
 -166 1330 -114 1347 -76 1381 c 4
 -47 1407 -29 1436 -22 1469 c 4
 -13 1503 -9 1543 -9 1589 c 5
 77 1589 l 5
 77 1445 28 1348 -71 1300 c 4
 -119 1275 -177 1263 -245 1263 c 5
 -319 1267 l 5
 -363 1277 l 5
 -353 1283 -340 1292 -323 1304 c 5
 -307 1320 -296 1343 -288 1372 c 5
 -292 1372 -295 1371 -298 1369 c 5
 -319 1367 l 5
 -349 1372 l 5
 -401 1388 -427 1425 -427 1483 c 4
 -427 1506 -422 1526 -411 1541 c 5
 -402 1559 -388 1573 -369 1585 c 4
 -354 1594 -333 1598 -307 1598 c 4
 -265 1598 -234 1586 -215 1561 c 5
 -191 1538 -180 1510 -180 1476 c 4
-307 1538 m 4
 -327 1538 -341 1533 -349 1523 c 4
 -358 1511 -363 1497 -363 1483 c 4
 -363 1468 -358 1455 -349 1444 c 4
 -339 1431 -325 1425 -307 1425 c 4
 -291 1425 -277 1431 -265 1444 c 5
 -255 1452 -250 1465 -250 1483 c 4
 -250 1498 -255 1511 -265 1523 c 4
 -274 1533 -288 1538 -307 1538 c 4
EndSplineSet
MinimumDistance: x0,-1 
EndChar
StartChar: uni0E4A
Encoding: 234 3658
OldEncoding: 3658
Width: 0
Flags: HW
HStem: 1253 42<-399 -385.472> 1397 42<-401 -385> 1496 62<-399 -385 -246 -235>
VStem: -347 42<1332 1350> -186 63<1403 1425>
Fore
-398 1253 m 0
 -425 1255 -447 1264 -465 1278 c 0
 -485 1294 -500 1315 -509 1341 c 0
 -519 1368 -524 1394 -524 1417 c 0
 -521 1458 -508 1492 -486 1519 c 0
 -464 1545 -435 1558 -398 1558 c 0
 -382 1558 -368 1556 -354 1552 c 1
 -324 1533 l 1
 -310 1519 l 1
 -306 1524 -297 1533 -283 1545 c 1
 -269 1554 -251 1558 -229 1558 c 0
 -191 1558 -164 1545 -148 1519 c 0
 -131 1493 -123 1459 -123 1417 c 0
 -123 1385 -132 1352 -151 1318 c 1
 -133 1326 -120 1334 -111 1341 c 1
 -93 1353 -79 1367 -69 1384 c 0
 -51 1415 -42 1447 -42 1479 c 0
 -42 1498 -44 1518 -49 1540 c 1
 19 1563 l 1
 23 1549 26 1530 26 1505 c 0
 26 1443 10 1390 -21 1346 c 0
 -59 1289 -136 1260 -252 1260 c 5
 -211 1318 l 1
 -196 1343 -188 1372 -186 1403 c 0
 -186 1431 -189 1453 -197 1470 c 0
 -204 1487 -219 1496 -243 1496 c 0
 -258 1496 -272 1490 -283 1479 c 0
 -296 1466 -303 1457 -305 1452 c 1
 -307 1458 -316 1467 -331 1479 c 0
 -344 1490 -362 1496 -387 1496 c 0
 -405 1496 -420 1490 -433 1477 c 1
 -444 1464 -449 1446 -449 1424 c 1
 -431 1433 l 1
 -417 1437 -406 1439 -398 1439 c 0
 -371 1439 -349 1430 -331 1413 c 0
 -314 1394 -305 1370 -305 1341 c 0
 -305 1319 -315 1299 -334 1280 c 0
 -352 1262 -373 1253 -398 1253 c 0
-398 1397 m 0
 -417 1397 -429 1391 -435 1380 c 1
 -444 1368 -449 1357 -449 1346 c 0
 -449 1332 -444 1320 -435 1311 c 1
 -429 1300 -417 1295 -398 1295 c 0
 -380 1295 -367 1300 -359 1311 c 0
 -351 1318 -347 1330 -347 1346 c 0
 -347 1357 -351 1369 -359 1382 c 1
 -368 1392 -381 1397 -398 1397 c 0
EndSplineSet
MinimumDistance: x12,-1 
EndChar
StartChar: uni0E4B
Encoding: 235 3659
OldEncoding: 3659
Width: 0
Flags: HW
HStem: 1391 79<-342 -214 -126 12>
VStem: -213 87<1293 1391 1470 1583>
Fore
-213 1391 m 5
 -357 1391 l 5
 -357 1470 l 5
 -213 1470 l 5
 -213 1586 l 5
 -126 1586 l 5
 -126 1470 l 5
 18 1470 l 5
 18 1391 l 5
 -126 1391 l 5
 -126 1278 l 5
 -213 1278 l 5
 -213 1391 l 5
EndSplineSet
MinimumDistance: y3,5 y3,4 y0,10 y0,11 x6,8 x6,7 x0,2 x0,1 
EndChar
StartChar: uni0E4C
Encoding: 236 3660
OldEncoding: 3660
Width: 0
Flags: HW
HStem: 1168 62<-185.689 -175.818>
VStem: -334 99<1278.74 1309.25> -135 55<1274 1280>
Fore
-269 1334 m 1
 -266 1342 -258 1353 -246 1365 c 0
 -234 1374 -214 1380 -186 1383 c 1
 -153 1380 -127 1370 -108 1351 c 0
 -89 1330 -80 1305 -80 1276 c 0
 -80 1247 -89 1223 -108 1203 c 1
 -127 1180 -153 1168 -186 1168 c 0
 -231 1166 -267 1179 -294 1208 c 1
 -321 1232 -334 1266 -334 1309 c 0
 -334 1344 -326 1375 -311 1402 c 1
 -292 1431 -269 1450 -243 1462 c 0
 -209 1475 -169 1482 -121 1484 c 0
 -74 1487 -36 1493 -7 1504 c 0
 15 1510 27 1532 27 1568 c 1
 97 1568 l 1
 97 1536 87 1509 69 1487 c 0
 53 1467 33 1454 9 1446 c 1
 -18 1434 -58 1427 -110 1425 c 0
 -155 1422 -192 1416 -221 1406 c 1
 -246 1394 -263 1370 -269 1334 c 1
-186 1327 m 0
 -218 1327 -235 1311 -235 1279 c 0
 -235 1267 -230 1257 -221 1246 c 1
 -215 1235 -203 1230 -186 1230 c 0
 -174 1230 -161 1235 -148 1244 c 1
 -139 1256 -135 1267 -135 1279 c 0
 -135 1293 -139 1305 -148 1314 c 0
 -158 1323 -171 1327 -186 1327 c 0
EndSplineSet
MinimumDistance: x4,-1 
EndChar
StartChar: uni0E4D
Encoding: 237 3661
OldEncoding: 3661
Width: 0
Flags: HW
HStem: 909 66<-234.198 -217> 1129 64<-233.867 -217>
VStem: -362 64<1038.42 1054> -141 63<1038.46 1054>
Fore
-219 909 m 4
 -263 909 -298 923 -323 953 c 0
 -349 981 -362 1014 -362 1052 c 0
 -362 1089 -349 1121 -323 1149 c 1
 -299 1179 -264 1193 -219 1193 c 0
 -175 1193 -141 1179 -115 1152 c 0
 -90 1126 -78 1093 -78 1052 c 0
 -78 1011 -90 978 -115 950 c 4
 -141 923 -176 909 -219 909 c 4
-219 1129 m 0
 -244 1129 -264 1121 -276 1105 c 0
 -291 1090 -298 1072 -298 1052 c 0
 -298 1030 -291 1012 -276 997 c 0
 -264 982 -244 975 -219 975 c 0
 -193 975 -174 982 -161 997 c 0
 -148 1013 -141 1031 -141 1052 c 0
 -141 1066 -144 1077 -150 1087 c 0
 -159 1102 -168 1112 -177 1118 c 0
 -191 1125 -205 1129 -219 1129 c 0
EndSplineSet
MinimumDistance: x6,-1 
EndChar
